<?xml version="1.0" encoding="UTF-8"?>
<svg width="46px" height="27px" viewBox="0 0 46 27" version="1.1" xmlns="http://www.w3.org/2000/svg" xmlns:xlink="http://www.w3.org/1999/xlink">
    <!-- Generator: Sketch 50.2 (55047) - http://www.bohemiancoding.com/sketch -->
    <title>icon-book-now</title>
    <desc>Created with Sketch.</desc>
    <defs></defs>
    <g id="Page-1" stroke="none" stroke-width="1" fill="none" fill-rule="evenodd">
        <g id="Solutions-RateMatch-1800" transform="translate(-1047.000000, -4378.000000)" fill="#838383">
            <path d="M1088.54483,4403.90957 L1051.35057,4403.90957 C1051.32383,4403.90957 1051.29942,4403.90265 1051.27153,4403.90149 C1051.84339,4404.56729 1052.68375,4405 1053.63336,4405 L1089.88498,4405 C1091.60289,4405 1093,4403.61302 1093,4401.90756 L1093,4388.14505 C1093,4387.04308 1092.61876,4386.17073 1091.74353,4385.62379 C1091.74353,4385.89841 1091.74121,4386.2342 1091.74121,4386.61614 L1091.74121,4400.73636 C1091.74121,4403.82418 1088.54483,4403.90957 1088.54483,4403.90957 Z M1050.19638,4379.73084 C1049.39438,4379.73084 1048.74348,4380.37702 1048.74348,4381.17321 L1048.74348,4399.61592 C1048.74348,4400.41096 1049.39438,4401.05829 1050.19638,4401.05829 L1087.39064,4401.05829 C1088.19148,4401.05829 1088.84354,4400.41096 1088.84354,4399.61592 L1088.84354,4381.17321 C1088.84354,4380.37702 1088.19148,4379.73084 1087.39064,4379.73084 L1050.19638,4379.73084 Z M1087.39064,4402.78914 L1050.19638,4402.78914 C1048.43314,4402.78914 1047,4401.36523 1047,4399.61592 L1047,4381.17321 C1047,4379.42275 1048.43314,4378 1050.19638,4378 L1087.39064,4378 C1089.15272,4378 1090.58702,4379.42275 1090.58702,4381.17321 L1090.58702,4399.61592 C1090.58702,4401.36523 1089.15272,4402.78914 1087.39064,4402.78914 Z M1054.5863,4392.00949 C1054.5863,4392.37681 1054.5366,4392.68451 1054.43721,4392.93261 C1054.33781,4393.18071 1054.20752,4393.38047 1054.04634,4393.53191 C1053.88516,4393.68335 1053.70383,4393.7929 1053.50235,4393.86056 C1053.30087,4393.92822 1053.09805,4393.96206 1052.89389,4393.96206 L1051,4393.96206 L1051,4387.11842 L1052.70853,4387.11842 C1052.88583,4387.11842 1053.07387,4387.14097 1053.27267,4387.18608 C1053.47146,4387.23119 1053.65279,4387.31658 1053.81666,4387.44224 C1053.98052,4387.5679 1054.11753,4387.74672 1054.22767,4387.97871 C1054.33781,4388.2107 1054.39288,4388.51034 1054.39288,4388.87766 C1054.39288,4389.28364 1054.32438,4389.60745 1054.18737,4389.84911 C1054.05037,4390.09076 1053.88247,4390.26636 1053.68368,4390.37591 L1053.68368,4390.39525 C1053.79114,4390.42747 1053.89859,4390.48546 1054.00604,4390.56924 C1054.1135,4390.65301 1054.21021,4390.76095 1054.29617,4390.89305 C1054.38214,4391.02516 1054.45198,4391.18465 1054.50571,4391.37153 C1054.55944,4391.55841 1054.5863,4391.77106 1054.5863,4392.00949 Z M1053.25655,4389.12898 C1053.25655,4388.86477 1053.19476,4388.67789 1053.07119,4388.56834 C1052.94762,4388.45879 1052.80255,4388.40402 1052.636,4388.40402 L1052.20081,4388.40402 L1052.20081,4389.88294 L1052.64406,4389.88294 C1052.79987,4389.88294 1052.9409,4389.82494 1053.06716,4389.70895 C1053.19342,4389.59295 1053.25655,4389.39963 1053.25655,4389.12898 Z M1053.36132,4391.8645 C1053.36132,4391.70984 1053.34117,4391.57935 1053.30087,4391.47302 C1053.26058,4391.36669 1053.20685,4391.2797 1053.13969,4391.21204 C1053.07253,4391.14437 1052.99731,4391.09443 1052.91404,4391.06221 C1052.83076,4391.02999 1052.74883,4391.01388 1052.66823,4391.01388 L1052.20081,4391.01388 L1052.20081,4392.67646 L1052.68435,4392.67646 C1052.8724,4392.67646 1053.03224,4392.60879 1053.16387,4392.47347 C1053.2955,4392.33814 1053.36132,4392.13515 1053.36132,4391.8645 Z M1059.53459,4390.52091 C1059.53459,4391.06221 1059.48355,4391.55679 1059.38146,4392.00466 C1059.27938,4392.45253 1059.13432,4392.83434 1058.94627,4393.1501 C1058.75823,4393.46586 1058.52854,4393.71073 1058.25722,4393.88473 C1057.9859,4394.05872 1057.681,4394.14571 1057.34251,4394.14571 C1057.00403,4394.14571 1056.69913,4394.05872 1056.4278,4393.88473 C1056.15648,4393.71073 1055.9268,4393.46586 1055.73875,4393.1501 C1055.5507,4392.83434 1055.40564,4392.45253 1055.30356,4392.00466 C1055.20148,4391.55679 1055.15044,4391.06221 1055.15044,4390.52091 C1055.15044,4389.9796 1055.20013,4389.48824 1055.29953,4389.04682 C1055.39893,4388.60539 1055.54265,4388.22842 1055.73069,4387.91588 C1055.91874,4387.60334 1056.14842,4387.36169 1056.41974,4387.19092 C1056.69107,4387.02015 1056.99866,4386.93476 1057.34251,4386.93476 C1057.681,4386.93476 1057.9859,4387.02015 1058.25722,4387.19092 C1058.52854,4387.36169 1058.75823,4387.60334 1058.94627,4387.91588 C1059.13432,4388.22842 1059.27938,4388.60539 1059.38146,4389.04682 C1059.48355,4389.48824 1059.53459,4389.9796 1059.53459,4390.52091 Z M1058.21289,4390.52091 C1058.21289,4390.22448 1058.19409,4389.94899 1058.15648,4389.69445 C1058.11887,4389.43991 1058.0638,4389.2192 1057.99127,4389.03232 C1057.91874,4388.84544 1057.82874,4388.69884 1057.72129,4388.59251 C1057.61383,4388.48618 1057.48758,4388.43302 1057.34251,4388.43302 C1057.19745,4388.43302 1057.06985,4388.48618 1056.9597,4388.59251 C1056.84956,4388.69884 1056.75823,4388.84544 1056.6857,4389.03232 C1056.61316,4389.2192 1056.55944,4389.43991 1056.52451,4389.69445 C1056.48959,4389.94899 1056.47213,4390.22448 1056.47213,4390.52091 C1056.47213,4390.81734 1056.48959,4391.09443 1056.52451,4391.35219 C1056.55944,4391.60996 1056.61316,4391.83228 1056.6857,4392.01916 C1056.75823,4392.20604 1056.84956,4392.35425 1056.9597,4392.4638 C1057.06985,4392.57335 1057.19745,4392.62813 1057.34251,4392.62813 C1057.48758,4392.62813 1057.61383,4392.57335 1057.72129,4392.4638 C1057.82874,4392.35425 1057.91874,4392.20604 1057.99127,4392.01916 C1058.0638,4391.83228 1058.11887,4391.60996 1058.15648,4391.35219 C1058.19409,4391.09443 1058.21289,4390.81734 1058.21289,4390.52091 Z M1064.46676,4390.52091 C1064.46676,4391.06221 1064.41572,4391.55679 1064.31363,4392.00466 C1064.21155,4392.45253 1064.06649,4392.83434 1063.87844,4393.1501 C1063.6904,4393.46586 1063.46071,4393.71073 1063.18939,4393.88473 C1062.91806,4394.05872 1062.61316,4394.14571 1062.27468,4394.14571 C1061.9362,4394.14571 1061.6313,4394.05872 1061.35997,4393.88473 C1061.08865,4393.71073 1060.85897,4393.46586 1060.67092,4393.1501 C1060.48287,4392.83434 1060.33781,4392.45253 1060.23573,4392.00466 C1060.13365,4391.55679 1060.08261,4391.06221 1060.08261,4390.52091 C1060.08261,4389.9796 1060.1323,4389.48824 1060.2317,4389.04682 C1060.3311,4388.60539 1060.47481,4388.22842 1060.66286,4387.91588 C1060.85091,4387.60334 1061.08059,4387.36169 1061.35191,4387.19092 C1061.62324,4387.02015 1061.93082,4386.93476 1062.27468,4386.93476 C1062.61316,4386.93476 1062.91806,4387.02015 1063.18939,4387.19092 C1063.46071,4387.36169 1063.6904,4387.60334 1063.87844,4387.91588 C1064.06649,4388.22842 1064.21155,4388.60539 1064.31363,4389.04682 C1064.41572,4389.48824 1064.46676,4389.9796 1064.46676,4390.52091 Z M1063.14506,4390.52091 C1063.14506,4390.22448 1063.12626,4389.94899 1063.08865,4389.69445 C1063.05104,4389.43991 1062.99597,4389.2192 1062.92344,4389.03232 C1062.85091,4388.84544 1062.76091,4388.69884 1062.65346,4388.59251 C1062.546,4388.48618 1062.41975,4388.43302 1062.27468,4388.43302 C1062.12962,4388.43302 1062.00202,4388.48618 1061.89187,4388.59251 C1061.78173,4388.69884 1061.6904,4388.84544 1061.61786,4389.03232 C1061.54533,4389.2192 1061.49161,4389.43991 1061.45668,4389.69445 C1061.42176,4389.94899 1061.4043,4390.22448 1061.4043,4390.52091 C1061.4043,4390.81734 1061.42176,4391.09443 1061.45668,4391.35219 C1061.49161,4391.60996 1061.54533,4391.83228 1061.61786,4392.01916 C1061.6904,4392.20604 1061.78173,4392.35425 1061.89187,4392.4638 C1062.00202,4392.57335 1062.12962,4392.62813 1062.27468,4392.62813 C1062.41975,4392.62813 1062.546,4392.57335 1062.65346,4392.4638 C1062.76091,4392.35425 1062.85091,4392.20604 1062.92344,4392.01916 C1062.99597,4391.83228 1063.05104,4391.60996 1063.08865,4391.35219 C1063.12626,4391.09443 1063.14506,4390.81734 1063.14506,4390.52091 Z M1067.78711,4393.96206 L1066.57018,4390.78189 L1066.546,4390.78189 L1066.546,4393.96206 L1065.24849,4393.96206 L1065.24849,4387.11842 L1066.546,4387.11842 L1066.546,4389.96993 L1066.57018,4389.96993 L1067.74681,4387.11842 L1069.18939,4387.11842 L1067.72263,4390.25025 L1069.27804,4393.96206 L1067.78711,4393.96206 Z M1073.80725,4393.96206 L1072.48556,4389.79594 L1072.46138,4389.79594 L1072.49362,4393.96206 L1071.34117,4393.96206 L1071.34117,4387.11842 L1072.75957,4387.11842 L1074.0732,4391.34253 L1074.09738,4391.34253 L1074.0732,4387.11842 L1075.18536,4387.11842 L1075.18536,4393.96206 L1073.80725,4393.96206 Z M1080.35124,4390.52091 C1080.35124,4391.06221 1080.3002,4391.55679 1080.19812,4392.00466 C1080.09604,4392.45253 1079.95097,4392.83434 1079.76293,4393.1501 C1079.57488,4393.46586 1079.3452,4393.71073 1079.07388,4393.88473 C1078.80255,4394.05872 1078.49765,4394.14571 1078.15917,4394.14571 C1077.82068,4394.14571 1077.51578,4394.05872 1077.24446,4393.88473 C1076.97313,4393.71073 1076.74345,4393.46586 1076.55541,4393.1501 C1076.36736,4392.83434 1076.2223,4392.45253 1076.12021,4392.00466 C1076.01813,4391.55679 1075.96709,4391.06221 1075.96709,4390.52091 C1075.96709,4389.9796 1076.01679,4389.48824 1076.11619,4389.04682 C1076.21558,4388.60539 1076.3593,4388.22842 1076.54735,4387.91588 C1076.73539,4387.60334 1076.96508,4387.36169 1077.2364,4387.19092 C1077.50772,4387.02015 1077.81531,4386.93476 1078.15917,4386.93476 C1078.49765,4386.93476 1078.80255,4387.02015 1079.07388,4387.19092 C1079.3452,4387.36169 1079.57488,4387.60334 1079.76293,4387.91588 C1079.95097,4388.22842 1080.09604,4388.60539 1080.19812,4389.04682 C1080.3002,4389.48824 1080.35124,4389.9796 1080.35124,4390.52091 Z M1079.02955,4390.52091 C1079.02955,4390.22448 1079.01075,4389.94899 1078.97314,4389.69445 C1078.93553,4389.43991 1078.88046,4389.2192 1078.80792,4389.03232 C1078.73539,4388.84544 1078.6454,4388.69884 1078.53794,4388.59251 C1078.43049,4388.48618 1078.30423,4388.43302 1078.15917,4388.43302 C1078.0141,4388.43302 1077.8865,4388.48618 1077.77636,4388.59251 C1077.66622,4388.69884 1077.57488,4388.84544 1077.50235,4389.03232 C1077.42982,4389.2192 1077.37609,4389.43991 1077.34117,4389.69445 C1077.30625,4389.94899 1077.28878,4390.22448 1077.28878,4390.52091 C1077.28878,4390.81734 1077.30625,4391.09443 1077.34117,4391.35219 C1077.37609,4391.60996 1077.42982,4391.83228 1077.50235,4392.01916 C1077.57488,4392.20604 1077.66622,4392.35425 1077.77636,4392.4638 C1077.8865,4392.57335 1078.0141,4392.62813 1078.15917,4392.62813 C1078.30423,4392.62813 1078.43049,4392.57335 1078.53794,4392.4638 C1078.6454,4392.35425 1078.73539,4392.20604 1078.80792,4392.01916 C1078.88046,4391.83228 1078.93553,4391.60996 1078.97314,4391.35219 C1079.01075,4391.09443 1079.02955,4390.81734 1079.02955,4390.52091 Z M1085.92008,4393.96206 L1084.55003,4393.96206 L1083.84889,4389.37063 L1083.83277,4389.37063 L1083.13969,4393.96206 L1081.76964,4393.96206 L1080.69778,4387.11842 L1082.01142,4387.11842 L1082.59973,4391.88383 L1082.63197,4391.88383 L1083.25252,4387.11842 L1084.50168,4387.11842 L1085.14641,4391.88383 L1085.17058,4391.88383 L1085.75084,4387.11842 L1087,4387.11842 L1085.92008,4393.96206 Z" id="icon-book-now"></path>
        </g>
    </g>
</svg>