<svg xmlns="http://www.w3.org/2000/svg" xmlns:xlink="http://www.w3.org/1999/xlink" width="48" height="39" viewBox="0 0 48 39"><defs><path id="tvcpa" d="M718.85 1076.34c.26.13.38.36.34.63l-2.21 13.94c-.05.29-.27.56-.58.73l-32.26 17.15c-.48.26-1.03.18-1.21-.16l-10.59-19.92c-.2-.36.04-.85.53-1.1l32.26-17.16c.33-.18.7-.2 1-.03zm-1.56 1.23L705.3 1072l-31.44 16.72 9.92 18.65 31.44-16.72zM686.05 1099c-1.07.56-2.5.82-3.84.5l.46-2.2c.86.15 1.79.09 2.41-.24.68-.36.85-.73.65-1.11-.22-.4-.71-.3-1.58-.2l-1.29.11c-1.1.12-2.3-.22-2.94-1.43-.76-1.44-.09-3.3 1.75-4.29a4.6 4.6 0 0 1 3.4-.36l-.37 1.99a3.16 3.16 0 0 0-2 .29c-.55.29-.79.66-.59 1.04.21.4.77.28 1.7.17l1.23-.14c1.27-.15 2.26.26 2.88 1.42.75 1.43.23 3.33-1.87 4.45zm4.3-13.27l7.04 7.04-2.37 1.25-1.37-1.56-2.35 1.26.53 2-2.29 1.22-1.9-9.77zm1.98 5.22l-.45-.5c-.63-.7-1.38-1.6-2.03-2.33l-.06.03c.28.95.6 2.06.82 2.97l.17.65zm6.97-1.59l3.2-1.7.99 1.86-5.43 2.9-4.47-8.41 2.23-1.2zm10.22-5.43l1 1.86-5.58 2.96-4.47-8.4 5.44-2.9 1 1.86-3.22 1.72.7 1.31 2.75-1.46.99 1.86-2.75 1.47.8 1.5zm4.53-3.48c-.68.36-1.52.1-1.87-.56a1.38 1.38 0 1 1 2.45-1.3c.35.67.09 1.5-.58 1.86z"/></defs><g><g transform="translate(-672 -1070)"><use fill="#838383" xlink:href="#tvcpa"/></g></g></svg>