<?xml version="1.0" encoding="UTF-8"?>
<svg width="22px" height="18px" viewBox="0 0 22 18" version="1.1" xmlns="http://www.w3.org/2000/svg" xmlns:xlink="http://www.w3.org/1999/xlink">
    <!-- Generator: Sketch 50.2 (55047) - http://www.bohemiancoding.com/sketch -->
    <title>icon-photography</title>
    <desc>Created with Sketch.</desc>
    <defs></defs>
    <g id="Page-1" stroke="none" stroke-width="1" fill="none" fill-rule="evenodd">
        <g id="TT-Website-Style-Guide" transform="translate(-458.000000, -11028.000000)" fill="#333333">
            <path d="M467.688965,11030.8285 L470.310849,11030.8285 L470.310849,11030.1937 L467.688965,11030.1937 L467.688965,11030.8285 Z M459.961992,11030.8285 C459.230433,11030.8285 458.635693,11031.4242 458.635693,11032.1557 L458.635693,11043.0602 C458.635693,11043.7918 459.230433,11044.3865 459.961992,11044.3865 L478.037822,11044.3865 C478.76938,11044.3865 479.365052,11043.7918 479.365052,11043.0602 L479.365052,11032.1557 C479.365052,11031.4242 478.76938,11030.8285 478.037822,11030.8285 L471.719053,11030.8322 L471.744183,11030.4916 C471.745114,11030.4534 471.747906,11030.0039 471.747906,11030.0029 C471.744183,11029.6818 470.824615,11028.6357 470.460698,11028.6357 L467.539116,11028.6357 C467.175198,11028.6357 466.255631,11029.6818 466.251908,11030.0057 L466.263077,11030.8304 L465.93825,11030.8322 L459.961992,11030.8285 Z M478.037822,11045.0222 L459.961992,11045.0222 C458.880477,11045.0222 458,11044.1418 458,11043.0602 L458,11032.1557 C458,11031.0742 458.880477,11030.1937 459.961992,11030.1937 L465.618077,11030.1975 C465.618077,11030.0942 465.617146,11030.0076 465.617146,11030.0076 C465.617146,11029.4082 466.754506,11028 467.539116,11028 L470.460698,11028 C471.245308,11028 472.382668,11029.4082 472.382668,11030.0057 C472.382668,11030.0057 472.381737,11030.0932 472.380807,11030.1975 L478.037822,11030.1937 C479.119337,11030.1937 479.999814,11031.0742 479.999814,11032.1557 L479.999814,11043.0602 C479.999814,11044.1418 479.119337,11045.0222 478.037822,11045.0222 Z M474.985937,11033.3126 L477.328601,11033.3126 L477.328601,11032.6769 L474.985937,11032.6769 L474.985937,11033.3126 Z M468.999442,11033.6375 C466.715415,11033.6375 464.856734,11035.4962 464.856734,11037.7802 C464.856734,11040.0651 466.715415,11041.9238 468.999442,11041.9238 C471.284399,11041.9238 473.14401,11040.0651 473.14401,11037.7802 C473.14401,11035.4962 471.284399,11033.6375 468.999442,11033.6375 Z M468.999442,11042.5595 C466.364527,11042.5595 464.221972,11040.416 464.221972,11037.7802 C464.221972,11035.1453 466.364527,11033.0018 468.999442,11033.0018 C471.635287,11033.0018 473.778772,11035.1453 473.778772,11037.7802 C473.778772,11040.416 471.635287,11042.5595 468.999442,11042.5595 Z M468.999442,11035.6218 C467.80903,11035.6218 466.841064,11036.5907 466.841064,11037.7802 C466.841064,11038.9715 467.80903,11039.9395 468.999442,11039.9395 C470.190784,11039.9395 471.15875,11038.9715 471.15875,11037.7802 C471.15875,11036.5907 470.190784,11035.6218 468.999442,11035.6218 Z M468.999442,11040.5752 C467.459073,11040.5752 466.205371,11039.3215 466.205371,11037.7802 C466.205371,11036.2398 467.459073,11034.987 468.999442,11034.987 C470.540741,11034.987 471.794443,11036.2398 471.794443,11037.7802 C471.794443,11039.3215 470.540741,11040.5752 468.999442,11040.5752 Z M460.838746,11033.6189 L462.657404,11033.6189 L462.657404,11032.7337 L460.838746,11032.7337 L460.838746,11033.6189 Z M460.203984,11034.2536 L463.293097,11034.2536 L463.293097,11032.098 L460.203984,11032.098 L460.203984,11034.2536 Z" id="icon-photography"></path>
        </g>
    </g>
</svg>