<?xml version="1.0" encoding="UTF-8"?>
<svg width="19px" height="20px" viewBox="0 0 19 20" version="1.1" xmlns="http://www.w3.org/2000/svg" xmlns:xlink="http://www.w3.org/1999/xlink">
    <title>icon-search</title>
    <defs></defs>
    <g id="Page-1" stroke="none" stroke-width="1" fill="none" fill-rule="evenodd">
        <g id="TT-Website-Style-Guide" transform="translate(-101.000000, -11190.000000)" fill="#4A4A4A">
            <path d="M109.252495,11205.3405 C105.347374,11205.3405 102.167724,11202.1631 102.166634,11198.2569 C102.167724,11194.3474 105.347374,11191.1666 109.253584,11191.1655 C113.159795,11191.1655 116.339445,11194.3452 116.341624,11198.2547 C116.341624,11202.162 113.161973,11205.3405 109.252495,11205.3405 Z M115.326401,11203.833 L115.491974,11203.6412 C116.791502,11202.1391 117.508258,11200.2252 117.508258,11198.2536 C117.50608,11193.7025 113.803568,11190 109.253584,11190 C104.704691,11190 101.002179,11193.7047 101,11198.2569 C101.002179,11202.8057 104.703601,11206.5061 109.252495,11206.5061 C111.083599,11206.5061 112.824292,11205.9091 114.287214,11204.7785 L114.476752,11204.6325 L118.999502,11209.1542 C119.21954,11209.3753 119.604061,11209.3753 119.824098,11209.1542 C119.934117,11209.0441 119.995118,11208.8982 119.995118,11208.7424 C119.995118,11208.5866 119.934117,11208.4407 119.824098,11208.3306 L115.326401,11203.833 Z" id="icon-search"></path>
        </g>
    </g>
</svg>
