<?xml version="1.0" encoding="UTF-8"?>
<svg width="43px" height="40px" viewBox="0 0 43 40" version="1.1" xmlns="http://www.w3.org/2000/svg" xmlns:xlink="http://www.w3.org/1999/xlink">
    <title>icon-integrations</title>
    <defs>
        <path d="M40.4067733,11.444114 C40.1033346,12.5585974 39.4103462,13.4714518 38.4535575,14.0252409 C38.4139191,14.0473373 38.3715471,14.0666715 38.3278082,14.0818628 C37.7974739,14.373258 37.1646265,14.5569337 36.5427139,14.5873162 C35.8374239,14.6232227 35.1813402,14.4851207 34.5689955,14.1964874 C34.3174968,14.0666715 34.0605307,14.0487183 33.8185998,14.1329605 C33.5684679,14.2199648 33.3607081,14.4119266 33.249994,14.6563672 C33.0887067,15.0099084 33.1064757,15.3565445 33.2978334,15.6341295 L36.4060298,21.0905406 C36.4484018,21.1361143 36.4866734,21.18445 36.5099097,21.2258806 C37.2151996,22.5198966 37.3983563,24.0238277 37.0279424,25.4614698 C36.6165233,26.9488286 35.6952725,28.1696506 34.4336782,28.9112584 L19.7182684,37.4708221 C18.8216207,37.9693704 17.8484299,38.216573 16.8875407,38.216573 C16.4159806,38.216573 15.9471542,38.1558081 15.4919961,38.0370404 C14.0431447,37.6268774 12.8403246,36.7043558 12.0926626,35.4338172 C12.0748937,35.4034347 12.0598585,35.3716713 12.04619,35.3385268 L11.6183688,34.5734415 C11.5117552,34.3828608 11.5008205,34.1522304 11.5896652,33.9519824 C11.677143,33.7517345 11.8548323,33.6067274 12.0666927,33.5597727 C12.7145753,33.4147655 13.3815937,33.1482286 14.1634267,32.7187313 C15.3990509,32.0006008 16.4569858,30.4966697 16.9080434,28.8007768 C17.3522667,27.1283613 17.177311,25.4849471 16.4159806,24.1715969 C15.3416436,22.2906473 13.4485689,21.5973751 12.4138703,21.3474104 C10.8994105,21.0007743 9.22092976,21.1885931 8.01537603,21.8335295 C7.96890344,21.8763412 7.91696348,21.9191528 7.88825982,21.9371061 C7.1802362,22.3583172 6.62529877,22.7988627 6.1892765,23.2822198 C6.04302451,23.4451802 5.82296312,23.5252794 5.61110277,23.5045641 C5.39377506,23.4810867 5.20105048,23.3554139 5.0917032,23.1634521 L2.75577199,19.071489 C1.99854209,17.6642293 1.82085277,16.1796326 2.19673403,14.7917072 C2.57534898,13.3236826 3.49796663,12.0973366 4.79373187,11.3488236 L6.50911728,10.3558701 C6.70047502,10.2467695 6.92873746,10.2384833 7.12966308,10.3282497 C7.32785502,10.419397 7.47137332,10.6030727 7.51511224,10.8185119 C7.65316317,11.5048789 7.90466191,12.1608636 8.24227163,12.7118907 C9.07331094,14.1826772 10.4278503,15.2294906 11.9942501,15.6520828 C13.5838861,16.0829611 15.2514321,15.8606169 16.6866151,15.0181945 C18.1395671,14.1481517 19.1510294,12.8071811 19.5802175,11.2107216 C20.0066718,9.601833 19.7838768,7.91836929 18.9542043,6.47106005 C18.5851572,5.83993379 18.1682707,5.33586139 17.6611727,4.87045756 C17.4985187,4.72130737 17.4165082,4.50310616 17.4411113,4.28352394 C17.4643476,4.06394172 17.5914638,3.86783684 17.7814547,3.75873624 L19.4818049,2.77821184 C19.5105086,2.7616396 19.5405791,2.74644838 19.5720164,2.7340192 C20.873249,2.00345947 22.3207336,1.83083194 23.7244793,2.21613659 C25.1569286,2.61110839 26.365216,3.53777299 27.1292801,4.82626491 C27.1620843,4.88150572 27.1866874,4.94227061 27.2030895,5.0030355 L30.3208538,10.4276831 C30.4548042,10.6610756 30.6734987,10.828179 30.9359322,10.89723 C31.1969988,10.966281 31.4594323,10.9289935 31.6822274,10.7964155 C31.969264,10.6279311 32.1565212,10.3282497 32.1865917,9.99818582 C32.243999,9.33943915 32.4613267,8.66273922 32.7962028,8.09513989 C32.8276401,8.04542316 32.8618111,7.99846847 32.9028164,7.95841888 C33.2882655,7.42948812 33.7488909,6.99446673 34.2409537,6.69616635 C35.2401144,6.1340911 36.3636577,5.98494091 37.4256931,6.26805007 C38.517799,6.56773147 39.4499846,7.28586201 39.9898868,8.24152804 C40.5366232,9.23171957 40.684242,10.3669182 40.4067733,11.444114 M37.9628616,4.31114435 C36.3663914,3.878885 34.6947449,4.10122926 33.2554613,4.93398449 C32.5775082,5.33862343 31.9542287,5.88550745 31.4607991,6.5083476 C31.3200145,6.68649921 31.1040536,6.78178961 30.8744244,6.76521737 C30.6488956,6.74864512 30.4466031,6.61882922 30.3345222,6.42134332 L28.9130076,3.92583969 C28.8884044,3.89545724 28.866535,3.86231276 28.8460324,3.82778725 C27.8619069,2.07112947 26.2271651,0.807495917 24.2438788,0.267516991 C22.3221004,-0.261413773 20.2964421,-0.000400941558 18.5386846,1.00083876 L14.2577387,3.50324749 C13.8968927,3.67173196 13.6946002,3.92860173 13.6248914,4.25866557 C13.5702177,4.52244045 13.6207908,4.79312042 13.7684097,5.01822672 C13.9173953,5.24333303 14.1429241,5.39662628 14.4053576,5.44772403 C15.0587075,5.59687422 15.5480366,5.80540828 15.9676568,6.11061376 C15.9799583,6.1202809 16.0633356,6.18933191 16.0756372,6.19899906 C16.5184937,6.50282352 16.8984755,6.91160552 17.1882458,7.41153485 C17.7828216,8.43487088 17.9318072,9.57283158 17.642037,10.6831719 C17.3768698,11.7286042 16.7125851,12.6359345 15.820038,13.1717704 C15.7530627,13.2283922 15.6341476,13.3084914 15.4851619,13.3720183 C14.5912479,13.8457083 13.5141772,13.9672381 12.5013481,13.692415 C11.4939863,13.4024008 10.6069065,12.7464162 10.0574364,11.8874216 C10.0342001,11.850134 10.009597,11.7990363 9.99319491,11.7576056 C9.9795265,11.7382714 9.92211918,11.6084555 9.91118445,11.5877402 C9.64738414,11.097478 9.48336323,10.5671662 9.42458907,10.011996 C9.37264911,9.48858934 9.43142327,8.92375205 9.59544419,8.36581986 C9.59954471,8.31886517 9.61047944,8.2732915 9.62551469,8.22633681 C9.71572619,7.96118092 9.68702253,7.6394032 9.55170528,7.38667649 C9.43142327,7.17676141 9.20726135,7.00827693 8.94619473,6.93922592 C8.6851281,6.86879389 8.41996096,6.90331939 8.19853272,7.03589734 L3.87931526,9.53416301 C2.04638153,10.6113588 0.797088883,12.2644401 0.26948827,14.2572523 C-0.252644979,16.1851566 -0.0107141281,18.2069703 0.948808231,19.953961 L5.04249693,27.1228372 C5.11357266,27.2360808 5.35413667,27.5578586 5.75872159,27.6034322 C6.339629,27.6931986 6.83169175,27.2954647 6.91233537,26.7168172 C6.9902453,26.1381697 7.10095942,25.5319018 7.38526234,25.0540688 C7.66819842,24.5638066 8.15206013,24.1177371 8.86145059,23.6992879 C8.88332004,23.6854777 9.01453678,23.6260939 9.03777307,23.6150457 C9.73076144,23.1924535 10.8584052,23.0736858 11.9819485,23.3319365 C13.1410297,23.5722341 14.1142204,24.2254567 14.6472884,25.1258819 C14.6636905,25.1465972 14.6773589,25.1686935 14.6896605,25.1907898 C15.166688,26.0442604 15.2664674,27.1394094 14.9712297,28.2732271 C14.641821,29.4733337 13.9666016,30.4773354 13.1628991,30.9648356 C11.5062879,31.8873571 10.7750279,31.745112 9.51206689,31.2299915 C9.37538279,31.1678456 9.23186449,31.1374631 9.09244671,31.1374631 C8.91475739,31.1374631 8.74253542,31.1857988 8.58808239,31.2783272 C8.33931734,31.4164292 8.1780301,31.6222012 8.10695437,31.8749279 C8.03177812,32.1414649 8.06731599,32.423193 8.20536692,32.6676336 L10.3608751,36.441962 C11.3600359,38.1834285 13.000245,39.440157 14.9807976,39.982898 C16.8916413,40.5035426 18.8954301,40.259102 20.6121824,39.2841017 L35.3166575,30.7065848 C35.3344264,30.6955366 35.4287385,30.6568681 35.4465074,30.6472009 C35.4752111,30.6237236 35.5380857,30.5753879 35.5695231,30.5560536 C37.2466369,29.5327176 38.4480902,27.9127808 38.9524545,25.9945436 C39.4650198,24.0859736 39.2271895,22.0752081 38.2813356,20.3295985 C38.2334961,20.2218789 38.1965914,20.161114 38.1624204,20.1003491 L36.7094684,17.573082 C36.5946538,17.3728341 36.5864528,17.1283935 36.6862322,16.9212404 C36.7873784,16.7140874 36.9842035,16.5718423 37.2097322,16.5414599 C37.9122885,16.4475505 38.6312468,16.2183011 39.2955316,15.8771891 L39.3392705,15.8385205 C39.3748083,15.8067571 39.4130799,15.7777557 39.4540851,15.7542783 C40.890635,14.9270472 41.9171325,13.5860765 42.3435869,11.9744258 C42.7618403,10.353108 42.540412,8.6682633 41.7162069,7.23476426 C40.8742329,5.77640685 39.5415629,4.73787961 37.9628616,4.31114435" id="path-1"></path>
    </defs>
    <g id="Page-1" stroke="none" stroke-width="1" fill="none" fill-rule="evenodd">
        <g id="TT-Website-Style-Guide" transform="translate(-96.000000, -10129.000000)">
            <g id="icon-integrations" transform="translate(96.000000, 10129.000000)">
                <mask id="mask-2" fill="white">
                    <use xlink:href="#path-1"></use>
                </mask>
                <use fill="#fff" fill-rule="evenodd" xlink:href="#path-1"></use>
                <g id="Mixin/Fill/gray" mask="url(#mask-2)" fill-rule="evenodd">
                    <rect id="Rectangle" x="0" y="0" width="54" height="51"></rect>
                </g>
            </g>
        </g>
    </g>
</svg>
