<?xml version="1.0" encoding="UTF-8"?>
<svg width="34px" height="30px" viewBox="0 0 34 30" version="1.1" xmlns="http://www.w3.org/2000/svg" xmlns:xlink="http://www.w3.org/1999/xlink">
    <!-- Generator: Sketch 50.2 (55047) - http://www.bohemiancoding.com/sketch -->
    <title>icon-blog</title>
    <desc>Created with Sketch.</desc>
    <defs>
        <path d="M7.99531168,24.2890149 L25.9868604,24.2890149 C26.2217698,24.2890149 26.4000494,24.1073304 26.4000494,23.8657845 C26.4000494,23.6756984 26.2343543,23.4719597 25.9868604,23.4719597 L7.99531168,23.4719597 C7.78452238,23.4719597 7.59156103,23.6588952 7.59156103,23.8657845 C7.59156103,24.0989288 7.77298664,24.2890149 7.99531168,24.2890149 Z M7.99531168,20.7351397 L16.1563184,20.7351397 C16.3786435,20.7351397 16.5600691,20.557656 16.5600691,20.3402647 C16.5600691,20.1113212 16.3786435,19.926486 16.1563184,19.926486 L7.99531168,19.926486 C7.77298664,19.926486 7.59156103,20.1113212 7.59156103,20.3402647 C7.59156103,20.557656 7.77298664,20.7351397 7.99531168,20.7351397 Z M26.3276888,4.10417979 C25.8064835,4.10417979 25.3828074,4.52530981 25.3828074,5.04200798 C25.3828074,5.57445915 25.8064835,6.00714136 26.3276888,6.00714136 C26.8488942,6.00714136 27.2725702,5.57445915 27.2725702,5.04200798 C27.2725702,4.52530981 26.8488942,4.10417979 26.3276888,4.10417979 Z M29.6111779,4.10417979 C29.084729,4.10417979 28.6579069,4.52530981 28.6579069,5.04200798 C28.6579069,5.57445915 29.084729,6.00714136 29.6111779,6.00714136 C30.1271398,6.00714136 30.5455723,5.57445915 30.5455723,5.04200798 C30.5455723,4.52530981 30.1271398,4.10417979 29.6111779,4.10417979 Z M23.0441997,4.10417979 C22.5376762,4.10417979 22.1098054,4.53371141 22.1098054,5.04200798 C22.1098054,5.56500735 22.5376762,6.00714136 23.0441997,6.00714136 C23.5612103,6.00714136 23.9985195,5.56500735 23.9985195,5.04200798 C23.9985195,4.52530981 23.5706487,4.10417979 23.0441997,4.10417979 Z M7.99531168,17.21067 L16.1563184,17.21067 C16.3828383,17.21067 16.5600691,17.0289855 16.5600691,16.7958412 C16.5600691,16.5710985 16.3859844,16.4009662 16.1563184,16.4009662 L7.99531168,16.4009662 C7.77298664,16.4009662 7.59156103,16.5784499 7.59156103,16.7958412 C7.59156103,17.0163831 7.78032757,17.21067 7.99531168,17.21067 Z M1.89081151,8.20940979 L32.1112859,8.20940979 L32.1112859,1.88300777 L1.89081151,1.88300777 L1.89081151,8.20940979 Z M1.89081151,28.1085906 L32.1112859,28.1085906 L32.1112859,9.03801722 L1.89081151,9.03801722 L1.89081151,28.1085906 Z M34,0.974585171 L34,29.0537702 C34,29.5757194 33.5721292,30 33.0278523,30 L0.93649178,30 C0.428919527,30 0,29.5662676 0,29.026465 L0,0.936777988 C0,0.428481411 0.428919527,0 0.974245088,0 L33.0456803,0 C33.5721292,0 34,0.420079815 34,0.974585171 Z M19.3307424,19.926486 L25.582061,19.926486 L25.582061,13.6662466 L19.3307424,13.6662466 L19.3307424,19.926486 Z M18.5138028,20.3224113 L18.5138028,13.2713716 C18.5138028,13.0476791 18.7025693,12.8575929 18.9458684,12.8575929 L25.9868604,12.8575929 C26.2217698,12.8575929 26.4000494,13.0350767 26.4000494,13.289225 L26.4000494,20.3402647 C26.4000494,20.5660576 26.2217698,20.7351397 25.966935,20.7351397 L18.9269918,20.7351397 C18.7025693,20.7351397 18.5138028,20.5545054 18.5138028,20.3224113 Z M7.59156103,13.2713716 C7.59156103,13.0434783 7.77298664,12.8575929 7.99531168,12.8575929 L16.1563184,12.8575929 C16.3786435,12.8575929 16.5600691,13.0434783 16.5600691,13.2713716 C16.5600691,13.4887629 16.3786435,13.6662466 16.1563184,13.6662466 L7.99531168,13.6662466 C7.77298664,13.6662466 7.59156103,13.4887629 7.59156103,13.2713716 Z" id="path-1"></path>
    </defs>
    <g id="Page-1" stroke="none" stroke-width="1" fill="none" fill-rule="evenodd">
        <g id="TT-Website-Style-Guide" transform="translate(-993.000000, -9707.000000)">
            <g id="icon-blog" transform="translate(993.000000, 9707.000000)">
                <mask id="mask-2" fill="white">
                    <use xlink:href="#path-1"></use>
                </mask>
                <use fill="#4A4A4A" fill-rule="evenodd" xlink:href="#path-1"></use>
                <g id="Mixin/Fill/gray" mask="url(#mask-2)" fill="#838383" fill-rule="evenodd">
                    <rect id="Rectangle" x="0" y="0" width="47" height="44"></rect>
                </g>
            </g>
        </g>
    </g>
</svg>