<?xml version="1.0" encoding="UTF-8"?>
<svg width="37px" height="37px" viewBox="0 0 37 37" version="1.1" xmlns="http://www.w3.org/2000/svg" xmlns:xlink="http://www.w3.org/1999/xlink">
    <!-- Generator: Sketch 50.2 (55047) - http://www.bohemiancoding.com/sketch -->
    <title>icon-ad-services</title>
    <desc>Created with Sketch.</desc>
    <defs>
        <path d="M26.9901995,34 L20,26.9987747 L27,20 L28.6942597,21.693331 L27.2903395,23.0852442 C27.0980049,23.2788377 27.09923,23.5888325 27.2952398,23.791003 C27.3858943,23.8816734 27.5096255,23.933135 27.6431572,23.933135 L27.6468323,23.933135 C27.7766888,23.9319097 27.8955198,23.8816734 27.9824991,23.791003 L29.3766188,22.3966392 L31.7066853,24.7148608 L29.1585579,27.2634343 C28.9674484,27.46683 28.9637732,27.773149 29.1585579,27.9679678 C29.3570179,28.1578855 29.6681834,28.1615614 29.8629681,27.9679678 L32.4086454,25.4108174 L34,26.9877472 L26.9901995,34 Z M9.42948508,35 L8,33.5290259 L8.21750301,33.3102657 C14.8570023,26.6506505 21.5153602,20.0010933 28.1661747,13.3603367 L29.5277687,12 L31,13.4307423 L9.42948508,35 Z M2,35 L2,29 L8,35 L2,35 Z M23.5402613,6 L25,7.44252622 L3.43962171,29 L2,27.5185205 L23.5402613,6 Z M3,9.99938656 L10.0085754,3 L11.7016101,4.69433003 L9.16573329,7.25606871 C9.0640532,7.35421961 9.01137557,7.48058891 9.01260063,7.61431952 C9.01505075,7.73823504 9.06527826,7.85110858 9.15470774,7.93208308 C9.260063,8.04863728 9.3739937,8.10016651 9.49894995,8.10139339 C9.60675534,8.12470423 9.75253763,8.04863728 9.83951698,7.95294015 L9.85054253,7.94067128 L12.4060203,5.40101656 L14.7458873,7.74436947 L13.3321666,9.13688546 C13.1459573,9.32827973 13.1471824,9.64113575 13.339517,9.84479888 C13.5318516,10.0251512 13.8344417,10.0276049 14.0316766,9.83621067 L15.4245712,8.42774516 L17,9.97852949 L9.99019951,17 L3,9.99938656 Z M29,11.1745425 L7.16323409,33 L4,29.8598664 L25.8520595,8 L26.0776407,8.22811847 C26.4395901,8.59514707 26.8079119,8.96345007 27.1775082,9.33302748 C27.711511,9.86827751 28.2493373,10.4073508 28.7795167,10.9489728 L29,11.1745425 Z M26.8182257,2.39374257 C27.4325385,1.84408 28.3645088,1.87556425 28.9538816,2.45277554 C30.825698,4.31165826 32.6935765,6.17841204 34.561455,8.05566057 C34.8371082,8.31934119 34.9959369,8.69584037 34.9998748,9.11038302 C35.0051254,9.53410858 34.844984,9.93946833 34.561455,10.2228266 L31.7707946,13 L24,5.22076604 L26.8182257,2.39374257 Z M36.692384,26.5436148 L28.7878125,18.6386077 L35.9548581,11.4611321 C36.9645661,10.4425879 37.2455284,9.02264692 36.72625,7.56758373 C36.1279509,6.09119632 33.9467307,4.11306299 32.1944796,2.52378276 C31.5949263,1.97938843 31.0279846,1.46635321 30.6002698,1.03861481 C29.2406133,-0.311081746 27.004204,-0.343695232 25.6144444,0.968370376 L18.3759039,8.2173447 L10.452518,0.302302653 C10.0423633,-0.10160282 9.37382373,-0.100348456 8.96366904,0.303557018 L0.301502969,8.96494614 C-0.10112595,9.38264963 -0.10112595,10.0436999 0.305265856,10.4651665 L8.2173631,18.3664105 L0.311537334,26.2914875 C0.115867206,26.4796422 0.00674348016,26.7443132 0.00674348016,27.0202734 L0.00674348016,35.9061939 C0.00674348016,36.5195783 0.465815705,37 1.0503175,37 L9.95581694,37 C10.2480678,37 10.5365558,36.8833441 10.7460232,36.680137 L18.6280174,28.7788929 L26.4786541,36.628708 L26.5589291,36.6901719 C26.9452521,37.0978405 27.6363691,37.0978405 28.0239464,36.6901719 L36.692384,28.0300371 C37.1025387,27.6211142 37.1025387,26.9537921 36.692384,26.5436148 Z" id="path-1"></path>
    </defs>
    <g id="Page-1" stroke="none" stroke-width="1" fill="none" fill-rule="evenodd">
        <g id="Solutions-Digital-Marketing" transform="translate(-743.000000, -1290.000000)">
            <g id="Group-3" transform="translate(736.000000, 859.000000)">
                <g id="icon-ad-services" transform="translate(7.000000, 431.000000)">
                    <mask id="mask-2" fill="white">
                        <use xlink:href="#path-1"></use>
                    </mask>
                    <use fill="#838383" fill-rule="evenodd" xlink:href="#path-1"></use>
                    <g id="Mixin/Fill/gray" mask="url(#mask-2)" fill="#838383" fill-rule="evenodd">
                        <rect id="Rectangle" x="0" y="0" width="47" height="44"></rect>
                    </g>
                </g>
            </g>
        </g>
    </g>
</svg>