<?xml version="1.0" encoding="UTF-8"?>
<svg width="57px" height="34px" viewBox="0 0 57 34" version="1.1" xmlns="http://www.w3.org/2000/svg" xmlns:xlink="http://www.w3.org/1999/xlink">
    <!-- Generator: Sketch 50.2 (55047) - http://www.bohemiancoding.com/sketch -->
    <title>icon-careers</title>
    <desc>Created with Sketch.</desc>
    <defs>
        <path d="M41.4399164,30.7843742 C41.4399164,30.5047546 41.4178053,30.2288798 41.3883238,29.9555017 C41.3772682,29.849396 41.3625275,29.7470353 41.3465583,29.6421779 C41.3318176,29.5373206 41.3084781,29.4349598 41.2888238,29.3313507 C41.1930089,28.8257884 41.0542002,28.3327092 40.8625706,27.860851 C40.8195767,27.7559937 40.7692125,27.6536329 40.7225335,27.5500239 C40.6746261,27.4451665 40.6328607,27.3390608 40.581268,27.2367001 C40.0014655,26.1069868 39.1489591,25.11958 38.0691996,24.3843301 C37.9758416,24.321915 37.8775699,24.2694864 37.7817551,24.2095679 C37.6957674,24.1571392 37.6097798,24.1022139 37.5225637,24.0522818 C37.4292056,24.0011014 37.3395328,23.9549143 37.2461747,23.9074788 C37.0827982,23.8238426 36.9194216,23.738958 36.7585018,23.672798 C36.4870264,23.5604509 36.181156,23.4880493 35.8863411,23.4019165 C35.7831559,23.3732056 35.6861127,23.3332599 35.5792423,23.3070456 C35.4920262,23.2858244 35.4207793,23.2496237 35.3323348,23.2308991 C35.3139089,23.2271542 35.3003965,23.2271542 35.283199,23.2234093 C34.7414767,23.1335316 34.2881988,23.0885927 33.8656308,23.0885927 L23.9045731,23.0885927 C23.1933322,23.0885927 22.4796345,23.197195 21.8040171,23.3981716 C21.7057454,23.4268825 21.6099306,23.461835 21.5141158,23.4942909 C21.4170725,23.527995 21.3212577,23.5641958 21.2254429,23.6016448 C21.1603379,23.6266109 21.0915478,23.6465837 21.0276712,23.6740463 C20.6431835,23.8363256 20.2795785,24.032309 19.9343994,24.2507618 C19.8447265,24.3069354 19.7636524,24.375592 19.6776648,24.4355105 C19.5916771,24.4941807 19.5081462,24.5540992 19.4246153,24.6165143 C18.4947201,25.3155634 17.7417137,26.2093476 17.2147321,27.2367001 C17.1619111,27.3415574 17.1029481,27.4426699 17.0525839,27.5500239 C17.0071333,27.649888 16.975195,27.7584903 16.934658,27.860851 C16.7442567,28.3327092 16.5968493,28.8232918 16.5010344,29.3313507 C16.4813801,29.4362081 16.4482134,29.5360723 16.4334727,29.6421779 C16.4175036,29.7445387 16.4211887,29.8518926 16.4101332,29.9555017 C16.3818801,30.2301281 16.3499418,30.5035063 16.3499418,30.7843742 L16.3499418,32.5344935 L41.4399164,32.5344935 L41.4399164,30.7843742 Z M25.2287832,19.8230348 C26.3908452,20.319859 27.6376665,20.5682711 28.8857161,20.5682711 C30.1325374,20.5682711 31.380587,20.319859 32.542649,19.8230348 C34.8360631,18.8393729 36.5803845,17.0043691 37.5201069,14.7749018 C37.5839834,14.6213606 37.6404896,14.4653229 37.6969958,14.3092852 C37.7510452,14.1582406 37.8198354,14.0134376 37.8677428,13.8598965 C38.1441317,12.952381 38.2964527,11.9949334 38.2964527,11.0100231 C38.2964527,10.1811506 38.1809836,9.37974079 37.9832119,8.6120351 C37.9389897,8.44226604 37.899681,8.27124867 37.84686,8.10647281 C37.800181,7.95667658 37.7424464,7.81187355 37.6883971,7.66582223 C36.3482177,4.0494915 32.9136244,1.46550648 28.8857161,1.46550648 C25.0703202,1.46550648 21.6615232,3.78110658 20.2058747,7.35873995 C20.0081031,7.83059808 19.8594673,8.33241546 19.7427697,8.84671586 C19.6874919,9.08888644 19.6444981,9.33230532 19.6088746,9.58071741 C19.5388561,10.0513272 19.4934055,10.5281786 19.4934055,11.0100231 C19.4934055,11.6191945 19.5720228,12.2158828 19.6850351,12.8050813 C19.7353993,13.0609832 19.7882203,13.3168851 19.8582389,13.5677938 C20.6259859,16.3290377 22.5865049,18.6920733 25.2287832,19.8230348 Z M42.8194043,29.9555017 C42.8452006,30.2313764 42.8820525,30.5047546 42.8820525,30.7843742 L42.8820525,33.2672468 C42.8820525,33.6654551 42.5565277,34 42.1327313,34 L15.6190466,34 C15.2210465,34 14.8979785,33.6716966 14.8979785,33.2385358 L14.8979785,30.7843742 C14.8979785,30.5047546 14.9348304,30.2313764 14.9606267,29.9555017 C14.9704539,29.8506443 14.9716823,29.745787 14.9839662,29.6421779 C14.998707,29.5385689 15.0060773,29.4337115 15.0232749,29.3313507 C15.1068057,28.8282851 15.238244,28.340199 15.4016206,27.860851 C15.4372441,27.7559937 15.4826947,27.6536329 15.5220034,27.5500239 C15.5625404,27.4451665 15.5993923,27.3403091 15.6436145,27.2367001 C16.288522,25.7087785 17.3351149,24.3718471 18.6703806,23.3819437 C18.7526831,23.3220252 18.8337572,23.2608584 18.9185164,23.2021882 C19.0032757,23.143518 19.081893,23.0748614 19.1691091,23.0186878 C19.5744795,22.7602893 19.9982759,22.5268568 20.4466402,22.3346184 C20.4540106,22.3321217 20.4601526,22.3271285 20.4687513,22.3246319 C20.5621094,22.283438 20.6591526,22.2647134 20.7537391,22.2285127 C20.8556959,22.188567 20.9576527,22.1598561 21.0596095,22.1249036 C21.7450541,21.8889746 22.4341839,21.7154606 23.1220853,21.6692734 L25.1133141,21.5319602 L23.3911038,20.5083526 C21.4809491,19.3699012 20.0081031,17.6597276 19.0929486,15.6699343 C19.035214,15.5438558 18.9664239,15.4240188 18.9123745,15.2954437 C18.8583251,15.164372 18.8165596,15.0283071 18.7661954,14.8947388 C18.3104608,13.667658 18.0512693,12.3581892 18.0512693,11.0100231 C18.0512693,9.81290157 18.2465842,8.66196718 18.5966769,7.5809377 C18.6384423,7.44861769 18.6900349,7.32004259 18.7379423,7.18897089 C18.7858497,7.05914748 18.8263868,6.92557918 18.8792078,6.79700408 C20.5105168,2.81117597 24.3799621,0 28.8857161,0 C33.1224516,0 36.7892117,2.48162426 38.5752985,6.08172706 C38.6293479,6.19032933 38.6821689,6.3001799 38.7325331,6.41127878 C38.7816689,6.51863274 38.8381751,6.6209935 38.8836257,6.72959577 C39.1452739,7.35499504 39.3467307,8.01160187 39.490453,8.68942982 C39.5383604,8.91412417 39.5702987,9.14381173 39.6046938,9.37225098 C39.642774,9.62690458 39.6747123,9.88405478 39.6943666,10.1437016 C39.7177061,10.430811 39.7385889,10.7179205 39.7385889,11.0100231 C39.7385889,11.480633 39.7054222,11.9462496 39.6464592,12.406873 C39.6132925,12.6652715 39.5518728,12.9161802 39.5015086,13.1708338 C39.4597431,13.3805485 39.43149,13.5940082 39.3774406,13.799978 C39.2017801,14.4765576 38.9475023,15.123178 38.6502306,15.7498256 C38.5998664,15.8571796 38.5507306,15.9645335 38.4966812,16.0693909 C38.440175,16.1804898 38.3947244,16.2965819 38.3357614,16.4051841 C37.4107797,18.0729155 36.0656868,19.5009729 34.397526,20.4996145 L32.7232231,21.5007527 L34.6591742,21.659287 C34.9797854,21.6855013 35.3016249,21.7291919 35.6185509,21.8028417 C35.7831559,21.8365459 35.9367053,21.882733 36.0951683,21.923927 C36.1995819,21.9513897 36.3076807,21.9751074 36.4096375,22.0050666 C36.5189647,22.0375225 36.6209215,22.0762198 36.7265635,22.1124206 C36.9231068,22.1798289 37.1208784,22.2459889 37.3051377,22.3258802 C37.5753847,22.4394757 37.8284341,22.5880236 38.0851687,22.7278335 C38.1809836,22.7802621 38.2841688,22.8227044 38.3775268,22.878878 C38.4684281,22.932555 38.5556442,22.9887286 38.6440886,23.0461505 C40.2066075,24.0522818 41.4165769,25.5302713 42.1376449,27.2367001 C42.1818672,27.3403091 42.218719,27.4451665 42.2592561,27.5500239 C42.2985647,27.6536329 42.3427869,27.7559937 42.3796388,27.860851 C42.541787,28.340199 42.6732253,28.8282851 42.7555278,29.3313507 C42.7727253,29.4337115 42.7813241,29.5385689 42.7948364,29.6421779 C42.8083488,29.745787 42.8083488,29.8506443 42.8194043,29.9555017 Z M4.95903194,21.3522047 C5.6260506,21.0650953 6.37168657,20.9140507 7.11486574,20.9140507 L14.7997069,20.9140507 C15.1264601,20.9140507 15.4777811,20.9477549 15.9028059,21.0214047 C16.2836085,21.1037926 16.6373863,21.2136432 16.9690531,21.3509564 C17.2933494,21.4870213 17.6323865,21.6705217 17.9493125,21.8852297 C18.0647817,21.9638727 18.1679669,22.0537504 18.2760657,22.1386349 C18.6937201,21.8527738 19.1334856,21.6006168 19.5953623,21.3784191 C18.9897634,20.8091934 18.2969484,20.3285971 17.515689,19.9977971 C17.1103185,19.8242831 16.6631826,19.6844733 16.1841084,19.5858575 C15.9556269,19.5321805 15.7025775,19.4947314 15.4249601,19.472262 L14.4557562,19.393619 L15.2935218,18.8930499 C16.3953924,18.2339465 17.3056334,17.3289276 18.0045903,16.2816022 C17.7417137,15.7211147 17.5328865,15.135661 17.3547692,14.5389727 C16.6226456,16.0968535 15.3475712,17.3676249 13.712577,18.0679223 C12.8367312,18.4436612 11.8970087,18.6321548 10.9572863,18.6321548 C10.0163355,18.6321548 9.07661308,18.4436612 8.20076721,18.0679223 C5.61499504,16.9631751 3.87804405,14.2930572 3.87804405,11.426956 C3.87804405,10.4657635 4.06353174,9.5145574 4.41485281,8.6769468 C5.51303823,5.9793663 8.08161286,4.23299189 10.9572863,4.23299189 C13.6523857,4.23299189 16.0010775,5.76715497 17.2012198,8.01909168 C17.3535408,7.40617542 17.5378001,6.80699049 17.7761088,6.2352682 C16.2160467,4.13187943 13.7445153,2.7649888 10.9572863,2.7649888 C6.2562174,2.7649888 2.43222275,6.64970445 2.43222275,11.426956 C2.43222275,14.4927855 4.04264902,17.3563902 6.63579156,18.8992914 L7.49566829,19.4110952 L6.50066807,19.4797518 C5.79802595,19.5271873 5.09169863,19.7019496 4.39888367,19.9977971 C1.76766088,21.1162757 0,23.8013731 0,26.6812057 L0,28.5736315 C0,29.0005507 0.324296367,29.3313507 0.723524848,29.3313507 L13.7789104,29.3313507 C13.8513857,28.83203 13.9607129,28.3414473 14.1032068,27.860851 L1.45319167,27.860851 L1.45319167,26.6812057 C1.45319167,24.3418879 2.82899444,22.2497338 4.95903194,21.3522047 Z M57,26.6812057 L57,28.5961009 C57,28.9943092 56.6732468,29.3313507 56.2555924,29.3313507 L43.9998922,29.3313507 C43.9274169,28.83203 43.8193181,28.3414473 43.6768243,27.860851 L55.5541787,27.860851 L55.5541787,26.6812057 C55.5541787,24.7550758 54.6107711,22.9625142 53.0298263,21.8852297 C52.7104435,21.6705217 52.3714064,21.485773 52.0483384,21.3509564 C51.7154433,21.2136432 51.3616654,21.1037926 50.9820913,21.0214047 C50.5558381,20.9477549 50.2057454,20.9140507 49.8789923,20.9140507 L42.1941511,20.9140507 C41.4522003,20.9140507 40.7065644,21.0650953 40.0395457,21.3522047 C39.7091074,21.4920145 39.4044653,21.6680251 39.1121072,21.8615119 C38.6883108,21.6018651 38.2436317,21.3696809 37.7805267,21.1749458 C37.7424464,21.1574696 37.6957674,21.1487315 37.6564588,21.1325036 C38.1994095,20.6681353 38.809922,20.28241 39.4793974,19.9977971 C40.170984,19.7019496 40.8785397,19.5271873 41.5799535,19.4797518 L42.5749537,19.4110952 L41.7150769,18.8992914 C40.8343175,18.3762529 40.0788544,17.6909351 39.449916,16.9057532 C39.7127926,16.4201637 39.9486445,15.9195947 40.1451877,15.4015494 C40.9031076,16.5674634 41.9853239,17.5136762 43.281281,18.0679223 C44.1558985,18.4436612 45.0968493,18.6321548 46.0365717,18.6321548 C46.9762941,18.6321548 47.9172449,18.4436612 48.7930908,18.0679223 C51.4267704,16.9394574 53.1293263,14.3330029 53.1293263,11.426956 C53.1293263,7.45985241 49.9477824,4.23299189 46.0365717,4.23299189 C43.7456144,4.23299189 41.6634843,5.35396703 40.3503297,7.16899805 C40.177126,6.63722143 39.9633852,6.12416933 39.7226197,5.62734516 C41.2839102,3.87348093 43.5318736,2.7649888 46.0365717,2.7649888 C50.745011,2.7649888 54.5751476,6.64970445 54.5751476,11.426956 C54.5751476,14.4803025 52.9659497,17.3414106 50.3728072,18.8930499 L49.5350416,19.393619 L50.5042455,19.472262 C50.7830912,19.4947314 51.0361407,19.5321805 51.2646222,19.5858575 C51.7436964,19.6844733 52.1896039,19.8242831 52.5962027,19.9977971 C55.2311107,21.1100341 57,23.7951316 57,26.6812057 Z" id="path-1"></path>
    </defs>
    <g id="Page-1" stroke="none" stroke-width="1" fill="none" fill-rule="evenodd">
        <g id="TT-Website-Style-Guide" transform="translate(-982.000000, -9964.000000)">
            <g id="icon-careers" transform="translate(982.000000, 9964.000000)">
                <mask id="mask-2" fill="white">
                    <use xlink:href="#path-1"></use>
                </mask>
                <use fill="#4A4A4A" fill-rule="evenodd" xlink:href="#path-1"></use>
                <g id="Mixin/Fill/gray" mask="url(#mask-2)" fill="#838383" fill-rule="evenodd">
                    <rect id="Rectangle" x="0" y="0" width="57" height="34"></rect>
                </g>
            </g>
        </g>
    </g>
</svg>