<?xml version="1.0" encoding="UTF-8"?>
<svg width="40px" height="30px" viewBox="0 0 40 30" version="1.1" xmlns="http://www.w3.org/2000/svg" xmlns:xlink="http://www.w3.org/1999/xlink">
    <!-- Generator: Sketch 50.2 (55047) - http://www.bohemiancoding.com/sketch -->
    <title>icon-booking-panel</title>
    <desc>Created with Sketch.</desc>
    <defs></defs>
    <g id="Page-1" stroke="none" stroke-width="1" fill="none" fill-rule="evenodd">
        <g id="TT-Website-Style-Guide" transform="translate(-624.000000, -10519.000000)" fill="#808285">
            <path d="M635.057011,10528.4974 L643.295514,10528.4974 L643.295514,10520.3879 L635.057011,10520.3879 L635.057011,10528.4974 Z M644.703359,10528.4974 L652.941861,10528.4974 L652.941861,10520.3879 L644.703359,10520.3879 L644.703359,10528.4974 Z M654.351116,10528.4974 L662.591027,10528.4974 L662.591027,10520.3879 L654.351116,10520.3879 L654.351116,10528.4974 Z M625.409255,10528.4974 L628.061472,10528.4974 C628.257358,10528.4974 628.44338,10528.5778 628.577259,10528.7179 L629.53837,10529.7375 L630.547397,10528.7096 C630.679867,10528.5737 630.86307,10528.4974 631.054728,10528.4974 L633.647757,10528.4974 L633.647757,10520.3879 L625.409255,10520.3879 L625.409255,10528.4974 Z M662.591027,10531.6088 L662.591027,10529.8846 L631.35349,10529.8846 L630.034428,10531.2274 C629.900549,10531.3661 629.76526,10531.4341 629.521459,10531.4396 C629.326982,10531.4382 629.14237,10531.3578 629.012719,10531.219 L627.754254,10529.8846 L625.409255,10529.8846 L625.409255,10531.6088 L662.591027,10531.6088 Z M625.409255,10547.6128 L633.647757,10547.6128 L633.647757,10532.996 L625.409255,10532.996 L625.409255,10547.6128 Z M635.057011,10547.6128 L662.591027,10547.6128 L662.591027,10532.996 L635.057011,10532.996 L635.057011,10547.6128 Z M663.295655,10549 L624.704627,10549 C624.315673,10549 624,10548.6893 624,10548.3064 L624,10519.6943 C624,10519.31 624.315673,10519.0007 624.704627,10519.0007 L663.295655,10519.0007 C663.684609,10519.0007 664.000282,10519.31 664.000282,10519.6943 L664.000282,10548.3064 C664.000282,10548.6893 663.684609,10549 663.295655,10549 Z" id="icon-booking-panel"></path>
        </g>
    </g>
</svg>