<?xml version="1.0" encoding="UTF-8"?>
<svg width="37px" height="39px" viewBox="0 0 37 39" version="1.1" xmlns="http://www.w3.org/2000/svg" xmlns:xlink="http://www.w3.org/1999/xlink">
    <!-- Generator: Sketch 50.2 (55047) - http://www.bohemiancoding.com/sketch -->
    <title>icon-social</title>
    <desc>Created with Sketch.</desc>
    <defs></defs>
    <g id="Page-1" stroke="none" stroke-width="1" fill="none" fill-rule="evenodd">
        <g id="TT-Website-Style-Guide" transform="translate(-99.000000, -10415.000000)" fill="#838383">
            <path d="M129.365194,10451.6462 C127.015988,10451.6462 125.106549,10449.7544 125.106549,10447.43 C125.106549,10446.349 125.509432,10445.3394 126.245687,10444.5693 L126.245687,10444.5665 L126.352082,10444.4516 C127.16636,10443.6619 128.235987,10443.2264 129.365194,10443.2264 C130.483053,10443.2264 131.55268,10443.6605 132.376888,10444.4502 L132.484702,10444.5721 C133.215283,10445.3562 133.615329,10446.3658 133.615329,10447.43 C133.615329,10449.7544 131.708726,10451.6462 129.365194,10451.6462 M112.99168,10439.2441 L112.929262,10439.3057 C111.662449,10440.5323 109.979986,10441.2072 108.191128,10441.2072 C104.437505,10441.2072 101.384671,10438.1981 101.384671,10434.5 C101.384671,10430.8019 104.437505,10427.7942 108.191128,10427.7942 C110.031056,10427.7942 111.737635,10428.4845 112.995936,10429.7377 L113.098075,10429.8525 C114.323748,10431.1254 114.997585,10432.7707 114.997585,10434.5 C114.997585,10436.2811 114.265585,10438.0104 112.99168,10439.2441 M129.365194,10417.3524 C131.708726,10417.3524 133.615329,10419.24 133.615329,10421.5588 C133.615329,10423.8832 131.708726,10425.775 129.365194,10425.775 C128.224638,10425.775 127.153593,10425.3297 126.347826,10424.5218 C126.076873,10424.2641 125.906641,10424.0569 125.774711,10423.8496 L125.726478,10423.788 C125.315083,10423.1173 125.106549,10422.3682 125.106549,10421.5588 C125.106549,10419.24 127.015988,10417.3524 129.365194,10417.3524 M129.365194,10440.8726 C127.614638,10440.8726 125.949199,10441.5517 124.678131,10442.7853 L124.482363,10442.9758 L124.180201,10442.9016 L116.506978,10438.3563 L116.631815,10438.0749 C117.121233,10436.9701 117.369489,10435.7672 117.369489,10434.5 C117.369489,10433.237 117.121233,10432.0299 116.630396,10430.9139 L116.508397,10430.6325 L124.472433,10425.9262 L124.659689,10426.2077 C125.935013,10427.4343 127.608964,10428.1078 129.365194,10428.1078 C133.023771,10428.1078 136,10425.1701 136,10421.5588 C136,10417.9419 133.023771,10415 129.365194,10415 C125.700943,10415 122.720459,10417.9419 122.720459,10421.5588 C122.720459,10422.322 122.839621,10423.0445 123.073691,10423.7068 L123.168737,10423.9771 L115.208956,10428.6511 L115.016026,10428.4201 C114.962119,10428.3557 114.898282,10428.2913 114.833027,10428.2268 L114.675562,10428.0854 C112.961889,10426.3729 110.658078,10425.4291 108.191128,10425.4291 C103.12246,10425.4291 99,10429.4983 99,10434.5 C99,10439.4961 103.12246,10443.5611 108.191128,10443.5611 C110.602753,10443.5611 112.875355,10442.6467 114.591864,10440.986 L114.746492,10440.874 C114.818841,10440.783 114.929492,10440.6625 115.014608,10440.5589 L115.208956,10440.3265 L123.168737,10445.0467 L123.073691,10445.3156 C122.836784,10445.9863 122.720459,10446.678 122.720459,10447.43 C122.720459,10451.0525 125.700943,10454 129.365194,10454 C133.023771,10454 136,10451.0525 136,10447.43 C136,10445.7021 135.290699,10444.0162 134.053677,10442.8077 C132.789702,10441.5587 131.124262,10440.8726 129.365194,10440.8726" id="icon-social"></path>
        </g>
    </g>
</svg>