<?xml version="1.0" encoding="UTF-8"?>
<svg width="36px" height="36px" viewBox="0 0 36 36" version="1.1" xmlns="http://www.w3.org/2000/svg" xmlns:xlink="http://www.w3.org/1999/xlink">
    <title>icon-search</title>
    <defs>
        <path d="M12.3052083,6.74788468 C11.7211271,6.99044187 11.1271701,7.31197117 10.5360348,7.70683171 C10.0944468,8.02977123 9.5724419,8.42463178 9.09981581,8.88013162 L8.994004,8.99435914 C8.51855626,9.45973049 8.10800643,9.95048574 7.76940863,10.4525227 L7.76940863,10.4553432 L7.70733237,10.5582889 C7.29819336,11.1548104 6.98075793,11.7287684 6.739507,12.3125979 C6.68025238,12.4578502 6.67884156,12.6157944 6.73668535,12.756816 C6.79311831,12.8950172 6.90457342,13.0050141 7.04706666,13.062833 C7.1895599,13.1234723 7.33910726,13.1234723 7.48018968,13.0670636 C7.62127209,13.0092448 7.73131638,12.9020683 7.78916017,12.7624569 C8.01065956,12.2082419 8.30128934,11.6554372 8.63142219,11.1731432 L9.27616883,10.2297086 L9.27616883,10.3538076 C9.45393267,10.1450956 9.62746404,9.95894704 9.77983305,9.79818239 C10.245405,9.33281103 10.7208528,8.95064243 11.2033546,8.65167659 C11.5997962,8.3569414 12.1161579,8.07489815 12.756672,7.80695707 C13.0402477,7.67157631 13.1841517,7.33312441 13.0684642,7.04120965 C12.9372575,6.75352554 12.6212329,6.6280163 12.3052083,6.74788468 M29.3578399,21.749765 C30.054787,20.0941711 30.4216013,18.2439674 30.4216013,16.3994046 C30.4216013,14.6168913 30.0759494,12.841429 29.3959321,11.1280163 L29.3578399,11.0278909 C28.6439628,9.34127233 27.6182937,7.8013162 26.3697143,6.55468505 L26.316103,6.51096835 C25.0266097,5.20087747 23.4944547,4.16577875 21.7563193,3.4310561 C20.0294705,2.73440928 18.2264373,2.380445 16.3965983,2.380445 C12.6423953,2.380445 9.12097817,3.84706988 6.48414782,6.50532748 C5.18760042,7.7660608 4.15910961,9.28768411 3.42548105,11.0307114 C2.72571227,12.7229709 2.37159541,14.5294579 2.37159541,16.3994046 C2.37159541,18.2496083 2.71865815,20.0307114 3.42548105,21.7483547 C4.12242819,23.4236916 5.14950817,24.9594171 6.47850453,26.3104043 L6.72398793,26.0678471 L6.47991535,26.3118145 C7.79057099,27.6219054 9.31849355,28.6527734 11.0284124,29.3790348 C12.7665478,30.0756816 14.5724027,30.4296459 16.3965983,30.4296459 C18.2250265,30.4296459 20.0280597,30.0756816 21.7619626,29.3762144 C23.4930439,28.6358508 25.0139123,27.6120338 26.2286319,26.3780946 L26.3132813,26.3132247 C27.6422777,24.9960827 28.666536,23.4603573 29.3578399,21.749765 M36,34.8267001 C36,35.1411783 35.8758475,35.4359135 35.6458831,35.6615481 C35.1958302,36.1128173 34.4551475,36.1128173 33.9966297,35.6615481 L27.1216836,28.7923848 L26.8747894,28.9982764 C25.5867069,30.0686305 24.1702394,30.9232216 22.6663009,31.5394861 C20.7094878,32.3616421 18.6003057,32.7776559 16.3965983,32.7776559 C14.1914802,32.7776559 12.0837089,32.3616421 10.125485,31.5380758 C8.13340126,30.7229709 6.34306541,29.5313381 4.80526708,27.9927922 C3.27452287,26.4838609 2.07532233,24.6928862 1.25281185,22.7030711 L1.21895207,22.5944845 C0.41054983,20.5863366 0,18.502037 0,16.3994046 C0,14.2713883 0.41760395,12.1617048 1.23870361,10.1338139 C2.08801975,8.11156377 3.28863111,6.32340959 4.8066779,4.81588844 C7.92601011,1.71059229 12.0413842,0 16.3965983,0 C18.525532,0 20.6347141,0.424475086 22.6663009,1.2593231 C24.6696712,2.09558132 26.5037426,3.32387966 27.9738214,4.813068 L28.0500059,4.8906299 C29.5398362,6.38968975 30.7150527,8.15387026 31.538974,10.1211219 L31.5742446,10.2141962 C32.3770036,12.2308054 32.7833209,14.3122846 32.7833209,16.3994046 C32.7833209,18.573958 32.365717,20.6822313 31.5432065,22.6678157 C30.9436062,24.1287997 30.0858251,25.5446568 28.9896148,26.875901 L28.7864561,27.1226888 L35.6458831,33.9904419 L35.647294,33.9918521 C35.8758475,34.2160765 36,34.5108117 36,34.8267001 M26.8790218,16.3994046 C26.8790218,17.7800063 26.6053219,19.1324036 26.0649763,20.4185208 L26.0395815,20.5115951 C25.4794843,21.7920715 24.7289258,22.9075525 23.8090685,23.8270135 C22.8214916,24.8042933 21.6801348,25.5643999 20.4202688,26.0861799 C19.119489,26.6192416 17.7665086,26.8885929 16.3965983,26.8885929 C16.0848062,26.8885929 15.8223929,26.6262927 15.8223929,26.3146349 C15.8223929,26.0043873 16.0735196,25.7604199 16.3965983,25.7604199 C17.578869,25.7604199 18.8133401,25.5108117 19.9730376,25.0341586 C21.1313242,24.5335318 22.1485284,23.8552178 22.9978446,23.0175494 C23.8669123,22.1389846 24.5483403,21.1405516 25.0237881,20.0532748 L25.0534154,19.9150736 C25.5161657,18.7671576 25.7517733,17.5853964 25.7517733,16.3994046 C25.7517733,16.0722344 25.9944351,15.8254466 26.3146922,15.8254466 C26.6307168,15.8254466 26.8790218,16.0778753 26.8790218,16.3994046" id="path-1"></path>
    </defs>
    <g id="Page-1" stroke="none" stroke-width="1" fill="none" fill-rule="evenodd">
        <g id="Solutions-Digital-Marketing" transform="translate(-744.000000, -1133.000000)">
            <g id="Group-3" transform="translate(736.000000, 859.000000)">
                <g id="icon-search" transform="translate(8.000000, 274.000000)">
                    <mask id="mask-2" fill="white">
                        <use xlink:href="#path-1"></use>
                    </mask>
                    <use fill="#fff" fill-rule="evenodd" xlink:href="#path-1"></use>
                    <g id="Mixin/Fill/gray" mask="url(#mask-2)" fill="#fff" fill-rule="evenodd">
                        <rect id="Rectangle" x="0" y="0" width="47" height="44"></rect>
                    </g>
                </g>
            </g>
        </g>
    </g>
</svg>
