<?xml version="1.0" encoding="UTF-8"?>
<svg width="40px" height="37px" viewBox="0 0 40 37" version="1.1" xmlns="http://www.w3.org/2000/svg" xmlns:xlink="http://www.w3.org/1999/xlink">
    <!-- Generator: Sketch 50.2 (55047) - http://www.bohemiancoding.com/sketch -->
    <title>icon-tools</title>
    <desc>Created with Sketch.</desc>
    <defs></defs>
    <g id="Page-1" stroke="none" stroke-width="1" fill="none" fill-rule="evenodd">
        <g id="Solutions-RateMatch-1800" transform="translate(-1050.000000, -4516.000000)" fill="#838383">
            <path d="M1084.17746,4550.60141 L1072.71492,4539.13887 L1075.55537,4536.30999 L1087.00634,4547.77253 L1084.17746,4550.60141 Z M1058.89793,4550.26311 L1056.06837,4547.43491 L1067.86921,4535.64565 L1075.0823,4528.42099 C1075.33007,4528.18411 1075.44238,4527.80089 1075.30692,4527.46328 L1075.2055,4527.16991 L1075.14969,4526.94529 L1075.12723,4526.87722 C1074.65348,4525.05097 1074.93528,4523.20362 1075.82628,4521.67075 C1076.70435,4520.13855 1078.14737,4518.95418 1079.99608,4518.45865 C1081.07767,4518.18774 1082.15994,4518.16596 1083.17415,4518.36812 C1083.51244,4518.45865 1083.85073,4518.55939 1084.16589,4518.66081 L1083.86094,4518.74045 L1081.28051,4519.45039 C1080.95379,4519.52867 1080.69445,4519.77711 1080.60392,4520.11473 L1079.22964,4525.29942 C1079.13979,4525.61525 1079.22964,4525.97533 1079.45495,4526.2122 L1081.37036,4528.1174 L1083.21907,4529.96543 C1083.44437,4530.23634 1083.80581,4530.34865 1084.16589,4530.25812 L1086.78103,4529.55975 L1087.07372,4529.48079 C1086.84774,4529.7517 1086.61155,4530.01036 1086.34132,4530.24655 C1085.57488,4530.93471 1084.61717,4531.4527 1083.55736,4531.74607 C1082.746,4531.96049 1081.9115,4532.01698 1081.1226,4531.96049 C1080.33438,4531.88085 1079.54479,4531.65623 1078.82328,4531.31793 C1078.46321,4531.12598 1077.99014,4531.17159 1077.6852,4531.47585 L1058.89793,4550.26311 Z M1061.03933,4527.46328 C1060.68946,4527.11477 1060.15922,4527.09163 1059.77668,4527.37343 C1059.53981,4527.53135 1059.30361,4527.66612 1059.06674,4527.80089 C1058.8074,4527.93635 1058.56032,4528.07248 1058.31187,4528.16233 C1058.13081,4528.22972 1058.0185,4528.34203 1057.90551,4528.46591 C1057.62439,4528.79399 1057.39909,4529.15407 1057.25206,4529.58221 C1057.13907,4529.92051 1057.07237,4530.24655 1057.07237,4530.61956 L1055.96695,4531.70047 L1054.18699,4529.94297 L1054.17542,4529.92051 L1054.1305,4529.89805 L1054.10735,4529.85312 L1054.09578,4529.82998 L1054.074,4529.8082 L1054.05086,4529.8082 L1054.00593,4529.74013 L1052.28179,4528.02756 L1053.37495,4526.94529 C1053.78131,4526.94529 1054.1305,4526.89968 1054.44565,4526.80983 C1054.96432,4526.67506 1055.40404,4526.42661 1055.75322,4526.11078 C1055.85464,4525.9869 1055.94449,4525.8637 1055.9901,4525.72756 C1056.06837,4525.50226 1056.19294,4525.27696 1056.31614,4525.02919 L1056.33996,4524.98427 C1056.46316,4524.78074 1056.60951,4524.53298 1056.77968,4524.26275 C1057.04922,4523.85639 1056.98116,4523.3384 1056.60951,4523.03346 L1056.31614,4522.74077 L1059.14502,4519.91189 L1059.48331,4520.23997 C1059.82161,4520.5667 1060.32939,4520.60005 1060.68946,4520.3516 C1061.03933,4520.13855 1061.37694,4519.93503 1061.68189,4519.77711 L1061.6921,4519.77711 C1062.00861,4519.61852 1062.31287,4519.48374 1062.61645,4519.3939 C1062.76348,4519.34829 1062.8649,4519.27001 1062.97789,4519.19037 C1064.01387,4518.2211 1065.1186,4517.83788 1066.17841,4517.90594 C1066.69641,4517.92909 1067.17083,4518.07543 1067.67726,4518.28916 C1067.50777,4518.35723 1067.35053,4518.41236 1067.19262,4518.49268 C1066.26826,4518.92083 1065.54675,4519.64166 1064.9954,4520.6334 C1064.9498,4520.72325 1064.91576,4520.81446 1064.8933,4520.90431 C1064.82523,4521.28753 1064.66868,4521.68232 1064.48762,4522.09889 L1064.46584,4522.14382 C1064.28546,4522.54882 1064.0377,4522.98853 1063.74433,4523.42825 C1063.49588,4523.81147 1063.56395,4524.30768 1063.86753,4524.62283 L1070.03307,4530.78837 L1067.19262,4533.61656 L1061.03933,4527.46328 Z M1076.8963,4534.95817 L1078.59866,4533.27827 C1079.33106,4533.58321 1080.13085,4533.77448 1080.94222,4533.85344 C1081.9571,4533.93308 1083.01623,4533.85344 1084.03111,4533.58321 C1085.40539,4533.22314 1086.62312,4532.53497 1087.61418,4531.65623 C1088.65152,4530.75433 1089.43974,4529.58221 1089.93595,4528.31956 C1090.1279,4527.83561 1089.89171,4527.27133 1089.41796,4527.09163 C1089.21512,4527.00178 1089.00139,4527.00178 1088.81012,4527.04671 L1086.26168,4527.73419 L1084.21081,4528.2971 L1082.70108,4526.77648 L1081.19066,4525.25449 L1081.74201,4523.20362 L1082.29472,4521.12961 L1084.36873,4520.58848 L1086.89266,4519.91189 C1087.40045,4519.77711 1087.70403,4519.24755 1087.56925,4518.74045 C1087.52433,4518.53761 1087.38887,4518.35723 1087.23096,4518.24424 C1086.17183,4517.38795 1084.90986,4516.79032 1083.55736,4516.52009 C1082.24979,4516.24919 1080.87551,4516.26008 1079.49987,4516.6433 C1077.1672,4517.25318 1075.29671,4518.76223 1074.18041,4520.72325 C1073.05321,4522.66249 1072.66999,4525.05097 1073.27784,4527.37343 L1073.31255,4527.46328 L1073.32412,4527.5082 L1071.38556,4529.43519 L1065.75027,4523.81147 C1065.92997,4523.50789 1066.05453,4523.22541 1066.20088,4522.93204 L1066.22334,4522.88711 C1066.44932,4522.39226 1066.60656,4521.90762 1066.71955,4521.44476 C1067.07962,4520.84781 1067.48599,4520.45302 1067.9822,4520.22772 C1068.5669,4519.95681 1069.2782,4519.86696 1070.19098,4519.93503 C1070.46121,4519.97996 1070.77704,4519.89011 1070.9792,4519.66344 C1071.36242,4519.2809 1071.34064,4518.68395 1070.96899,4518.31231 C1069.55932,4516.95981 1067.94748,4516.1253 1066.29141,4516.01231 C1064.78031,4515.91225 1063.24811,4516.41867 1061.82891,4517.65818 C1061.50083,4517.77117 1061.1741,4517.91752 1060.83581,4518.08632 C1060.65611,4518.17617 1060.47573,4518.26738 1060.31782,4518.36812 L1059.82161,4517.8828 C1059.46153,4517.52272 1058.85165,4517.52272 1058.48068,4517.8828 L1054.2993,4522.07575 C1053.92766,4522.43719 1053.92766,4523.03346 1054.2993,4523.40646 L1054.79551,4523.87953 L1054.67095,4524.08305 L1054.6376,4524.13819 C1054.52461,4524.36417 1054.41229,4524.58948 1054.2993,4524.82567 C1054.20945,4524.89374 1054.09578,4524.92777 1053.96101,4524.96112 C1053.73571,4525.02919 1053.41987,4525.05097 1053.0598,4525.02919 C1052.79978,4525.00605 1052.51866,4525.0959 1052.31514,4525.29942 L1050.28741,4527.35097 C1049.9042,4527.73419 1049.9042,4528.31956 1050.28741,4528.69189 L1052.67658,4531.08106 L1052.7215,4531.13755 L1052.7215,4531.14912 L1052.74464,4531.16001 L1052.74464,4531.17159 L1052.76643,4531.20426 L1052.78957,4531.2274 L1052.83449,4531.27301 L1052.84538,4531.29615 L1055.29172,4533.72956 C1055.67494,4534.08963 1056.27121,4534.08963 1056.64286,4533.72956 L1058.69509,4531.67937 C1058.89793,4531.47585 1058.98846,4531.20426 1058.96532,4530.91293 C1058.94354,4530.64134 1058.97689,4530.41672 1059.0436,4530.2132 C1059.10009,4530.07842 1059.16816,4529.96543 1059.24712,4529.81841 C1059.48331,4529.71699 1059.73108,4529.60536 1059.95774,4529.48079 L1059.95774,4529.4699 L1060.22729,4529.31199 L1065.86326,4534.95817 L1054.05086,4546.75832 C1053.69078,4547.12997 1053.69078,4547.75007 1054.05086,4548.09925 L1058.23223,4552.28063 C1058.60524,4552.66385 1059.21308,4552.66385 1059.57384,4552.28063 L1071.38556,4540.49136 L1083.51244,4552.61892 C1083.87252,4552.98036 1084.48172,4552.98036 1084.86494,4552.61892 L1089.02317,4548.44912 C1089.41796,4548.0659 1089.41796,4547.45669 1089.02317,4547.08437 L1076.8963,4534.95817 Z" id="icon-tools"></path>
        </g>
    </g>
</svg>