<?xml version="1.0" encoding="UTF-8"?>
<svg width="37px" height="27px" viewBox="0 0 37 27" version="1.1" xmlns="http://www.w3.org/2000/svg" xmlns:xlink="http://www.w3.org/1999/xlink">
    <!-- Generator: Sketch 50.2 (55047) - http://www.bohemiancoding.com/sketch -->
    <title>icon-webinar-alt-</title>
    <desc>Created with Sketch.</desc>
    <defs>
        <polygon id="path-1" points="0 0.0001 37.4055 0.0001 37.4055 27.068475 0 27.068475"></polygon>
    </defs>
    <g id="icon-webinar-alt-" stroke="none" stroke-width="1" fill="none" fill-rule="evenodd">
        <mask id="mask-2" fill="white">
            <use xlink:href="#path-1"></use>
        </mask>
        <g id="Clip-2"></g>
        <path d="M15.611,18.8721 L15.611,8.1991 L24.85,13.5361 L15.611,18.8721 Z M25.858,12.1101 L16.347,6.6171 C16.029,6.4341 15.707,6.3411 15.39,6.3411 C14.511,6.3411 13.873,7.0581 13.873,8.0441 L13.873,19.0281 C13.873,20.0141 14.511,20.7291 15.39,20.7291 C15.707,20.7291 16.028,20.6371 16.344,20.4551 L25.856,14.9621 C26.449,14.6201 26.775,14.1121 26.775,13.5321 C26.775,12.9551 26.449,12.4501 25.858,12.1101 Z M34.554,23.8941 L34.441,24.4211 L33.904,24.4811 C28.861,25.0471 23.781,25.3301 18.703,25.3301 C13.623,25.3301 8.546,25.0471 3.502,24.4811 L2.965,24.4211 L2.852,23.8941 C1.369,17.0191 1.369,10.0481 2.852,3.1731 L2.965,2.6461 L3.502,2.5861 C13.589,1.4561 23.818,1.4561 33.904,2.5861 L34.441,2.6461 L34.554,3.1731 C36.036,10.0481 36.036,17.0191 34.554,23.8941 Z M35.991,1.6541 C35.907,1.3031 35.61,1.0371 35.251,0.9931 C29.762,0.3311 24.233,0.0001 18.705,0.0001 C13.176,0.0001 7.648,0.3311 2.157,0.9931 C1.792,1.0381 1.5,1.2981 1.415,1.6551 C-0.472,9.5371 -0.472,17.5301 1.415,25.4131 C1.499,25.7651 1.798,26.0311 2.157,26.0751 C13.142,27.3991 24.255,27.4001 35.253,26.0751 C35.61,26.0311 35.907,25.7651 35.991,25.4131 C37.877,17.5301 37.877,9.5371 35.991,1.6541 Z" id="Fill-1" fill="#808285" mask="url(#mask-2)"></path>
    </g>
</svg>