<?xml version="1.0" encoding="UTF-8"?>
<svg width="57px" height="39px" viewBox="0 0 57 39" version="1.1" xmlns="http://www.w3.org/2000/svg" xmlns:xlink="http://www.w3.org/1999/xlink">
    <title>icon-rate-match</title>
    <defs>
        <path d="M24.5673461,27.7110906 C24.2355491,27.3780732 24.2355491,26.8360187 24.5673461,26.5030013 C24.9005795,26.1685421 25.4406475,26.1699838 25.7710082,26.5015596 L31.3354317,32.0864501 L41.6527403,21.7701165 C41.9845374,21.4385407 42.5246053,21.437099 42.8564024,21.7729998 C43.1881994,22.1074589 43.1867631,22.6509549 42.8535297,22.9825308 L31.93439,33.9000258 C31.774955,34.0614888 31.5623751,34.1494285 31.3339953,34.1494285 C31.1056155,34.1494285 30.8915992,34.0600472 30.7321643,33.8985842 L24.5673461,27.7110906 Z M55.7950515,14.2707359 L11.6272607,14.2707359 L11.6272607,11.7983335 C11.6272607,10.5383453 12.6499425,9.51190178 13.9053132,9.51190178 L53.5184353,9.51190178 C54.773806,9.51190178 55.7950515,10.5383453 55.7950515,11.7983335 L55.7950515,14.2707359 Z M55.7950515,35.1037903 C55.7950515,36.3637785 54.773806,37.3887803 53.5184353,37.3887803 L13.9053132,37.3887803 C12.6499425,37.3887803 11.6272607,36.3637785 11.6272607,35.1037903 L11.6272607,16.0093467 L55.7950515,16.0093467 L55.7950515,35.1037903 Z M9.9237485,11.7983335 L9.9237485,29.5866566 L3.9801284,29.5866566 C2.72475769,29.5866566 1.70351219,28.5616547 1.70351219,27.3016665 L1.70351219,3.99620972 C1.70351219,2.73622152 2.72475769,1.70977804 3.9801284,1.70977804 L43.5946868,1.70977804 C44.8514938,1.70977804 45.8727393,2.73622152 45.8727393,3.99620972 L45.8727393,7.80212374 L13.9053132,7.80212374 C11.7091327,7.80212374 9.9237485,9.59551655 9.9237485,11.7983335 Z M53.5184353,7.80212374 L47.5762515,7.80212374 L47.5762515,3.99620972 C47.5762515,1.79195118 45.789431,0 43.5946868,0 L3.9801284,0 C1.78538419,0 0,1.79195118 0,3.99620972 L0,27.3016665 C0,29.5044834 1.78538419,31.2978763 3.9801284,31.2978763 L9.9237485,31.2978763 L9.9237485,35.1037903 C9.9237485,37.3066072 11.7091327,39.1 13.9053132,39.1 L53.5184353,39.1 C55.7131795,39.1 57.5,37.3066072 57.5,35.1037903 L57.5,11.7983335 C57.5,9.59551655 55.7131795,7.80212374 53.5184353,7.80212374 Z" id="path-1"></path>
    </defs>
    <g id="Page-1" stroke="none" stroke-width="1" fill="none" fill-rule="evenodd">
        <g id="TT-Website-Style-Guide" transform="translate(-89.000000, -10045.000000)">
            <g id="icon-rate-match" transform="translate(89.000000, 10045.000000)">
                <mask id="mask-2" fill="white">
                    <use xlink:href="#path-1"></use>
                </mask>
                <use fill-rule="evenodd" xlink:href="#path-1"></use>
                <g id="Mixin/Fill/gray" mask="url(#mask-2)" fill="#303e60" fill-rule="evenodd">
                    <rect id="Rectangle" x="0" y="0" width="57" height="39"></rect>
                </g>
            </g>
        </g>
    </g>
</svg>
