<?xml version="1.0" encoding="UTF-8"?>
<svg width="45px" height="27px" viewBox="0 0 45 27" version="1.1" xmlns="http://www.w3.org/2000/svg" xmlns:xlink="http://www.w3.org/1999/xlink">
    <!-- Generator: Sketch 50.2 (55047) - http://www.bohemiancoding.com/sketch -->
    <title>icon-experience</title>
    <desc>Created with Sketch.</desc>
    <defs>
        <path d="M25.8165964,10.2386326 C26.653822,11.0660471 27.1740692,12.2210422 27.1740692,13.5004978 C27.1740692,14.7799535 26.653822,15.9349486 25.8165964,16.7882509 L25.7401191,16.8380352 C24.9038997,17.6415533 23.7496956,18.142383 22.4938571,18.142383 C21.2259433,18.142383 20.0345068,17.6156654 19.1852058,16.7882509 C18.3348985,15.9349486 17.8287392,14.7799535 17.8287392,13.5004978 C17.8287392,12.2210422 18.3348985,11.0660471 19.1852058,10.2386326 L19.2475952,10.1888483 C20.0858271,9.37238633 21.2511003,8.88350481 22.4938571,8.88350481 C23.7879343,8.88350481 24.95522,9.39827415 25.8165964,10.2386326 M34.3629394,21.7188848 C31.6620817,23.2731497 28.6190885,24.3415201 25.3728266,24.7168935 C27.4397274,24.2021241 29.2782024,23.1367408 30.749385,21.6810488 C32.8806877,19.598075 34.1737586,16.686691 34.1737586,13.5004978 C34.1737586,10.3262529 32.8806877,7.42781281 30.749385,5.32094258 C29.2782024,3.8911384 27.4014887,2.81181547 25.3728266,2.28509791 C28.6190885,2.68536343 31.6620817,3.73879854 34.3629394,5.29505476 C37.787313,7.29040823 40.6773515,10.1131762 42.692932,13.5004978 C40.6773515,16.8888151 37.787313,19.7235314 34.3629394,21.7188848 M15.7487568,20.2004647 C14.0119161,18.4819117 12.9593464,16.1231331 12.9593464,13.5004978 C12.9593464,8.3060073 17.2450964,4.06538334 22.4938571,4.06538334 C27.7315488,4.06538334 32.0424558,8.33189512 32.0424558,13.5004978 C32.0424558,16.1231331 30.9898861,18.4819117 29.2540517,20.2004647 L29.2399637,20.2004647 C27.5282801,21.8811815 25.1323254,22.9485563 22.4938571,22.9485563 C19.8574014,22.9485563 17.4614467,21.8811815 15.7487568,20.2004647 M10.6509382,21.7188848 C7.20241379,19.7235314 4.32445065,16.8888151 2.30887016,13.5004978 C4.32445065,10.1131762 7.20241379,7.29040823 10.6509382,5.29505476 C13.3407268,3.73879854 16.3827137,2.68536343 19.6169003,2.28509791 C17.5499995,2.82276801 15.6974365,3.8911384 14.2524172,5.32094258 C12.1221207,7.42781281 10.8048991,10.3262529 10.8048991,13.5004978 C10.8048991,16.686691 12.1221207,19.598075 14.2524172,21.6810488 C15.6974365,23.1367408 17.5499995,24.2021241 19.6169003,24.7168935 C16.3827137,24.3415201 13.3407268,23.2731497 10.6509382,21.7188848 M44.8614672,12.9867242 C42.642618,9.05874544 39.3722053,5.76003983 35.4406662,3.4759376 C31.649,1.26850315 27.1992262,0 22.4938571,0 C17.7653436,0 13.3648775,1.26850315 9.54805438,3.4759376 C5.6175215,5.76003983 2.3591842,9.05874544 0.114171696,12.9867242 C-0.0246950574,13.3003651 -0.0508583587,13.6896781 0.114171696,14.0272154 C2.3591842,17.9422502 5.6175215,21.2538998 9.54805438,23.538002 C13.3648775,25.7454364 17.7653436,27 22.4938571,27 C27.1992262,27 31.649,25.7454364 35.4406662,23.538002 C39.3722053,21.2538998 42.642618,17.9422502 44.8614672,14.0272154 C45.0395789,13.7135745 45.0526605,13.3242615 44.8614672,12.9867242" id="path-1"></path>
    </defs>
    <g id="Page-1" stroke="none" stroke-width="1" fill="none" fill-rule="evenodd">
        <g id="Solutions-RezTrip-1800" transform="translate(-878.000000, -6026.000000)">
            <g id="solutions-reztrip-pre-footer-promo" transform="translate(238.000000, 5394.000000)">
                <g id="Group-2" transform="translate(580.000000, 632.000000)">
                    <g id="icon-experience" transform="translate(60.000000, 0.000000)">
                        <mask id="mask-2" fill="white">
                            <use xlink:href="#path-1"></use>
                        </mask>
                        <use id="Fill-1" fill="#FFFFFF" fill-rule="evenodd" xlink:href="#path-1"></use>
                        <g id="Mixin/Fill/Accent-3" mask="url(#mask-2)" fill="#3A75A2" fill-rule="evenodd">
                            <rect id="Box" x="0" y="0" width="45" height="28"></rect>
                        </g>
                    </g>
                </g>
            </g>
        </g>
    </g>
</svg>