<?xml version="1.0" encoding="UTF-8"?>
<svg width="47px" height="34px" viewBox="0 0 47 34" version="1.1" xmlns="http://www.w3.org/2000/svg" xmlns:xlink="http://www.w3.org/1999/xlink">
    <!-- Generator: Sketch 50.2 (55047) - http://www.bohemiancoding.com/sketch -->
    <title>icon-stay</title>
    <desc>Created with Sketch.</desc>
    <defs>
        <path d="M43.3398722,15.307603 C43.24948,15.4058234 43.1228037,15.4616741 42.9897616,15.4616741 L40.5262562,15.4616741 C40.3951238,15.4616741 40.2697206,15.4071073 40.1793284,15.3108129 C40.0895728,15.2145184 40.0418304,15.084842 40.0501058,14.9525976 L40.0634736,14.7202071 L40.0628371,13.4670957 C40.0628371,12.9650808 39.8744139,12.5105711 39.5325787,12.1876638 C39.2111135,11.8326584 38.7502406,11.6445633 38.2428985,11.6445633 L26.2850303,11.6445633 C25.8107896,11.6445633 25.3601018,11.8146834 25.0475485,12.1106283 L25.0208128,12.1472202 C24.6566978,12.5067193 24.4663649,12.9753522 24.4663649,13.4670957 L24.4663649,14.980202 C24.4663649,15.2459746 24.2524792,15.4616741 23.9889414,15.4616741 L22.0525115,15.4616741 C21.9220157,15.4616741 21.7959759,15.4077492 21.7062203,15.3120968 C21.6158281,15.2164443 21.5687223,15.0874098 21.5757245,14.9558074 L21.5871827,14.7234169 L21.5865461,13.4670957 C21.5865461,12.9721424 21.393667,12.5060774 21.0581974,12.1870219 C20.7354591,11.8326584 20.2707669,11.6445633 19.755786,11.6445633 L7.81128565,11.6445633 C7.32304051,11.6445633 6.89463246,11.805696 6.57125758,12.1112702 L6.54961438,12.1433684 C6.18231654,12.5060774 5.99198369,12.9740683 5.99198369,13.4670957 L5.99198369,14.980202 C5.99198369,15.2459746 5.77809794,15.4616741 5.51456015,15.4616741 L3.05169126,15.4616741 C2.91864923,15.4616741 2.79197285,15.4058234 2.7009441,15.307603 C2.61118847,15.2093827 2.56535581,15.0771384 2.57554085,14.9436101 C2.65192861,13.9459999 2.79388255,12.9798459 2.93138052,12.0451481 C2.97021097,11.7472773 3.00713173,11.4892083 3.04341591,11.2311392 C3.11725742,10.7117913 3.19237206,10.1885917 3.2439338,9.63072598 C3.43426665,7.49106395 3.32414096,5.6832967 2.8957329,3.94293554 C2.85499276,3.77923502 2.90337168,3.6052631 3.02177271,3.48585802 C3.14081032,3.3670949 3.31268279,3.31830573 3.47564336,3.36003331 C5.92196157,3.98145331 8.40010801,4.17083233 10.6420889,3.90505973 C12.4715759,3.69577986 14.213217,3.15524718 15.8982038,2.63268946 C18.1306363,1.94065355 20.43882,1.22486503 23.0398234,1.22486503 C25.5631659,1.22486503 27.831246,1.96633207 30.0235749,2.68404648 C32.1624324,3.3844279 34.1835253,4.04564959 36.3828564,4.04564959 C38.7928905,4.04564959 40.8190759,3.82160457 42.5759946,3.36131724 C42.737682,3.31894769 42.9127373,3.36516902 43.033048,3.48585802 C43.1520856,3.60590507 43.199828,3.78116091 43.1584513,3.94678732 C42.7262238,5.6505566 42.6154616,7.45703992 42.8108869,9.6320099 C42.8637218,10.2027148 42.9401096,10.7381118 43.0158608,11.270299 C43.0508718,11.5155288 43.0852463,11.7594746 43.1177111,12.0059883 L43.1832773,12.4919542 C43.2908567,13.2834943 43.401619,14.1019969 43.4652755,14.9436101 C43.4760971,15.0771384 43.430901,15.2093827 43.3398722,15.307603 Z M25.666926,14.7484534 L25.666926,13.4670957 C25.666926,13.2854202 25.7496794,13.1230036 25.8776289,13.0202896 C25.9635651,12.925921 26.095334,12.8559471 26.2850303,12.8559471 L38.2428985,12.8559471 C38.291914,12.8559471 38.385489,12.874564 38.4453261,12.892539 C38.6152889,12.9291309 38.7527869,13.0575234 38.8024389,13.2237918 C38.832994,13.2969755 38.8489081,13.3791468 38.8489081,13.4670957 L38.8489081,14.7484534 C38.8489081,14.8787719 38.8018024,14.9943252 38.7737935,15.0521019 C38.7483309,15.1034589 38.7139564,15.1496802 38.6732163,15.1894819 C38.5548152,15.3120968 38.4128613,15.3717993 38.2428985,15.3717993 L26.2850303,15.3717993 C26.2290126,15.3717993 26.1437129,15.3531824 26.0736908,15.3294298 C25.9279175,15.290912 25.810153,15.1843462 25.7534988,15.0456822 C25.7070296,14.9680047 25.666926,14.8672166 25.666926,14.7484534 Z M7.19190818,14.7484534 L7.19190818,13.4670957 C7.19190818,13.323296 7.24410649,13.1910517 7.32876959,13.0915474 C7.34532028,13.0658689 7.36378065,13.0421163 7.38478729,13.0209315 C7.55029411,12.8559471 7.7399904,12.8559471 7.81128565,12.8559471 L19.755786,12.8559471 C19.8048015,12.8559471 19.8983765,12.874564 19.9582136,12.892539 C20.095075,12.9220693 20.2109298,13.0113021 20.2771325,13.1313491 C20.3382427,13.2237918 20.3738904,13.3393451 20.3738904,13.4670957 L20.3738904,14.7484534 C20.3738904,14.876846 20.3286943,15.0097323 20.2503968,15.1162981 C20.228117,15.1490382 20.2026544,15.1843462 20.1810112,15.2061729 C20.0148678,15.3717993 19.8264447,15.3717993 19.755786,15.3717993 L7.81128565,15.3717993 C7.63495722,15.3717993 7.50509802,15.2973316 7.45735567,15.2652335 C7.43061995,15.2472585 7.40579392,15.2273577 7.38287759,15.204247 C7.33386211,15.1554579 7.29630479,15.0957553 7.2708422,15.031559 C7.22628267,14.9538815 7.19190818,14.8582291 7.19190818,14.7484534 Z M43.3780661,26.4700523 C43.3780661,26.7358249 43.1641804,26.9515244 42.9006426,26.9515244 L3.14081032,26.9515244 C2.87727252,26.9515244 2.66338678,26.7358249 2.66338678,26.4700523 L2.66338678,18.6419578 C2.66338678,18.3761852 2.87727252,18.1604857 3.14081032,18.1604857 L42.9006426,18.1604857 C43.1641804,18.1604857 43.3780661,18.3761852 43.3780661,18.6419578 L43.3780661,26.4700523 Z M40.529439,31.4645229 C40.529439,31.7309374 40.3155533,31.945995 40.0520155,31.945995 L38.154416,31.945995 C37.8902417,31.945995 37.6769925,31.7309374 37.6769925,31.4645229 L37.6769925,30.1318081 C37.6769925,29.8660355 37.8902417,29.650336 38.154416,29.650336 L40.0520155,29.650336 C40.3155533,29.650336 40.529439,29.8660355 40.529439,30.1318081 L40.529439,31.4645229 Z M8.36509695,31.4645229 C8.36509695,31.7309374 8.15121121,31.945995 7.88767342,31.945995 L6.01490002,31.945995 C5.75136222,31.945995 5.53747648,31.7309374 5.53747648,31.4645229 L5.53747648,30.1318081 C5.53747648,29.8660355 5.75136222,29.650336 6.01490002,29.650336 L7.88767342,29.650336 C8.15121121,29.650336 8.36509695,29.8660355 8.36509695,30.1318081 L8.36509695,31.4645229 Z M45.0592335,15.5098213 C44.8657179,15.4571804 44.7263102,15.2889861 44.7078498,15.0880518 C44.6034532,13.8997786 44.4748671,12.8450337 44.3144528,11.8628306 C44.1973249,11.0340567 44.094838,10.268195 44.0044458,9.52736997 C43.765734,6.85359489 44.0878358,4.48988785 44.9866652,2.28602954 C45.0496851,2.13452632 45.0477754,1.95991244 44.9828458,1.8051994 C44.9191893,1.65305422 44.8052442,1.53814288 44.6613806,1.48036622 C44.5003297,1.41937976 44.3169991,1.42579939 44.1654967,1.50283492 C43.7771922,1.69285591 43.1820042,1.95220889 42.531435,2.12040314 C40.7789724,2.60059132 38.7648816,2.83426578 36.3828564,2.83426578 C34.0969525,2.83426578 31.9199012,2.12168707 29.8141451,1.43286098 C27.6606467,0.728627782 25.4339433,0 23.0398234,0 C20.4967473,0 18.2089337,0.701665344 15.9975079,1.37957806 C14.2565034,1.91369112 12.456935,2.46513717 10.5205051,2.68918218 C8.29507483,2.9459673 5.80801648,2.74374902 3.5163835,2.11911921 C2.85117337,1.95092496 2.27380917,1.68900414 1.90905759,1.49962511 C1.7626477,1.42579939 1.58440958,1.41360209 1.42590497,1.46881089 C1.27885852,1.52016792 1.16173061,1.62609178 1.09743757,1.76668163 C0.994950654,1.94578926 0.987311877,2.12040314 1.05478774,2.28667151 C1.97717001,4.52326991 2.29035985,6.82085479 2.03828023,9.51388875 C1.99754008,9.90099232 1.94788804,10.2880959 1.89632629,10.6861128 C1.84731081,11.0597352 1.79829533,11.442345 1.75500893,11.8377941 C1.57358798,12.9548094 1.44118252,14.014048 1.34569781,15.1002491 C1.32851057,15.3063191 1.18210068,15.4770812 0.984129053,15.5258704 C0.40485516,15.6690281 0,16.2005733 0,16.8181415 L0,28.2938686 C0,29.029558 0.609828999,29.650336 1.33169339,29.650336 L3.83275616,29.650336 C4.09693052,29.650336 4.3101797,29.8660355 4.3101797,30.1318081 L4.3101797,32.5642052 C4.3101797,32.8742732 4.60299947,33.1560949 4.92446465,33.1560949 L8.97874534,33.1560949 C9.31230525,33.1560949 9.60385189,32.8800509 9.60385189,32.5642052 L9.60385189,30.1318081 C9.60385189,29.8660355 9.81773764,29.650336 10.0812754,29.650336 L35.9983713,29.650336 C36.2619091,29.650336 36.4757949,29.8660355 36.4757949,30.1318081 L36.4757949,32.5642052 C36.4757949,32.8800509 36.7495177,33.1560949 37.062071,33.1560949 L41.1163517,33.1560949 C41.4371803,33.1560949 41.7293635,32.8742732 41.7293635,32.5642052 L41.7293635,30.1318081 C41.7293635,29.8660355 41.9432492,29.650336 42.206787,29.650336 L44.7097595,29.650336 C45.4316239,29.650336 46.0408163,29.029558 46.0408163,28.2938686 L46.0408163,16.8181415 C46.0408163,16.205709 45.6372343,15.6677442 45.0592335,15.5098213 Z" id="path-1"></path>
    </defs>
    <g id="Page-1" stroke="none" stroke-width="1" fill="none" fill-rule="evenodd">
        <g id="Solutions-RezTrip-1800" transform="translate(-1282.000000, -6024.000000)">
            <g id="solutions-reztrip-pre-footer-promo" transform="translate(238.000000, 5394.000000)">
                <g id="Group-3" transform="translate(997.000000, 630.000000)">
                    <g id="icon-stay" transform="translate(47.000000, 0.000000)">
                        <mask id="mask-2" fill="white">
                            <use xlink:href="#path-1"></use>
                        </mask>
                        <use id="Fill-1" fill="#6D6E70" fill-rule="evenodd" xlink:href="#path-1"></use>
                        <g id="Mixin/Fill/Accent-3" mask="url(#mask-2)" fill="#3A75A2" fill-rule="evenodd">
                            <rect id="Box" x="0" y="0" width="49.2753623" height="34.6938776"></rect>
                        </g>
                    </g>
                </g>
            </g>
        </g>
    </g>
</svg>