<?xml version="1.0" encoding="UTF-8"?>
<svg width="18px" height="18px" viewBox="0 0 18 18" version="1.1" xmlns="http://www.w3.org/2000/svg" xmlns:xlink="http://www.w3.org/1999/xlink">
    <!-- Generator: Sketch 50.2 (55047) - http://www.bohemiancoding.com/sketch -->
    <title>icon-expand</title>
    <desc>Created with Sketch.</desc>
    <defs>
        <path d="M8.99961778,1.52853261 C10.997409,1.52853261 12.8744001,2.30579144 14.285775,3.71586277 C17.1995073,6.63001019 17.1995073,11.3699898 14.285775,14.2826087 C12.872871,15.6942086 10.9958799,16.4714674 8.99808867,16.4714674 C7.00182652,16.4714674 5.1248355,15.6949728 3.71346058,14.2841372 C0.799728276,11.3699898 0.799728276,6.62924592 3.71498969,3.71586277 C5.12636461,2.30579144 7.00335564,1.52853261 8.99961778,1.52853261 M8.99808867,18 C11.4041541,18 13.6664826,17.0637738 15.3668607,15.3640455 C18.8777131,11.8552989 18.8777131,6.14546535 15.3668607,2.63519022 C13.6664826,0.936226223 11.4049187,0 8.99961778,0 C6.59508142,0 4.33428205,0.936226223 2.63390403,2.63519022 C-0.876948431,6.14470109 -0.878477548,11.8552989 2.63237491,15.3648098 C4.33275293,17.064538 6.59431686,18 8.99808867,18 M12.7742429,9 C12.7742429,9.42263927 12.4324853,9.7642663 12.010449,9.7642663 L9.76417625,9.7642663 L9.76417625,12.0096807 C9.76417625,12.4315557 9.42241861,12.773947 8.99961778,12.773947 C8.57681695,12.773947 8.23505932,12.4315557 8.23505932,12.0096807 L8.23505932,9.7642663 L5.98878656,9.7642663 C5.56675029,9.7642663 5.22499266,9.42263927 5.22499266,9 C5.22499266,8.578125 5.56675029,8.2357337 5.98878656,8.2357337 L8.23505932,8.2357337 L8.23505932,5.99108356 C8.23505932,5.56920856 8.57681695,5.22681726 8.99961778,5.22681726 C9.42241861,5.22681726 9.76417625,5.56920856 9.76417625,5.99108356 L9.76417625,8.2357337 L12.010449,8.2357337 C12.4324853,8.2357337 12.7742429,8.578125 12.7742429,9" id="path-1"></path>
    </defs>
    <g id="Page-1" stroke="none" stroke-width="1" fill="none" fill-rule="evenodd">
        <g id="mobile-navigation-small-collapsed" transform="translate(-112.000000, -33.000000)">
            <g id="icon-expand" transform="translate(112.000000, 33.000000)">
                <mask id="mask-2" fill="white">
                    <use xlink:href="#path-1"></use>
                </mask>
                <use id="Fill-1" fill="#F2EEE8" fill-rule="evenodd" xlink:href="#path-1"></use>
                <g id="Mixin/Fill/White" mask="url(#mask-2)" fill="#FFFFFF" fill-rule="evenodd">
                    <rect id="Box" x="0" y="0" width="47" height="44"></rect>
                </g>
            </g>
        </g>
    </g>
</svg>