<?xml version="1.0" encoding="UTF-8"?>
<svg width="20px" height="21px" viewBox="0 0 20 21" version="1.1" xmlns="http://www.w3.org/2000/svg" xmlns:xlink="http://www.w3.org/1999/xlink">
    <!-- Generator: Sketch 50.2 (55047) - http://www.bohemiancoding.com/sketch -->
    <title>icon-custom-web</title>
    <desc>Created with Sketch.</desc>
    <defs></defs>
    <g id="Page-1" stroke="none" stroke-width="1" fill="none" fill-rule="evenodd">
        <g id="TT-Website-Style-Guide" transform="translate(-100.000000, -11027.000000)" fill="#333333">
            <path d="M115.819847,11029.9436 C115.138332,11029.9436 114.582858,11030.499 114.582858,11031.1806 C114.582858,11031.8621 115.138332,11032.4175 115.819847,11032.4175 C116.501362,11032.4175 117.05572,11031.8621 117.05572,11031.1806 C117.05572,11030.499 116.501362,11029.9436 115.819847,11029.9436 Z M115.819847,11032.9072 C114.867287,11032.9072 114.093194,11032.132 114.093194,11031.1806 C114.093194,11030.228 114.867287,11029.4539 115.819847,11029.4539 C116.772406,11029.4539 117.5465,11030.228 117.5465,11031.1806 C117.5465,11032.132 116.772406,11032.9072 115.819847,11032.9072 Z M114.301775,11034.4621 L115.236488,11034.7487 L115.461801,11034.0115 L115.654766,11034.0237 C115.948119,11034.0416 116.235894,11034.0148 116.518093,11033.9423 L116.704366,11033.8943 L117.066874,11034.5736 L117.930201,11034.1152 L117.569924,11033.4359 L117.713811,11033.3088 C117.933547,11033.1136 118.118705,11032.8882 118.267054,11032.6384 L118.36521,11032.4722 L119.10138,11032.6975 L119.38804,11031.7628 L118.65187,11031.5364 L118.663025,11031.3434 C118.680871,11031.0545 118.654101,11030.7634 118.5816,11030.4801 L118.534752,11030.2927 L119.212921,11029.9335 L118.754488,11029.0691 L118.075204,11029.4305 L117.946932,11029.2866 C117.751735,11029.0669 117.526423,11028.8817 117.276571,11028.7333 L117.110375,11028.6352 L117.336803,11027.899 L116.400975,11027.6124 L116.175662,11028.3485 L115.983812,11028.3374 C115.693806,11028.3195 115.402684,11028.3463 115.11937,11028.4188 L114.931981,11028.4656 L114.572819,11027.7864 L113.708377,11028.2448 L114.068655,11028.9241 L113.924767,11029.0524 C113.706147,11029.2464 113.520989,11029.4717 113.372639,11029.7216 L113.274483,11029.8878 L112.538313,11029.6625 L112.251653,11030.5972 L112.986708,11030.8236 L112.975554,11031.0155 C112.958823,11031.3066 112.985592,11031.5966 113.058094,11031.8799 L113.104941,11032.0662 L112.425657,11032.4276 L112.88409,11033.2909 L113.563374,11032.9306 L113.690531,11033.0745 C113.885727,11033.2931 114.109925,11033.4794 114.360892,11033.6278 L114.527088,11033.7259 L114.301775,11034.4621 Z M115.561072,11035.3611 L113.689415,11034.7867 L113.947075,11033.9445 C113.771956,11033.8263 113.607991,11033.6913 113.45741,11033.5419 L112.682201,11033.9535 L111.763104,11032.2246 L112.540544,11031.8108 C112.500389,11031.6033 112.480312,11031.3914 112.480312,11031.1794 L111.639294,11030.9218 L112.213729,11029.0501 L113.054748,11029.3078 C113.172981,11029.1327 113.307946,11028.9687 113.458526,11028.8192 L113.044709,11028.0418 L114.775824,11027.1238 L115.18741,11027.9013 C115.395991,11027.8611 115.625766,11027.8522 115.818731,11027.8421 L116.076391,11027 L117.949163,11027.5744 L117.690388,11028.4155 C117.865507,11028.5337 118.029472,11028.6687 118.180052,11028.8192 L118.958608,11028.4065 L119.875474,11030.1365 L119.099149,11030.5481 C119.139304,11030.7567 119.159382,11030.9686 119.158266,11031.1794 L120.0004,11031.4382 L119.425964,11033.3099 L118.584946,11033.0522 C118.466713,11033.2273 118.330633,11033.3913 118.181168,11033.5419 L118.592754,11034.3193 L116.86387,11035.2362 L116.450053,11034.4587 C116.243702,11034.4989 116.035121,11034.519 115.825424,11034.519 L115.819847,11034.519 L115.561072,11035.3611 Z M106.094595,11033.3868 C104.863184,11033.3868 103.860431,11034.3885 103.860431,11035.621 C103.860431,11036.8524 104.863184,11037.854 106.094595,11037.854 C107.326007,11037.854 108.327644,11036.8524 108.327644,11035.621 C108.327644,11034.3885 107.326007,11033.3868 106.094595,11033.3868 Z M106.094595,11038.3448 C104.593255,11038.3448 103.370766,11037.1223 103.370766,11035.621 C103.370766,11034.1185 104.593255,11032.8961 106.094595,11032.8961 C107.595936,11032.8961 108.818424,11034.1185 108.818424,11035.621 C108.818424,11037.1223 107.595936,11038.3448 106.094595,11038.3448 Z M105.217884,11041.227 L106.971307,11041.227 L106.971307,11040.0224 L107.158695,11039.9778 C107.604859,11039.8685 108.02983,11039.6934 108.422454,11039.4547 L108.586419,11039.3543 L109.438592,11040.2042 L110.677811,11038.965 L109.827869,11038.1128 L109.928256,11037.9489 C110.166954,11037.5562 110.343188,11037.1301 110.451383,11036.6851 L110.495999,11036.4977 L111.700641,11036.4977 L111.700641,11034.7443 L110.495999,11034.7443 L110.451383,11034.5569 C110.343188,11034.1107 110.166954,11033.6858 109.928256,11033.292 L109.827869,11033.1281 L110.677811,11032.2781 L109.438592,11031.0367 L108.586419,11031.8888 L108.422454,11031.7885 C108.028714,11031.5498 107.602628,11031.3735 107.158695,11031.2664 L106.971307,11031.2207 L106.971307,11030.0161 L105.217884,11030.0161 L105.217884,11031.2207 L105.030495,11031.2664 C104.585447,11031.3735 104.160476,11031.5498 103.766736,11031.7885 L103.601656,11031.8888 L102.751714,11031.0367 L101.511379,11032.2781 L102.362436,11033.1269 L102.263165,11033.292 C102.023352,11033.6858 101.848233,11034.1107 101.740038,11034.5569 L101.694306,11034.7443 L100.49078,11034.7443 L100.49078,11036.4977 L101.694306,11036.4977 L101.740038,11036.6851 C101.848233,11037.1301 102.023352,11037.5562 102.26205,11037.9489 L102.362436,11038.1128 L101.510264,11038.965 L102.751714,11040.2042 L103.601656,11039.3543 L103.766736,11039.4547 C104.158245,11039.6934 104.584331,11039.8685 105.030495,11039.9778 L105.217884,11040.0224 L105.217884,11041.227 Z M107.460971,11041.7167 L104.727104,11041.7167 L104.727104,11040.4039 C104.362365,11040.3001 104.011011,11040.1551 103.678619,11039.97 L102.751714,11040.8969 L100.817595,11038.965 L101.746731,11038.0359 C101.561573,11037.7046 101.41657,11037.3532 101.312836,11036.9874 L100,11036.9874 L100,11034.2535 L101.312836,11034.2535 C101.41657,11033.8899 101.561573,11033.5374 101.746731,11033.205 L100.817595,11032.2781 L102.751714,11030.344 L103.679735,11031.2731 C104.012126,11031.088 104.36348,11030.943 104.727104,11030.8392 L104.727104,11029.5264 L107.460971,11029.5264 L107.460971,11030.8392 C107.82571,11030.943 108.177064,11031.088 108.509456,11031.2731 L109.438592,11030.344 L111.37048,11032.2781 L110.444691,11033.205 C110.628733,11033.5374 110.773736,11033.8899 110.877469,11034.2535 L112.190306,11034.2535 L112.190306,11036.9874 L110.877469,11036.9874 C110.773736,11037.3532 110.628733,11037.7046 110.444691,11038.0359 L111.37048,11038.965 L109.438592,11040.8969 L108.509456,11039.97 C108.178179,11040.1551 107.826825,11040.3001 107.460971,11040.4039 L107.460971,11041.7167 Z M113.88015,11042.1539 C113.19752,11042.1539 112.643162,11042.7083 112.643162,11043.3898 C112.643162,11044.0725 113.19752,11044.6268 113.88015,11044.6268 C114.561665,11044.6268 115.117139,11044.0725 115.117139,11043.3898 C115.117139,11042.7083 114.561665,11042.1539 113.88015,11042.1539 Z M113.88015,11045.1176 C112.927591,11045.1176 112.153497,11044.3424 112.153497,11043.3898 C112.153497,11042.4384 112.927591,11041.6632 113.88015,11041.6632 C114.831594,11041.6632 115.606804,11042.4384 115.606804,11043.3898 C115.606804,11044.3424 114.831594,11045.1176 113.88015,11045.1176 Z M112.360963,11046.6714 L113.296792,11046.958 L113.522104,11046.223 L113.71507,11046.2341 C114.002845,11046.2508 114.296198,11046.2241 114.579512,11046.1516 L114.765785,11046.1047 L115.127178,11046.784 L115.990504,11046.3256 L115.631343,11045.6463 L115.774115,11045.518 C115.992735,11045.3239 116.179009,11045.0975 116.327358,11044.8477 L116.425514,11044.6815 L117.161684,11044.9079 L117.448344,11043.9721 L116.712174,11043.7468 L116.724444,11043.5549 C116.741175,11043.2638 116.713289,11042.9727 116.641903,11042.6893 L116.593941,11042.5031 L117.273225,11042.1428 L116.814792,11041.2784 L116.135508,11041.6397 L116.007236,11041.4959 C115.813154,11041.2772 115.587842,11041.0921 115.336875,11040.9426 L115.170679,11040.8445 L115.397107,11040.1083 L114.461279,11039.8216 L114.235966,11040.5578 L114.044116,11040.5466 C113.751878,11040.5299 113.461872,11040.5567 113.178558,11040.6281 L112.992285,11040.676 L112.633123,11039.9956 L111.768681,11040.4552 L112.128958,11041.1333 L111.98507,11041.2616 C111.768681,11041.4557 111.582408,11041.681 111.432943,11041.932 L111.334787,11042.0971 L110.598617,11041.8717 L110.311957,11042.8076 L111.048127,11043.0329 L111.035857,11043.2247 C111.019126,11043.5147 111.047011,11043.8059 111.118398,11044.0903 L111.165245,11044.2766 L110.484845,11044.6368 L110.944394,11045.5013 L111.622562,11045.141 L111.750835,11045.2838 C111.946031,11045.5035 112.171344,11045.6887 112.422311,11045.8381 L112.587391,11045.9363 L112.360963,11046.6714 Z M113.621376,11047.5704 L111.749719,11046.9959 L112.007379,11046.1549 C111.832259,11046.0367 111.668294,11045.9017 111.517714,11045.7511 L110.741389,11046.1638 L109.823408,11044.435 L110.600848,11044.0211 C110.561808,11043.8126 110.541731,11043.6017 110.541731,11043.3898 L109.699597,11043.1322 L110.274033,11041.2605 L111.115051,11041.5182 C111.2344,11041.3419 111.369365,11041.1791 111.518829,11041.0285 L111.105013,11040.2522 L112.836128,11039.3331 L113.247714,11040.1116 C113.45518,11040.0715 113.664876,11040.0514 113.875689,11040.0514 L113.879035,11040.0514 L114.136695,11039.2104 L116.008351,11039.7837 L115.750691,11040.6258 C115.926926,11040.7441 116.089776,11040.879 116.240356,11041.0285 L117.018912,11040.6158 L117.934662,11042.3469 L117.159453,11042.7585 C117.198492,11042.9671 117.21857,11043.1779 117.21857,11043.3898 L118.060704,11043.6475 L117.486268,11045.5191 L116.64525,11045.2615 C116.525901,11045.4366 116.390936,11045.6006 116.240356,11045.7511 L116.653057,11046.5286 L114.924173,11047.4454 L114.511472,11046.6691 C114.30289,11046.7093 114.097655,11046.7338 113.879035,11046.7294 L113.621376,11047.5704 Z" id="icon-custom-web"></path>
        </g>
    </g>
</svg>