<svg xmlns="http://www.w3.org/2000/svg" xmlns:xlink="http://www.w3.org/1999/xlink" width="23" height="17" viewBox="0 0 23 17"><defs><path id="qmdla" d="M1090.77 3775.67s-.23-1.67-.91-2.4c-.88-.96-1.86-.97-2.3-1.03-3.23-.24-8.05-.24-8.05-.24h-.01s-4.83 0-8.05.24c-.45.06-1.43.07-2.3 1.03-.7.73-.92 2.4-.92 2.4s-.23 1.95-.23 3.9v1.84c0 1.96.23 3.92.23 3.92s.22 1.66.91 2.4c.88.96 2.03.93 2.54 1.03 1.84.18 7.82.24 7.82.24s4.83 0 8.05-.25c.45-.06 1.43-.06 2.3-1.03.7-.73.92-2.4.92-2.4s.23-1.95.23-3.9v-1.84c0-1.96-.23-3.91-.23-3.91zM1077 3784v-7l6 3.51z"/></defs><g><g transform="translate(-1068 -3772)"><use fill="#3a75a2" xlink:href="#qmdla"/></g></g></svg>
