<?xml version="1.0" encoding="UTF-8"?>
<svg width="44px" height="44px" viewBox="0 0 44 44" version="1.1" xmlns="http://www.w3.org/2000/svg" xmlns:xlink="http://www.w3.org/1999/xlink">
    <title>icon-express-suite</title>
    <defs>
        <path d="M41.377,7.9281 L1.725,7.9281 L1.725,4.51375 C1.725,2.9762 2.97505,1.725 4.5126,1.725 L38.58825,1.725 C40.1258,1.725 41.377,2.9762 41.377,4.51375 L41.377,7.9281 Z M41.377,23.80155 C41.377,25.3391 40.1258,26.5903 38.58825,26.5903 L27.1607,26.5903 L23.29095,23.69575 C22.98505,23.46805 22.56645,23.46575 22.2617,23.69345 L18.3448,26.5903 L4.51375,26.5903 C2.97505,26.5903 1.725,25.3391 1.725,23.80155 L1.725,9.6531 L41.377,9.6531 L41.377,23.80155 Z M32.11605,32.4507 L26.60065,32.4507 C26.3373,32.4507 26.0889,32.5703 25.9256,32.77615 C25.7623,32.98315 25.70135,33.25225 25.76115,33.5087 L27.6552,41.64955 L17.71575,41.64955 L19.4051,33.62715 C19.458,33.37185 19.3936,33.1085 19.2303,32.9061 C19.067,32.7037 18.8209,32.5864 18.561,32.5864 L13.13645,32.5864 L18.9129,28.3153 L21.2451,26.5903 L22.77115,25.46215 L24.2811,26.5903 L26.58685,28.3153 L32.11605,32.4507 Z M38.58825,0 L4.5126,0 C2.024,0 0,2.02515 0,4.51375 L0,23.80155 C0,26.29015 2.024,28.3153 4.51375,28.3153 L16.01145,28.3153 L10.0073,32.75545 C9.70715,32.9774 9.5841,33.3661 9.70025,33.71915 C9.81755,34.07335 10.1476,34.3114 10.51905,34.3114 L17.49725,34.3114 L15.80905,42.33495 C15.755,42.5891 15.8194,42.8536 15.9827,43.056 C16.14715,43.25725 16.3921,43.37455 16.652,43.37455 L28.74195,43.37455 C29.0053,43.37455 29.2537,43.25495 29.41815,43.0491 C29.58145,42.8421 29.64125,42.573 29.5826,42.31655 L27.6874,34.1757 L34.71045,34.1757 C35.0819,34.1757 35.41195,33.93765 35.52925,33.58575 C35.6454,33.2327 35.52465,32.84515 35.2268,32.62205 L29.4676,28.3153 L38.58825,28.3153 C41.07685,28.3153 43.102,26.29015 43.102,23.80155 L43.102,4.51375 C43.102,2.02515 41.07685,0 38.58825,0 Z" id="path-1"></path>
    </defs>
    <g id="Page-1" stroke="none" stroke-width="1" fill="none" fill-rule="evenodd">
        <g id="TT-Website-Style-Guide" transform="translate(-96.000000, -9959.000000)">
            <g id="icon-express-suite" transform="translate(96.000000, 9959.000000)">
                <mask id="mask-2" fill="white">
                    <use xlink:href="#path-1"></use>
                </mask>
                <use fill-rule="evenodd" xlink:href="#path-1"></use>
                <g id="Mixin/Fill/gray" mask="url(#mask-2)" fill="#3a75a2" fill-rule="evenodd">
                    <rect id="Rectangle" x="0" y="0" width="54" height="51"></rect>
                </g>
            </g>
        </g>
    </g>
</svg>
