<?xml version="1.0" encoding="UTF-8"?>
<svg width="52px" height="35px" viewBox="0 0 52 35" version="1.1" xmlns="http://www.w3.org/2000/svg" xmlns:xlink="http://www.w3.org/1999/xlink">
    <!-- Generator: Sketch 50.2 (55047) - http://www.bohemiancoding.com/sketch -->
    <title>icon-meta</title>
    <desc>Created with Sketch.</desc>
    <defs></defs>
    <g id="Page-1" stroke="none" stroke-width="1" fill="none" fill-rule="evenodd">
        <g id="TT-Website-Style-Guide" transform="translate(-617.000000, -10307.000000)" fill="#838383">
            <path d="M660.356594,10330.9069 L660.356594,10332.9548 C660.67166,10332.8928 660.917118,10332.7663 661.091748,10332.5754 C661.260272,10332.3857 661.346976,10332.1643 661.346976,10331.9102 C661.346976,10331.6414 661.260272,10331.4323 661.095412,10331.2839 C660.92933,10331.1343 660.683872,10331.0079 660.356594,10330.9069 Z M659.760656,10329.5194 L659.760656,10327.7305 C659.500544,10327.8059 659.292942,10327.9105 659.145179,10328.037 C658.999858,10328.1659 658.925365,10328.358 658.925365,10328.617 C658.925365,10328.8627 658.994973,10329.05 659.132967,10329.1764 C659.268518,10329.3017 659.478562,10329.4136 659.760656,10329.5194 Z M660.356594,10326.3126 L660.356594,10326.8185 C660.69242,10326.8525 660.979399,10326.9206 661.21753,10327.024 C661.458104,10327.1261 661.665705,10327.283 661.842777,10327.4897 C661.985656,10327.6503 662.09312,10327.8156 662.171276,10327.9822 C662.24821,10328.1488 662.286067,10328.3045 662.286067,10328.4456 C662.286067,10328.6012 662.228671,10328.7338 662.11388,10328.8493 C662.00031,10328.9612 661.861095,10329.0183 661.699898,10329.0183 C661.39216,10329.0183 661.194328,10328.8542 661.102739,10328.5234 C661.000159,10328.1343 660.749816,10327.8777 660.356594,10327.7475 L660.356594,10329.6908 C660.742489,10329.7979 661.05267,10329.8927 661.284695,10329.9827 C661.513057,10330.0703 661.720658,10330.1943 661.900173,10330.3621 C662.09312,10330.5311 662.243326,10330.7367 662.348348,10330.9762 C662.45337,10331.2134 662.50588,10331.4748 662.50588,10331.7582 C662.50588,10332.1121 662.421619,10332.4453 662.255538,10332.7554 C662.090677,10333.0655 661.842777,10333.3184 661.515499,10333.5154 C661.191885,10333.7124 660.802327,10333.8279 660.356594,10333.8632 L660.356594,10334.3168 C660.356594,10334.498 660.337055,10334.6342 660.299199,10334.7193 C660.266227,10334.7996 660.18685,10334.8434 660.068395,10334.8434 C659.953603,10334.8434 659.873005,10334.8105 659.829042,10334.7412 C659.783859,10334.6731 659.760656,10334.5661 659.760656,10334.425 L659.760656,10333.8742 C659.395522,10333.8328 659.075571,10333.7477 658.799583,10333.6176 C658.524817,10333.4874 658.297676,10333.3257 658.114498,10333.1311 C657.933763,10332.9341 657.79699,10332.731 657.709065,10332.5207 C657.623582,10332.3115 657.578398,10332.1048 657.578398,10331.9029 C657.578398,10331.7533 657.637015,10331.6195 657.754249,10331.4991 C657.871482,10331.3788 658.014361,10331.318 658.191433,10331.318 C658.334312,10331.318 658.450324,10331.3508 658.550461,10331.4165 C658.646935,10331.4833 658.712879,10331.5721 658.751957,10331.6925 C658.834998,10331.9467 658.908269,10332.1437 658.970549,10332.2811 C659.03283,10332.4136 659.130524,10332.5389 659.257528,10332.652 C659.380867,10332.7627 659.553055,10332.8478 659.760656,10332.9086 L659.760656,10330.733 C659.343011,10330.6199 658.99253,10330.4886 658.710437,10330.3487 C658.427122,10330.2065 658.199981,10330.0058 658.026573,10329.7431 C657.849501,10329.4817 657.761576,10329.146 657.761576,10328.7338 C657.761576,10328.1975 657.933763,10327.7573 658.276916,10327.4156 C658.617627,10327.0738 659.113428,10326.8756 659.760656,10326.8185 L659.760656,10326.3223 C659.760656,10326.0608 659.858351,10325.9295 660.056183,10325.9295 C660.256457,10325.9295 660.356594,10326.0572 660.356594,10326.3126 Z M660.041529,10337.4202 C659.488332,10337.4202 659.041378,10337.8665 659.041378,10338.4162 C659.041378,10338.9659 659.488332,10339.4134 660.041529,10339.4134 C660.592283,10339.4134 661.042901,10338.9659 661.042901,10338.4162 C661.042901,10337.8665 660.592283,10337.4202 660.041529,10337.4202 Z M654.985822,10340.3218 L665.097236,10340.3218 L665.097236,10323.5411 L654.985822,10323.5411 L654.985822,10340.3218 Z M665.939853,10342 L654.143204,10342 C653.677932,10342 653.300586,10341.6242 653.300586,10341.1609 L653.300586,10322.7008 C653.300586,10322.2375 653.677932,10321.8629 654.143204,10321.8629 L665.939853,10321.8629 C666.405125,10321.8629 666.782471,10322.2375 666.782471,10322.7008 L666.782471,10341.1609 C666.782471,10341.6242 666.405125,10342 665.939853,10342 Z M668.131881,10336.6517 L667.726447,10336.6517 L667.726447,10338.8893 C668.230797,10338.7689 668.61547,10338.336 668.61547,10337.7972 C668.61547,10337.1649 668.765676,10336.6517 668.131881,10336.6517 Z M617.757989,10336.6517 C617.124194,10336.6517 617.329353,10337.1649 617.329353,10337.7972 C617.329353,10338.4284 617.844693,10338.9416 618.478488,10338.9416 L652.412784,10338.9416 L652.412784,10336.6517 L617.757989,10336.6517 Z M624.760265,10331.5393 L624.760265,10309.2899 L661.184558,10309.2899 L661.184558,10321.0178 L663.482829,10321.0178 L663.482829,10308.1455 C663.482829,10307.5144 662.967489,10307 662.333693,10307 L623.61113,10307 C622.977335,10307 622.461995,10307.5144 622.461995,10308.1455 L622.461995,10332.6836 C622.461995,10333.3148 622.977335,10333.8279 623.61113,10333.8279 L652.412784,10333.8279 L652.412784,10331.5393 L624.760265,10331.5393 Z M643.426082,10321.1637 L643.426082,10324.1151 C643.879142,10324.0263 644.233285,10323.8439 644.48485,10323.5691 C644.729087,10323.2955 644.852426,10322.9769 644.852426,10322.6108 C644.852426,10322.2217 644.729087,10321.9201 644.492177,10321.7073 C644.251603,10321.4932 643.896238,10321.3096 643.426082,10321.1637 Z M642.566368,10319.1644 L642.566368,10316.5851 C642.191464,10316.6946 641.892273,10316.8454 641.679787,10317.0266 C641.469743,10317.2139 641.3635,10317.4911 641.3635,10317.8632 C641.3635,10318.2183 641.463637,10318.4871 641.66269,10318.6695 C641.859301,10318.8495 642.160934,10319.0124 642.566368,10319.1644 Z M643.426082,10314.5409 L643.426082,10315.2706 C643.910893,10315.3204 644.323653,10315.4177 644.666806,10315.5673 C645.014844,10315.7144 645.314034,10315.9394 645.568041,10316.2398 C645.774421,10316.4708 645.929512,10316.7092 646.041861,10316.9475 C646.152989,10317.1895 646.207942,10317.4133 646.207942,10317.6152 C646.207942,10317.8401 646.124901,10318.0323 645.960041,10318.1977 C645.795181,10318.3606 645.594907,10318.4421 645.361661,10318.4421 C644.91837,10318.4421 644.632613,10318.205 644.501946,10317.7295 C644.354183,10317.1676 643.993933,10316.798 643.426082,10316.6107 L643.426082,10319.4125 C643.982942,10319.5658 644.429896,10319.702 644.76328,10319.8321 C645.093,10319.9573 645.39219,10320.1373 645.651082,10320.3781 C645.929512,10320.6225 646.145662,10320.9193 646.297089,10321.2634 C646.447294,10321.6063 646.523008,10321.9821 646.523008,10322.3919 C646.523008,10322.9015 646.403332,10323.3806 646.162758,10323.8269 C645.925848,10324.2756 645.568041,10324.6405 645.096663,10324.9226 C644.628949,10325.2072 644.069647,10325.375 643.426082,10325.4248 L643.426082,10326.0779 C643.426082,10326.3405 643.397995,10326.5375 643.343041,10326.6579 C643.295415,10326.7747 643.181845,10326.8379 643.009658,10326.8379 C642.844798,10326.8379 642.727564,10326.7905 642.666505,10326.6908 C642.600561,10326.5923 642.566368,10326.4378 642.566368,10326.2347 L642.566368,10325.4419 C642.040037,10325.3823 641.580871,10325.2582 641.181543,10325.0722 C640.785879,10324.8837 640.459823,10324.6502 640.194826,10324.3705 C639.933492,10324.0859 639.736881,10323.7928 639.609878,10323.49 C639.486538,10323.1885 639.420594,10322.8917 639.420594,10322.5999 C639.420594,10322.3846 639.507299,10322.1913 639.675822,10322.0186 C639.844346,10321.8435 640.050726,10321.7571 640.304732,10321.7571 C640.511113,10321.7571 640.679636,10321.8046 640.823736,10321.8982 C640.96173,10321.9943 641.056983,10322.122 641.113157,10322.2971 C641.232833,10322.6631 641.339076,10322.9465 641.428223,10323.1447 C641.518591,10323.3356 641.659027,10323.5156 641.840984,10323.6785 C642.020498,10323.8391 642.267177,10323.9607 642.566368,10324.0482 L642.566368,10320.9144 C641.964323,10320.7502 641.459974,10320.5617 641.05454,10320.3599 C640.644222,10320.1543 640.318166,10319.8649 640.067823,10319.4867 C639.812595,10319.1097 639.685592,10318.6257 639.685592,10318.0323 C639.685592,10317.2601 639.933492,10316.6253 640.428072,10316.1315 C640.92021,10315.639 641.634603,10315.3533 642.566368,10315.2706 L642.566368,10314.5567 C642.566368,10314.1785 642.708025,10313.99 642.992561,10313.99 C643.281982,10313.99 643.426082,10314.1737 643.426082,10314.5409 Z" id="icon-meta"></path>
        </g>
    </g>
</svg>