<svg xmlns="http://www.w3.org/2000/svg" xmlns:xlink="http://www.w3.org/1999/xlink" width="50" height="34" viewBox="0 0 50 34"><defs><path id="yhhea" d="M988.54 1167.78c1.9 0 3.46 1.56 3.46 3.48v20.27a3.47 3.47 0 0 1-3.46 3.47h-34.45a3.47 3.47 0 0 1-3.46-3.47v-3.31h-5.17a3.47 3.47 0 0 1-3.46-3.48v-20.27a3.47 3.47 0 0 1 3.46-3.47h34.45c1.9 0 3.46 1.56 3.46 3.47v3.31zm-37.91 3.48a3.47 3.47 0 0 1 3.46-3.48h27.8v-3.3c0-1.1-.89-2-1.98-2h-34.45c-1.1 0-1.98.9-1.98 2v20.26c0 1.1.89 1.99 1.98 1.99h5.17zm39.89 3.66h-38.4v16.6c0 1.1.88 2 1.97 2h34.45c1.09 0 1.98-.9 1.98-2zm0-3.66c0-1.1-.9-1.99-1.98-1.99h-34.45c-1.09 0-1.98.9-1.98 1.99v2.15h38.4zm-27.16 13.84a.75.75 0 0 1 0-1.05.74.74 0 0 1 1.05 0l4.83 4.86 8.97-8.98a.74.74 0 0 1 1.05 0c.28.3.28.77 0 1.06l-9.5 9.5a.73.73 0 0 1-1.04 0z"/></defs><g><g transform="translate(-942 -1161)"><use fill="#838383" xlink:href="#yhhea"/></g></g></svg>