<?xml version="1.0" encoding="UTF-8"?>
<svg width="39px" height="24px" viewBox="0 0 39 24" version="1.1" xmlns="http://www.w3.org/2000/svg" xmlns:xlink="http://www.w3.org/1999/xlink">
    <!-- Generator: Sketch 50.2 (55047) - http://www.bohemiancoding.com/sketch -->
    <title>icon-webinar</title>
    <desc>Created with Sketch.</desc>
    <defs>
        <path d="M39.329944,24.1027184 C39.329944,24.5974269 38.9273708,25 38.4326624,25 L1.89728159,25 C1.40257315,25 1,24.5974269 1,24.1027184 C1,23.60801 1.40257315,23.2046068 1.89728159,23.2046068 L38.4326624,23.2046068 C38.9273708,23.2046068 39.329944,23.60801 39.329944,24.1027184 Z M6.40444076,19.3764266 L33.486408,19.3764266 L33.486408,2.79456319 L6.40444076,2.79456319 L6.40444076,19.3764266 Z M5.50715916,21.1709898 L34.3845196,21.1709898 C34.8792281,21.1709898 35.2818012,20.7684167 35.2818012,20.2737082 L35.2818012,1.89728159 C35.2818012,1.40257315 34.8792281,1 34.3845196,1 L5.50715916,1 C5.01245072,1 4.60904752,1.40257315 4.60904752,1.89728159 L4.60904752,20.2737082 C4.60904752,20.7684167 5.01245072,21.1709898 5.50715916,21.1709898 Z M31.8976966,17.660718 L7.73251712,17.5860137 L7.77318946,4.38493463 L31.938369,4.45963893 L31.8976966,17.660718 Z M32.1915335,3.95663001 L7.52334509,3.88026562 C7.38140693,3.88026562 7.27101058,3.99066196 7.27018054,4.13177008 L7.2278481,17.8366881 C7.2278481,17.9753061 7.33990454,18.0890226 7.47935256,18.0890226 L32.147541,18.165387 C32.286989,18.1662171 32.3998755,18.0533306 32.4007055,17.9138825 L32.443038,4.20896452 C32.443868,4.07034654 32.3309815,3.95663001 32.1915335,3.95663001 Z" id="path-1"></path>
    </defs>
    <g id="Page-1" stroke="none" stroke-width="1" fill="none" fill-rule="evenodd">
        <g id="TT-Navigation" transform="translate(-845.000000, -2756.000000)">
            <g id="icon-webinar" transform="translate(844.000000, 2755.000000)">
                <mask id="mask-2" fill="white">
                    <use xlink:href="#path-1"></use>
                </mask>
                <use id="Fill-1" fill="#808285" fill-rule="evenodd" xlink:href="#path-1"></use>
                <g id="Mixin/Fill/Primary" mask="url(#mask-2)" fill="#303E60" fill-rule="evenodd">
                    <rect id="Box" x="0" y="0" width="40" height="26"></rect>
                </g>
            </g>
        </g>
    </g>
</svg>