<?xml version="1.0" encoding="UTF-8"?>
<svg width="18px" height="18px" viewBox="0 0 18 18" version="1.1" xmlns="http://www.w3.org/2000/svg" xmlns:xlink="http://www.w3.org/1999/xlink">
    <title>icon-time</title>
    <defs></defs>
    <g id="Page-1" stroke="none" stroke-width="1" fill="none" fill-rule="evenodd">
        <g id="TT-Website-Style-Guide" transform="translate(-101.000000, -11356.000000)" fill="#4A4A4A">
            <path d="M110.466555,11365.158 L110.466555,11358.9871 L109.535452,11358.9871 L109.535452,11364.842 L107.545819,11367.4317 L108.285284,11367.9987 L110.466555,11365.158 Z M110.001003,11356.9312 C105.551171,11356.9312 101.931104,11360.5504 101.931104,11364.9995 C101.931104,11369.4486 105.551171,11373.0678 110.001003,11373.0678 C114.449833,11373.0678 118.068896,11369.4486 118.068896,11364.9995 C118.068896,11360.5504 114.449833,11356.9312 110.001003,11356.9312 Z M110.001003,11374 C105.037458,11374 101,11369.9623 101,11364.9995 C101,11360.0367 105.037458,11356 110.001003,11356 C114.962542,11356 119,11360.0367 119,11364.9995 C119,11369.9623 114.962542,11374 110.001003,11374 Z" id="icon-time"></path>
        </g>
    </g>
</svg>
