<?xml version="1.0" encoding="UTF-8"?>
<svg width="27px" height="18px" viewBox="0 0 27 18" version="1.1" xmlns="http://www.w3.org/2000/svg" xmlns:xlink="http://www.w3.org/1999/xlink">
    <!-- Generator: Sketch 50.2 (55047) - http://www.bohemiancoding.com/sketch -->
    <title>icon-acct-mgmt</title>
    <desc>Created with Sketch.</desc>
    <defs></defs>
    <g id="Page-1" stroke="none" stroke-width="1" fill="none" fill-rule="evenodd">
        <g id="TT-Website-Style-Guide" transform="translate(-816.000000, -11137.000000)" fill="#4A4A4A">
            <path d="M836.678704,11139.9963 L839.776852,11146.5204 L841.880556,11145.5213 L838.782407,11138.9963 L836.678704,11139.9963 Z M829.211111,11152.5222 C829.265741,11152.4074 829.333333,11152.2648 829.430556,11152.0787 C829.514815,11151.9139 829.581481,11151.7935 829.632407,11151.7 C829.737963,11151.5093 829.737963,11151.5046 829.739815,11151.463 C829.750926,11151.2167 829.591667,11151.0287 829.588889,11151.0269 C829.523148,11150.9519 829.390741,11150.8296 829.194444,11150.8102 C828.989815,11150.788 828.834259,11150.8944 828.782407,11150.9287 C828.688889,11150.9917 828.630556,11151.0667 828.383333,11151.6019 C828.012037,11152.4046 827.955556,11152.6352 827.95,11152.7019 C827.967593,11152.7481 828.05,11152.9519 828.235185,11153.0315 C828.384259,11153.0944 828.543519,11153.0574 828.650926,11153.0315 C828.82963,11152.9889 828.952778,11152.9019 828.998148,11152.8657 C829.069444,11152.8083 829.085185,11152.7824 829.211111,11152.5222 Z M827.106481,11152.0435 C827.135185,11152.0204 827.138889,11152.0176 827.2,11151.8667 C827.239815,11151.7713 827.288889,11151.6491 827.367593,11151.488 C827.476852,11151.2639 827.541667,11151.1657 827.624074,11151.0389 C827.694444,11150.9333 827.780556,11150.8019 827.933333,11150.5231 C828.225926,11149.9926 828.247222,11149.8565 828.249074,11149.8435 C828.248148,11149.7694 828.230556,11149.5269 828.030556,11149.3556 C827.917593,11149.2611 827.765741,11149.2065 827.622222,11149.2065 C827.581481,11149.2065 827.540741,11149.2111 827.500926,11149.2204 C827.435185,11149.237 827.307407,11149.4083 826.918519,11149.9454 L826.796296,11150.1157 C826.614815,11150.3667 826.085185,11151.0981 826.075,11151.4287 C826.071296,11151.5259 826.090741,11151.6324 826.097222,11151.6657 L826.098148,11151.6667 C826.126852,11151.7935 826.169444,11151.8685 826.191667,11151.9019 C826.308333,11152.0741 826.55463,11152.1231 826.626852,11152.1343 C826.722222,11152.1454 826.952778,11152.1648 827.106481,11152.0435 Z M825.417593,11150.6611 C825.566667,11150.3815 825.759259,11150.0222 826.060185,11149.562 C826.205556,11149.3389 826.328704,11149.1685 826.426852,11149.0306 C826.662037,11148.7028 826.686111,11148.6574 826.681481,11148.5389 C826.673148,11148.2972 826.516667,11147.9204 826.199074,11147.8417 C826.156481,11147.8315 826.113889,11147.8269 826.07037,11147.8269 C825.882407,11147.8269 825.699074,11147.9194 825.591667,11148.0241 C825.555556,11148.0593 825.547222,11148.0759 825.471296,11148.2343 C825.427778,11148.3287 825.369444,11148.4509 825.27963,11148.6231 C825.22037,11148.737 825.181481,11148.8074 825.140741,11148.875 C824.97963,11149.3333 824.75463,11149.688 824.535185,11149.9454 C824.349074,11150.2935 824.22037,11150.5676 824.227778,11150.7009 L824.228704,11150.7037 C824.234259,11150.8019 824.262963,11151.0454 824.426852,11151.175 C824.576852,11151.2963 824.809259,11151.3009 824.960185,11151.2565 C825.114815,11151.212 825.175926,11151.1176 825.417593,11150.6611 Z M823.567593,11149.7509 C823.633333,11149.6907 823.725,11149.5991 823.825,11149.4907 C823.916667,11149.3213 824.021296,11149.137 824.141667,11148.9231 L824.361111,11148.5454 C824.367593,11148.5361 824.371296,11148.5278 824.376852,11148.5194 C824.406481,11148.4241 824.44537,11148.338 824.462963,11148.2315 C824.508333,11147.9537 824.548148,11147.7148 824.477778,11147.6241 C824.339815,11147.4454 823.773148,11147.462 823.338889,11147.6593 C822.671296,11147.9667 822.324074,11148.7417 822.421296,11149.2713 C822.466667,11149.5287 822.608333,11149.7083 822.624074,11149.7278 C822.791667,11149.9407 822.967593,11150.0611 823.109259,11150.0611 C823.176852,11150.0787 823.32963,11149.9713 823.567593,11149.7509 Z M839.378704,11147.6398 L839.130556,11147.1176 C839.008333,11147.2333 838.885185,11147.3491 838.757407,11147.4917 C838.614815,11147.65 838.489815,11147.8065 838.37963,11147.9528 L837.707407,11147.4491 C837.830556,11147.2843 837.972222,11147.1093 838.132407,11146.9306 C838.324074,11146.7157 838.516667,11146.5287 838.697222,11146.3657 L838.858333,11146.5454 L836.467593,11141.5111 C836.27037,11141.6537 835.977778,11141.8204 835.577778,11141.887 C835.164815,11141.9546 834.840741,11141.8843 834.684259,11141.85 C834.386111,11141.7824 834.038889,11141.6241 833.67963,11141.3926 C833.355556,11141.1843 833.194444,11141.0269 833.075926,11140.9111 C832.978704,11140.8176 832.931481,11140.7704 832.819444,11140.7157 C832.663889,11140.638 832.553704,11140.6278 831.837963,11140.6259 C830.888889,11140.625 830.134259,11140.6222 829.99537,11140.6481 C829.621296,11140.7361 829.257407,11140.9769 828.533333,11141.4565 C827.634259,11142.0509 827.275926,11142.4491 826.959259,11142.8019 C826.725,11143.0611 826.505556,11143.3056 826.135185,11143.5546 C826.07963,11143.5935 826.049074,11143.6204 826.041667,11143.637 C826.039815,11143.6704 826.100926,11143.7907 826.205556,11143.8639 C826.314815,11143.9389 826.512037,11143.9148 826.99537,11143.8296 C827.537037,11143.7343 828.049074,11143.6463 828.566667,11143.2944 C828.652778,11143.2361 828.711111,11143.1889 828.757407,11143.1519 C828.863889,11143.0667 828.973148,11142.9796 829.174074,11142.9324 C829.743519,11142.7991 830.189815,11143.1648 830.619444,11143.5204 C830.707407,11143.5935 830.799074,11143.6685 830.894444,11143.7426 C831.015741,11143.838 831.026852,11143.8435 831.166667,11143.9111 C831.353704,11144.0009 831.707407,11144.1722 832.648148,11144.712 C833.37963,11145.1315 833.705556,11145.338 833.982407,11145.513 C834.216667,11145.662 834.416667,11145.788 834.812963,11146.0111 C835.392593,11146.338 835.875,11146.5796 836.276852,11146.7806 C837.284259,11147.287 837.893519,11147.5917 838.257407,11148.3676 C838.352778,11148.5685 838.641667,11149.1806 838.353704,11149.7657 C838.161111,11150.1574 837.744444,11150.4444 837.293519,11150.4981 C837.249074,11150.5028 837.206481,11150.5056 837.163889,11150.5056 C836.952778,11150.5056 836.749074,11150.4389 836.524074,11150.3361 C836.524074,11150.4009 836.534259,11150.463 836.523148,11150.5324 C836.45,11150.9843 836.140741,11151.2574 836.008333,11151.3741 C835.587963,11151.7472 835.190741,11151.8046 834.941667,11151.813 C834.776852,11151.8093 834.640741,11151.7713 834.517593,11151.7139 C834.50463,11151.8981 834.456481,11152.0769 834.374074,11152.2407 C834.162963,11152.6509 833.749074,11152.9444 833.29537,11153.0065 C833.110185,11153.0361 832.889815,11153.013 832.506481,11152.8454 C832.475926,11153.2324 832.307407,11153.6296 831.962963,11153.8991 C831.753704,11154.062 831.516667,11154.1241 831.275926,11154.1241 C830.784259,11154.1241 830.272222,11153.8694 829.919444,11153.6935 C829.790741,11153.6306 829.667593,11153.5657 829.542593,11153.5009 C829.535185,11153.5083 829.52963,11153.5157 829.521296,11153.5222 C829.410185,11153.6111 829.175,11153.7694 828.843519,11153.8481 C828.755556,11153.8685 828.600926,11153.9056 828.414815,11153.9056 C828.261111,11153.9056 828.084259,11153.8815 827.902778,11153.8028 C827.364815,11153.5713 827.177778,11153.0454 827.14537,11152.9417 L827.143519,11152.9352 C827.009259,11152.9685 826.878704,11152.9833 826.762963,11152.9833 C826.663889,11152.9833 826.575926,11152.975 826.505556,11152.9639 C826.250926,11152.9269 825.784259,11152.8 825.496296,11152.3722 C825.424074,11152.2667 825.382407,11152.1306 825.337963,11151.9963 C825.289815,11152.0185 825.25,11152.0463 825.194444,11152.063 C825.069444,11152.0991 824.924074,11152.1222 824.769444,11152.1222 C824.483333,11152.1222 824.168519,11152.0444 823.902778,11151.8315 C823.621296,11151.6093 823.450926,11151.263 823.405556,11150.8556 C823.318519,11150.8815 823.226852,11150.8991 823.125,11150.9009 L823.108333,11150.9009 C822.817593,11150.9009 822.387963,11150.7861 821.967593,11150.2519 C821.902778,11150.1713 821.673148,11149.862 821.594444,11149.4204 C821.501852,11148.9111 821.627778,11148.3685 821.902778,11147.9009 C821.901852,11147.8991 821.891667,11147.888 821.891667,11147.888 C821.526852,11147.4713 821.243519,11147.1231 821.078704,11146.9176 L821.736111,11146.3935 C821.883333,11146.5778 822.136111,11146.887 822.450926,11147.25 C822.614815,11147.1111 822.791667,11146.987 822.987963,11146.8972 L822.988889,11146.8972 C823.578704,11146.6241 824.640741,11146.4602 825.143519,11147.1102 C825.178704,11147.1565 825.194444,11147.2074 825.22037,11147.2565 C825.518519,11147.0565 825.942593,11146.9111 826.4,11147.0269 C827.059259,11147.1898 827.430556,11147.8102 827.498148,11148.3824 C827.876852,11148.3481 828.275,11148.462 828.573148,11148.7157 C828.893519,11148.9861 829.086111,11149.4037 829.088889,11149.8333 C829.088889,11149.8731 829.087037,11149.9176 829.07963,11149.9694 C829.152778,11149.9657 829.218519,11149.9676 829.277778,11149.9741 C829.764815,11150.0231 830.077778,11150.3074 830.22037,11150.4731 C830.281481,11150.5398 830.605556,11150.9333 830.57963,11151.5019 C830.567593,11151.7435 830.496296,11151.8722 830.369444,11152.1056 C830.32037,11152.1935 830.257407,11152.3065 830.176852,11152.4639 C830.106481,11152.5991 830.055556,11152.7046 830.010185,11152.7972 C830.103704,11152.8444 830.194444,11152.8926 830.289815,11152.9398 C830.573148,11153.0796 831.224074,11153.4046 831.44537,11153.237 C831.691667,11153.0454 831.712037,11152.6639 831.631481,11152.463 C831.612963,11152.4185 831.587963,11152.3741 831.55463,11152.3296 C830.858333,11151.9019 830.785185,11151.8269 830.785185,11151.5898 L830.785185,11151.1907 L831.184259,11151.1704 C831.423148,11151.1787 831.812963,11151.3787 832.102778,11151.6796 C832.222222,11151.7519 832.350926,11151.8269 832.47963,11151.8963 C832.99537,11152.175 833.153704,11152.1741 833.177778,11152.175 C833.362963,11152.15 833.540741,11152.0222 833.625,11151.8583 C833.75463,11151.6037 833.62963,11151.3083 833.568519,11151.1935 C833.50463,11151.0731 833.412037,11150.9639 833.289815,11150.8648 C832.968519,11150.6778 832.735185,11150.5852 832.653704,11150.5528 L832.387037,11150.4491 L832.352778,11149.812 L832.680556,11149.738 C832.923148,11149.6713 833.467593,11149.9472 833.763889,11150.1694 C833.898148,11150.25 834.041667,11150.3417 834.193519,11150.45 C834.362963,11150.5694 834.493519,11150.6722 834.601852,11150.7593 C834.849074,11150.9556 834.923148,11150.9815 834.973148,11150.9731 C835.077778,11150.9731 835.241667,11150.9333 835.45,11150.7454 C835.534259,11150.6731 835.669444,11150.5537 835.694444,11150.3972 C835.721296,11150.2278 835.616667,11150.063 835.505556,11149.9083 C835.417593,11149.7861 835.305556,11149.6713 835.175926,11149.5667 C834.736111,11149.3148 834.439815,11149.188 834.344444,11149.1481 L834.409259,11149.0065 L834.474074,11148.3269 C834.608333,11148.3269 835.138889,11148.4889 835.631481,11148.8593 C835.632407,11148.8593 835.633333,11148.8602 835.634259,11148.8611 L835.791667,11148.9537 C835.937037,11149.0407 836.023148,11149.0954 836.097222,11149.1444 C836.17963,11149.1972 836.24537,11149.2398 836.380556,11149.3139 C836.815741,11149.5556 837.066667,11149.6861 837.193519,11149.6639 C837.337963,11149.6472 837.524074,11149.5481 837.6,11149.3954 C837.709259,11149.1741 837.55463,11148.8481 837.498148,11148.7259 C837.256481,11148.212 836.831481,11147.9991 835.9,11147.5315 C835.487963,11147.325 834.994444,11147.0769 834.401852,11146.7435 C833.987037,11146.5102 833.778704,11146.3787 833.533333,11146.2231 C833.262037,11146.0519 832.94537,11145.8509 832.230556,11145.4407 C831.321296,11144.9194 830.980556,11144.7537 830.8,11144.6657 C830.625926,11144.5815 830.562963,11144.5491 830.380556,11144.4065 C830.276852,11144.3269 830.178704,11144.2463 830.084259,11144.1685 C829.787963,11143.9222 829.525926,11143.7176 829.364815,11143.75 C829.222222,11143.8546 829.149074,11143.9139 829.037963,11143.9889 C828.371296,11144.4426 827.716667,11144.5565 827.139815,11144.6556 C826.551852,11144.7602 826.126852,11144.8315 825.726852,11144.5537 C825.412963,11144.3361 825.122222,11143.8972 825.223148,11143.45 C825.3,11143.1093 825.569444,11142.925 825.657407,11142.8648 C825.950926,11142.6667 826.119444,11142.4787 826.335185,11142.2398 C826.666667,11141.8694 827.082407,11141.4093 828.069444,11140.7556 C828.851852,11140.238 829.283333,11139.9528 829.807407,11139.8296 C830.007407,11139.7833 830.421296,11139.7806 831.839815,11139.7852 C832.569444,11139.787 832.842593,11139.7889 833.193519,11139.963 C833.422222,11140.0769 833.544444,11140.1954 833.662037,11140.3102 C833.760185,11140.4056 833.880556,11140.5231 834.134259,11140.687 C834.50463,11140.925 834.751852,11141.0037 834.866667,11141.0306 C834.994444,11141.0583 835.188889,11141.1028 835.438889,11141.0583 C835.70463,11141.0148 835.901852,11140.8972 836.02037,11140.8056 L836.315741,11141.1917 L835.559259,11139.5981 L839.181481,11137.8769 L843,11145.9194 L839.378704,11147.6398 Z M818.834259,11144.9426 L823.941667,11139.8343 L822.294444,11138.187 L817.187037,11143.2954 L818.834259,11144.9426 Z M825.128704,11139.8343 L818.834259,11146.1296 L816,11143.2954 L822.294444,11137 L825.128704,11139.8343 Z M824.97963,11141.0083 C825.15,11141.0074 825.546296,11140.8407 825.851852,11140.6935 C826.161111,11140.5454 826.352778,11140.438 826.508333,11140.3491 L826.963889,11141.0574 C826.753704,11141.1759 826.547222,11141.2926 826.214815,11141.4509 C825.487963,11141.7991 825.19537,11141.8491 825,11141.8491 C824.982407,11141.8491 824.965741,11141.8481 824.95,11141.8481 C824.578704,11141.8361 824.215741,11141.7046 823.874074,11141.4574 L824.366667,11140.7778 C824.568519,11140.9241 824.775926,11141.0019 824.97963,11141.0083 Z" id="icon-acct-mgmt"></path>
        </g>
    </g>
</svg>