<svg xmlns="http://www.w3.org/2000/svg" xmlns:xlink="http://www.w3.org/1999/xlink" width="26" height="26" viewBox="0 0 26 26"><defs><path id="8xvsa" d="M874.31 2886.12a.7.7 0 0 1 .69.73 13.04 13.04 0 0 1-12.98 12.15 13.04 13.04 0 0 1-13.02-13.02 13.04 13.04 0 0 1 12.2-12.98.7.7 0 0 1 .47.19c.14.12.21.3.21.5v12.43zm-.74 1.37H861.2a.69.69 0 0 1-.69-.69v-12.37l-.53.1c-5.57.98-9.6 5.8-9.6 11.45 0 6.42 5.22 11.65 11.64 11.65 5.65 0 10.47-4.04 11.46-9.6zm-9.07-3.21a.57.57 0 0 1-.57-.57v-9.22c0-.32.26-.57.57-.57a9.8 9.8 0 0 1 9.8 9.79c0 .31-.26.57-.58.57zm.57-1.14h8.06a8.66 8.66 0 0 0-8.06-8.06z"/></defs><g><g transform="translate(-849 -2873)"><use fill="#fff" xlink:href="#8xvsa"/></g></g></svg>
