<?xml version="1.0" encoding="UTF-8"?>
<svg width="41px" height="34px" viewBox="0 0 41 34" version="1.1" xmlns="http://www.w3.org/2000/svg" xmlns:xlink="http://www.w3.org/1999/xlink">
    <!-- Generator: Sketch 50.2 (55047) - http://www.bohemiancoding.com/sketch -->
    <title>icon-parity</title>
    <desc>Created with Sketch.</desc>
    <defs>
        <path d="M37.3430968,20.3143764 C37.401057,20.4902221 37.350103,20.6830243 37.2125271,20.8080003 C36.7271898,21.2482424 36.1641476,21.6037018 35.5393236,21.8643302 C35.5253112,21.8706104 35.5112988,21.8756346 35.4960126,21.8800307 C34.8132284,22.1519634 34.0814009,22.2894999 33.3215487,22.2894999 C32.5508687,22.2894999 31.8088504,22.1469393 31.1165123,21.8662143 L31.0642844,21.8467456 C30.4356389,21.5729288 29.894889,21.2275178 29.4312072,20.8086283 C29.2929944,20.6836523 29.2414034,20.4902221 29.3000006,20.3143764 L32.8667838,13.8777977 C32.9311133,13.6849956 33.1145479,13.5537393 33.3209118,13.5537393 C33.5272756,13.5537393 33.7107102,13.6849956 33.7750397,13.8777977 L37.3430968,20.3143764 Z M27.533169,28.461054 C27.7968562,28.461054 28.0108632,28.6720688 28.0108632,28.9320692 L28.0108632,30.4424577 C28.0108632,30.702458 27.7968562,30.9134728 27.533169,30.9134728 L13.4647567,30.9134728 C13.2010695,30.9134728 12.9870625,30.702458 12.9870625,30.4424577 L12.9870625,28.9320692 C12.9870625,28.6720688 13.2010695,28.461054 13.4647567,28.461054 L27.533169,28.461054 Z M11.699199,20.3143764 C11.7571592,20.4902221 11.7062052,20.6830243 11.5686293,20.8080003 C11.0801074,21.2501265 10.5157913,21.6062139 9.88969344,21.8649582 C9.87568108,21.8706104 9.86230564,21.8756346 9.84829328,21.8800307 C9.16550905,22.1519634 8.43559234,22.2894999 7.67765089,22.2894999 C6.90760787,22.2894999 6.16558956,22.1469393 5.47261453,21.8662143 L5.42357126,21.8498857 C4.79365186,21.5754409 4.25417589,21.2300298 3.78730944,20.8086283 C3.64909659,20.6836523 3.59750562,20.4902221 3.65610277,20.3143764 L7.22288603,13.8777977 C7.28721551,13.6849956 7.47065008,13.5537393 7.67701397,13.5537393 C7.88337786,13.5537393 8.06681242,13.6849956 8.13114191,13.8777977 L11.699199,20.3143764 Z M39.9443009,8.73368456 C40.0385659,8.64136559 40.0895199,8.52078572 40.088883,8.39392565 C40.0876091,8.2708337 40.0385659,8.15590601 39.9493963,8.07049526 C39.8544944,7.9750362 39.737937,7.92605063 39.6124627,7.92605063 L39.6111888,7.92605063 C39.4844406,7.92605063 39.3653355,7.9750362 39.275529,8.06484308 C38.4851044,8.83981997 37.5488238,9.46407201 36.5654107,9.8716571 C36.0227501,10.0939762 35.4775418,10.2610296 34.9431612,10.367793 C33.8979663,10.583832 32.5667919,10.5819479 31.5343355,10.367165 C31.0005919,10.2597736 30.4560205,10.0933482 29.921003,9.8716571 C29.4560473,9.68073897 28.9719839,9.42199466 28.482825,9.10296042 C27.9981247,8.77576191 27.5707476,8.42846676 27.2057892,8.06484308 C26.7828707,7.64720967 26.3077242,7.26160529 25.795636,6.91996232 C25.3083879,6.59213579 24.7695489,6.30638662 24.1918574,6.06773895 C23.6275413,5.82343911 23.0230989,5.63817316 22.3868103,5.51445319 L22.004018,5.44160285 C21.7791833,5.39889748 21.6167673,5.20483924 21.6167673,4.97938 L21.6167673,1.99816827 C21.6167673,1.38961673 21.1148699,0.894736842 20.4970521,0.894736842 C19.8843297,0.894736842 19.3856169,1.38961673 19.3856169,1.99816827 L19.3856169,4.97938 C19.3856169,5.20483924 19.222564,5.39889748 18.9977293,5.44160285 L18.6130262,5.51445319 C17.981833,5.63817316 17.3748429,5.82343911 16.8130745,6.06522687 C16.2392046,6.30199048 15.6997286,6.58836767 15.2029266,6.91996232 C14.7042139,7.25030093 14.2360736,7.63025313 13.8106073,8.0497706 C12.9857887,8.85363641 12.0724374,9.46093191 11.0762858,9.8716571 C10.5419052,10.0933482 9.99733386,10.2597736 9.45976867,10.367793 C8.41648457,10.583832 7.0827624,10.5819479 6.05030603,10.367165 C5.52102087,10.2616576 4.9764495,10.0946043 4.43697353,9.8716571 C3.97201786,9.68073897 3.48795442,9.42199466 2.99879557,9.10296042 C2.53001834,8.78706627 2.1032782,8.43977112 1.72430748,8.06672714 C1.63259019,7.9750362 1.51348511,7.92605063 1.38609999,7.92605063 C1.2593518,7.92605063 1.14024672,7.9750362 1.05044021,8.06484308 C0.863821017,8.24822497 0.865094868,8.54841861 1.05171406,8.73619664 C1.47017417,9.14880589 1.94532066,9.53441027 2.46059345,9.87919334 C2.9472046,10.2038798 3.48731749,10.490885 4.06628284,10.7320447 C4.6700883,10.9832528 5.27835223,11.1691468 5.87324072,11.2853305 L6.05603836,11.3154755 C6.18597118,11.3380842 6.31717785,11.3606929 6.4477476,11.3763934 C6.589782,11.39335 6.71716712,11.4718525 6.79359819,11.5905483 C6.87066618,11.7098721 6.88977395,11.8568288 6.84518916,11.9905971 L2.73765608,20.0669365 C2.69052359,20.2094971 2.57778776,20.3206566 2.43320565,20.3677581 C2.28734969,20.4154877 2.14340451,20.5046665 2.00710244,20.6327827 C1.58418385,21.0529281 1.58354692,21.7512866 2.01665632,22.1802243 C2.75166844,22.8980514 3.60005332,23.4595014 4.53378622,23.8476179 L4.64078972,23.8978595 C6.53882795,24.6784886 8.720935,24.6992132 10.6998628,23.9028837 C10.7119644,23.8972315 10.7247029,23.8909513 10.7380783,23.8859271 C11.6941036,23.5028348 12.5928056,22.9124959 13.3367347,22.1795963 C13.7711179,21.7506585 13.7711179,21.0535562 13.3367347,20.6246184 C13.2118973,20.5052946 13.0673152,20.4148597 12.9220961,20.3677581 C12.778151,20.3206566 12.6647782,20.2094971 12.6176457,20.0669365 L8.51711881,12.0150899 C8.47317095,11.8819497 8.49164179,11.735621 8.56743593,11.6169251 C8.64323008,11.4982293 8.76934134,11.4190988 8.9101019,11.4015142 C9.15404439,11.3707412 9.40117152,11.331804 9.64065554,11.2853305 C10.2431871,11.1678907 10.8508141,10.9819968 11.4463396,10.7320447 C12.5870733,10.2566335 13.6029696,9.58402386 14.4660037,8.73305654 C14.8615345,8.33928789 15.2889116,7.98948066 15.7341226,7.69682326 C16.183792,7.39914171 16.6684924,7.13851334 17.1735744,6.92184638 C17.7181458,6.69575912 18.2582587,6.5331019 18.7824484,6.43450273 C18.897095,6.40686984 19.0193847,6.41817421 19.1257513,6.47281196 C19.2817981,6.55445458 19.3856169,6.71020358 19.3856169,6.88479319 L19.3856169,27.0505207 C19.3856169,27.3105211 19.1716099,27.5215359 18.9079228,27.5215359 L13.2513867,27.5215359 C12.9246438,27.5215359 12.6176457,27.6452558 12.3864417,27.8700871 L12.3450416,27.9209567 C12.1399515,28.1520681 12.032948,28.427769 12.032948,28.7216824 L12.032948,30.4424577 C12.032948,30.702458 11.818941,30.9134728 11.5552538,30.9134728 L7.86108546,30.9134728 C7.24645228,30.9134728 6.74582877,31.4014444 6.74582877,32.0012037 C6.74582877,32.6097552 7.24645228,33.1052632 7.86108546,33.1052632 L33.1368403,33.1052632 C33.7514734,33.1052632 34.25146,32.6097552 34.25146,32.0012037 C34.25146,31.4014444 33.7514734,30.9134728 33.1368403,30.9134728 L29.4464934,30.9134728 C29.1828062,30.9134728 28.9687993,30.702458 28.9687993,30.4424577 L28.9687993,28.7216824 C28.9687993,28.4020201 28.8382295,28.0911501 28.611484,27.8700871 C28.3834646,27.6483959 28.0681865,27.5215359 27.7465391,27.5215359 L22.0944614,27.5215359 C21.8307743,27.5215359 21.6167673,27.3105211 21.6167673,27.0505207 L21.6167673,6.88479319 C21.6167673,6.71020358 21.7142169,6.55005844 21.8702636,6.46904384 C21.9906426,6.40624182 22.1320401,6.39744954 22.2568775,6.44141095 C22.7645072,6.54001012 23.2906077,6.70015526 23.8192559,6.9193343 C24.3294333,7.13851334 24.8141337,7.39914171 25.2644401,7.69745128 C25.7172942,7.99764492 26.1440343,8.34619612 26.5338328,8.73431258 C26.9567513,9.15131797 27.4318978,9.53692235 27.9446229,9.87919334 C28.4216802,10.2007397 28.9611561,10.4871169 29.5503123,10.7320447 C30.1547547,10.9832528 30.7623817,11.1691468 31.3572702,11.2853305 C31.5967542,11.331804 31.8432444,11.3707412 32.0910085,11.4015142 C32.2324059,11.4190988 32.3585172,11.4976013 32.4343113,11.6169251 C32.5107424,11.735621 32.5292133,11.8819497 32.4852654,12.0157179 L28.3815539,20.0669365 C28.3337844,20.2094971 28.2210486,20.3206566 28.0771034,20.3677581 C27.9318844,20.4148597 27.7873023,20.5052946 27.6580064,20.6290145 C27.2280816,21.0535562 27.2280816,21.7506585 27.6624649,22.1795963 C28.3815539,22.8842349 29.2515942,23.4620135 30.177684,23.8476179 L30.280229,23.8940914 C32.2247628,24.6904209 34.4132391,24.6948171 36.3819761,23.8871832 C37.3392753,23.5022068 38.2367034,22.9118678 38.9793586,22.1795963 C39.190181,21.9717216 39.3067384,21.6953928 39.3067384,21.4021074 C39.3067384,21.1088219 39.190181,20.8324931 38.9793586,20.6246184 C38.8602535,20.5071786 38.7137607,20.4154877 38.5672678,20.3665021 C38.4239595,20.3194006 38.3118606,20.208241 38.265365,20.0669365 L34.1527366,11.9912252 C34.1081518,11.8568288 34.1272595,11.7098721 34.2043275,11.5911763 C34.2807586,11.4718525 34.4081437,11.39335 34.5501781,11.3763934 C34.6807479,11.3606929 34.8119545,11.3380842 34.9418874,11.3154755 L35.1399712,11.2821904 C35.7221212,11.1685187 36.3303851,10.9819968 36.9316429,10.7320447 C38.0596381,10.2597736 39.1022853,9.56895138 39.9443009,8.73368456 Z" id="path-1"></path>
    </defs>
    <g id="Page-1" stroke="none" stroke-width="1" fill="none" fill-rule="evenodd">
        <g id="Solutions-RateMatch-1800" transform="translate(-177.000000, -3306.000000)">
            <g id="icon-parity" transform="translate(177.000000, 3306.000000)">
                <mask id="mask-2" fill="white">
                    <use xlink:href="#path-1"></use>
                </mask>
                <use id="Fill-1" fill="#4A4A4A" fill-rule="evenodd" xlink:href="#path-1"></use>
                <g id="Mixin/Fill/gray" mask="url(#mask-2)" fill="#838383" fill-rule="evenodd">
                    <rect id="Rectangle" x="0" y="0" width="41" height="34"></rect>
                </g>
            </g>
        </g>
    </g>
</svg>