<?xml version="1.0" encoding="UTF-8"?>
<svg width="53px" height="37px" viewBox="0 0 53 37" version="1.1" xmlns="http://www.w3.org/2000/svg" xmlns:xlink="http://www.w3.org/1999/xlink">
    <!-- Generator: Sketch 50.2 (55047) - http://www.bohemiancoding.com/sketch -->
    <title>icon-keyword-monitor</title>
    <desc>Created with Sketch.</desc>
    <defs></defs>
    <g id="Page-1" stroke="none" stroke-width="1" fill="none" fill-rule="evenodd">
        <g id="TT-Website-Style-Guide" transform="translate(-617.000000, -10416.000000)" fill="#838383">
            <path d="M653.935486,10441.7269 L656.939163,10441.7269 L656.939163,10425.2958 L653.935486,10425.2958 L653.935486,10441.7269 Z M657.586902,10423.9763 L653.29921,10423.9763 C652.918019,10423.9763 652.627109,10424.2714 652.627109,10424.6353 L652.627109,10442.3745 C652.627109,10442.7428 652.912286,10443.0221 653.274849,10443.0221 L657.551076,10443.0221 C657.950898,10443.0221 658.236075,10442.7428 658.236075,10442.3874 L658.236075,10424.6611 C658.236075,10424.2714 657.945165,10423.9763 657.586902,10423.9763 Z M670,10451.6704 C670,10452.3896 669.390953,10453 668.668695,10453 L618.34277,10453 C617.614779,10453 617,10452.3896 617,10451.6704 C617,10450.9354 617.601882,10450.3393 618.34277,10450.3393 L668.668695,10450.3393 C669.402417,10450.3393 670,10450.9354 670,10451.6704 Z M645.969149,10441.7269 L648.972826,10441.7269 L648.972826,10429.6687 L645.969149,10429.6687 L645.969149,10441.7269 Z M649.633463,10428.372 L645.344338,10428.372 C644.967445,10428.372 644.672237,10428.6514 644.672237,10429.0082 L644.672237,10442.3745 C644.672237,10442.7499 644.961713,10443.0221 645.344338,10443.0221 L649.609101,10443.0221 C650.008923,10443.0221 650.281203,10442.7557 650.281203,10442.3874 L650.281203,10429.0325 C650.281203,10428.6457 650.001758,10428.372 649.633463,10428.372 Z M624.572247,10445.488 L662.437784,10445.488 L662.437784,10418.6607 L624.572247,10418.6607 L624.572247,10445.488 Z M623.230911,10448.1615 L663.720366,10448.1615 C664.49708,10448.1615 665.111859,10447.5526 665.111859,10446.8319 L665.111859,10417.3654 C665.111859,10416.6018 664.509977,10416 663.769089,10416 L623.278201,10416 C622.484291,10416 621.899605,10416.5889 621.899605,10417.3425 L621.899605,10446.7946 C621.899605,10447.564 622.495755,10448.1615 623.230911,10448.1615 Z M630.083766,10441.7269 L633.075979,10441.7269 L633.075979,10438.4229 L630.083766,10438.4229 L630.083766,10441.7269 Z M633.723718,10437.1277 L629.458955,10437.1277 C629.059134,10437.1277 628.762492,10437.4171 628.762492,10437.7882 L628.762492,10442.3745 C628.762492,10442.7499 629.051968,10443.0221 629.434593,10443.0221 L633.70079,10443.0221 C634.087714,10443.0221 634.382922,10442.737 634.382922,10442.3874 L634.382922,10437.8111 C634.382922,10437.43 634.080548,10437.1277 633.723718,10437.1277 Z M638.038638,10441.7269 L641.030851,10441.7269 L641.030851,10434.053 L638.038638,10434.053 L638.038638,10441.7269 Z M641.678591,10432.7448 L637.390899,10432.7448 C637.008274,10432.7448 636.718797,10433.0457 636.718797,10433.4154 L636.718797,10442.3745 C636.718797,10442.7428 637.002542,10443.0221 637.365104,10443.0221 L641.654229,10443.0221 C642.055483,10443.0221 642.350692,10442.7428 642.350692,10442.3874 L642.350692,10433.4397 C642.350692,10433.0457 642.049751,10432.7448 641.678591,10432.7448 Z" id="icon-keyword-monitor"></path>
        </g>
    </g>
</svg>