<?xml version="1.0" encoding="UTF-8"?>
<svg width="46px" height="40px" viewBox="0 0 46 40" version="1.1" xmlns="http://www.w3.org/2000/svg" xmlns:xlink="http://www.w3.org/1999/xlink">
  <title>icon-reztrip</title>
  <defs>
    <path d="M44.5645186,24.5921606 L44.5645186,19.9128882 L35.8669371,19.9128882 L35.8669371,28.4002087 L40.724606,28.4002087 C42.841941,28.4002087 44.5645186,26.6919254 44.5645186,24.5921606 Z M5.27539398,28.4002087 L10.7560618,28.4002087 L10.7560618,1.42356936 L5.27539398,1.42356936 C3.15805898,1.42356936 1.43548135,3.13042902 1.43548135,5.23019382 L1.43548135,24.5921606 C1.43548135,26.6919254 3.15805898,28.4002087 5.27539398,28.4002087 Z M40.724606,1.42356936 L12.1915431,1.42356936 L12.1915431,8.27663224 L44.5645186,8.27663224 L44.5645186,5.23019382 C44.5645186,3.13042902 42.841941,1.42356936 40.724606,1.42356936 Z M35.8669371,18.4893188 L44.5645186,18.4893188 L44.5645186,9.7002016 L35.8669371,9.7002016 L35.8669371,18.4893188 Z M23.7184584,18.4893188 L34.4314558,18.4893188 L34.4314558,9.7002016 L23.7184584,9.7002016 L23.7184584,18.4893188 Z M23.7184584,28.4002087 L34.4314558,28.4002087 L34.4314558,19.9143117 L23.7184584,19.9143117 L23.7184584,28.4002087 Z M12.1915431,28.4002087 L22.2829771,28.4002087 L22.2829771,19.9143117 L12.1915431,19.9143117 L12.1915431,28.4002087 Z M12.1915431,18.4893188 L22.2829771,18.4893188 L22.2829771,9.7002016 L12.1915431,9.7002016 L12.1915431,18.4893188 Z M46,5.23019382 L46,24.5921606 C46,27.4763122 43.6328912,29.823778 40.724606,29.823778 L5.27539398,29.823778 C2.36710875,29.823778 0,27.4763122 0,24.5921606 L0,5.23019382 C0,2.3460423 2.36710875,0 5.27539398,0 L40.724606,0 C43.6328912,0 46,2.3460423 46,5.23019382 Z M30.0718989,37.6562566 C30.1953503,38.3594999 30.0202216,38.9986825 29.6053675,39.4841197 C29.1905133,39.9709804 28.5847402,40.25 27.9416446,40.25 L18.0583554,40.25 C17.4152598,40.25 16.8094867,39.9709804 16.3931971,39.4841197 C15.9797784,38.9986825 15.8032142,38.3580763 15.9108753,37.7302822 L17.4540178,32.2894002 C17.5616789,31.9093071 17.9593072,31.6886539 18.3397098,31.7968452 C18.7215478,31.9036129 18.942612,32.2979416 18.8363863,32.6751875 L17.3090342,38.0434675 C17.2889374,38.1858244 17.3477922,38.3979363 17.4913403,38.5644939 C17.633453,38.7338986 17.8358558,38.8264306 18.0583554,38.8264306 L27.9416446,38.8264306 C28.1641442,38.8264306 28.3651116,38.7338986 28.5086597,38.5659175 C28.6522078,38.3979363 28.7110626,38.1858244 28.6737401,37.9680183 L27.1636137,32.6751875 C27.057388,32.2979416 27.2784522,31.9036129 27.6602902,31.7968452 C28.0449992,31.6943482 28.4383211,31.9121543 28.5459822,32.2894002 L30.0718989,37.6562566 Z" id="path-1"></path>
  </defs>
  <g id="Page-1" stroke="none" stroke-width="1" fill="none" fill-rule="evenodd">
    <g id="TT-Website-Style-Guide" transform="translate(-95.000000, -9702.000000)">
      <g id="icon-reztrip" transform="translate(95.000000, 9702.000000)">
        <mask id="mask-2" fill="white">
          <use xlink:href="#path-1"></use>
        </mask>
        <use fill-rule="evenodd" xlink:href="#path-1"></use>
        <g id="Mixin/Fill/gray" mask="url(#mask-2)" fill="#3a75a2" fill-rule="evenodd">
          <rect id="Rectangle" x="0" y="0" width="54" height="51"></rect>
        </g>
      </g>
    </g>
  </g>
</svg>
