<?xml version="1.0" encoding="UTF-8"?>
<svg width="18px" height="18px" viewBox="0 0 18 18" version="1.1" xmlns="http://www.w3.org/2000/svg" xmlns:xlink="http://www.w3.org/1999/xlink">
    <!-- Generator: Sketch 50.2 (55047) - http://www.bohemiancoding.com/sketch -->
    <title>icon-mktng-campaign</title>
    <desc>Created with Sketch.</desc>
    <defs></defs>
    <g id="Page-1" stroke="none" stroke-width="1" fill="none" fill-rule="evenodd">
        <g id="TT-Website-Style-Guide" transform="translate(-821.000000, -11084.000000)" fill="#4A4A4A">
            <path d="M834.898503,11089.0506 C834.898503,11088.2616 834.257503,11087.6206 833.468503,11087.6206 C832.680503,11087.6206 832.040503,11088.2616 832.040503,11089.0506 C832.040503,11089.8336 832.680503,11090.4706 833.468503,11090.4706 C834.257503,11090.4706 834.898503,11089.8336 834.898503,11089.0506 M835.749503,11089.0506 C835.749503,11090.3046 834.727503,11091.3246 833.471503,11091.3246 C832.213503,11091.3246 831.189503,11090.3046 831.189503,11089.0506 C831.189503,11087.7976 832.213503,11086.7776 833.471503,11086.7776 C834.727503,11086.7776 835.749503,11087.7976 835.749503,11089.0506 M837.226503,11085.3766 C837.209503,11085.3016 837.150503,11085.2426 837.075503,11085.2266 C835.449503,11084.8606 833.727503,11084.8966 832.096503,11085.3306 C830.349503,11085.8006 828.746503,11086.7286 827.461503,11088.0146 L827.304503,11088.1676 L827.255503,11088.2106 L827.062503,11088.4256 C826.960503,11088.5426 826.754503,11088.6526 826.523503,11088.5626 C825.932503,11088.3366 825.258503,11088.2856 824.627503,11088.4216 C824.012503,11088.5466 823.446503,11088.8466 822.988503,11089.2916 L822.950503,11089.3246 C822.442503,11089.8326 822.118503,11090.4676 822.013503,11091.1616 C821.943503,11091.5606 821.951503,11091.9776 822.033503,11092.3716 C822.046503,11092.4336 822.089503,11092.4866 822.147503,11092.5126 C822.204503,11092.5386 822.271503,11092.5366 822.327503,11092.5056 C822.495503,11092.4106 822.664503,11092.3216 822.831503,11092.2526 C823.282503,11092.0666 823.779503,11091.9546 824.307503,11091.9216 L824.335503,11091.9196 L824.469503,11091.9486 C824.589503,11091.9776 824.688503,11092.0506 824.751503,11092.1556 C824.819503,11092.2716 824.838503,11092.4116 824.803503,11092.5416 C824.677503,11093.0066 824.577503,11093.4906 824.505503,11093.9836 C824.457503,11094.3816 824.426503,11094.7816 824.416503,11095.1756 C824.415503,11095.2306 824.436503,11095.2836 824.475503,11095.3226 L827.135503,11097.9876 C827.171503,11098.0236 827.206503,11098.0426 827.294503,11098.0466 C827.648503,11098.0366 828.038503,11098.0066 828.474503,11097.9516 C828.996503,11097.8816 829.473503,11097.7876 830.018503,11097.6476 L830.045503,11097.6406 L830.073503,11097.6416 C830.201503,11097.6446 830.320503,11097.6996 830.409503,11097.7946 C830.498503,11097.8916 830.543503,11098.0176 830.536503,11098.1496 C830.518503,11098.6466 830.410503,11099.1416 830.216503,11099.6166 C830.137503,11099.7896 830.053503,11099.9646 829.958503,11100.1296 C829.927503,11100.1846 829.923503,11100.2516 829.949503,11100.3096 C829.974503,11100.3676 830.026503,11100.4096 830.087503,11100.4236 C830.492503,11100.5146 830.901503,11100.5216 831.294503,11100.4466 C832.000503,11100.3306 832.616503,11100.0156 833.132503,11099.5096 C833.588503,11099.0636 833.902503,11098.4876 834.039503,11097.8446 C834.183503,11097.2166 834.132503,11096.5536 833.893503,11095.9266 C833.837503,11095.7876 833.858503,11095.5626 834.037503,11095.4046 L834.444503,11095.0006 C835.735503,11093.7186 836.663503,11092.1176 837.127503,11090.3716 C837.567503,11088.7356 837.602503,11087.0086 837.226503,11085.3766 M838.065503,11090.6176 C837.550503,11092.5356 836.527503,11094.3006 835.106503,11095.7226 L835.002503,11095.8176 C834.946503,11095.8676 834.923503,11095.9456 834.943503,11096.0186 C835.122503,11096.6706 835.140503,11097.3716 834.994503,11098.0486 C834.817503,11098.8746 834.411503,11099.6086 833.786503,11100.2296 C833.137503,11100.8586 832.332503,11101.2656 831.454503,11101.4096 C831.224503,11101.4456 830.994503,11101.4626 830.766503,11101.4626 C830.086503,11101.4626 829.420503,11101.3066 828.808503,11100.9996 C828.698503,11100.9456 828.618503,11100.8486 828.582503,11100.7286 C828.539503,11100.5856 828.565503,11100.4216 828.654503,11100.2686 C828.949503,11099.9436 829.169503,11099.6016 829.316503,11099.2436 L829.373503,11099.0976 C829.399503,11099.0296 829.387503,11098.9536 829.341503,11098.8986 C829.302503,11098.8526 829.246503,11098.8256 829.187503,11098.8256 C828.969503,11098.8626 828.778503,11098.8906 828.594503,11098.9146 C828.135503,11098.9766 827.651503,11099.0066 827.114503,11099.0066 C827.081503,11099.0066 826.787503,11099.0026 826.653503,11098.8786 L823.592503,11095.8226 C823.485503,11095.7096 823.438503,11095.5766 823.451503,11095.4356 C823.452503,11094.8686 823.483503,11094.3626 823.546503,11093.8676 L823.578503,11093.6466 C823.596503,11093.5196 823.610503,11093.4166 823.629503,11093.3136 C823.643503,11093.2406 823.616503,11093.1676 823.560503,11093.1206 C823.503503,11093.0746 823.425503,11093.0616 823.360503,11093.0896 L823.211503,11093.1496 C822.852503,11093.2946 822.521503,11093.5066 822.227503,11093.7796 C822.031503,11093.9606 821.720503,11093.9556 821.548503,11093.7696 L821.463503,11093.6426 C821.053503,11092.8306 820.911503,11091.9026 821.053503,11091.0126 C821.196503,11090.1096 821.616503,11089.2886 822.267503,11088.6386 C822.839503,11088.0526 823.582503,11087.6466 824.411503,11087.4646 C825.086503,11087.3236 825.771503,11087.3416 826.447503,11087.5146 C826.515503,11087.5316 826.588503,11087.5126 826.638503,11087.4636 L826.826503,11087.2576 C828.227503,11085.8856 829.961503,11084.8956 831.842503,11084.3916 C833.763503,11083.8686 835.797503,11083.8696 837.726503,11084.3936 C837.817503,11084.4166 837.909503,11084.4696 837.996503,11084.5506 L838.060503,11084.6096 L838.065503,11084.7006 C838.065503,11084.7176 838.066503,11084.7346 838.071503,11084.7506 L838.071503,11084.7516 C838.584503,11086.6736 838.582503,11088.7016 838.065503,11090.6176 M822.129503,11098.1086 C822.175503,11098.1056 822.333503,11098.0856 822.444503,11097.9726 L823.468503,11096.9526 C823.551503,11096.8646 823.600503,11096.7446 823.600503,11096.6216 C823.600503,11096.4976 823.551503,11096.3836 823.471503,11096.3086 C823.292503,11096.1196 822.989503,11096.1216 822.818503,11096.3006 L821.788503,11097.3186 C821.608503,11097.5026 821.609503,11097.7876 821.789503,11097.9686 C821.875503,11098.0586 821.989503,11098.1086 822.129503,11098.1086 M824.870503,11097.8916 C824.871503,11097.7676 824.822503,11097.6486 824.729503,11097.5556 C824.553503,11097.3876 824.254503,11097.3886 824.085503,11097.5586 L821.770503,11099.8796 C821.676503,11099.9676 821.624503,11100.0836 821.623503,11100.2056 C821.623503,11100.3296 821.673503,11100.4476 821.762503,11100.5346 C821.848503,11100.6226 821.961503,11100.6716 822.087503,11100.6736 C822.209503,11100.6736 822.324503,11100.6256 822.412503,11100.5376 L824.729503,11098.2166 C824.819503,11098.1296 824.869503,11098.0136 824.870503,11097.8916 M825.999503,11098.8316 C826.087503,11098.9176 826.137503,11099.0326 826.137503,11099.1556 C826.137503,11099.2786 826.086503,11099.3946 825.996503,11099.4836 L824.976503,11100.5026 C824.885503,11100.5916 824.767503,11100.6346 824.650503,11100.6346 C824.532503,11100.6346 824.415503,11100.5906 824.326503,11100.5016 C824.240503,11100.4216 824.190503,11100.3006 824.190503,11100.1736 C824.191503,11100.0486 824.243503,11099.9326 824.335503,11099.8476 L825.352503,11098.8306 C825.436503,11098.7446 825.548503,11098.6966 825.668503,11098.6956 L825.673503,11098.6956 C825.794503,11098.6956 825.910503,11098.7436 825.999503,11098.8316" id="icon-mktng-campaign"></path>
        </g>
    </g>
</svg>