<?xml version="1.0" encoding="UTF-8"?>
<svg width="46px" height="40px" viewBox="0 0 46 40" version="1.1" xmlns="http://www.w3.org/2000/svg" xmlns:xlink="http://www.w3.org/1999/xlink">
  <title>icon-ttweb</title>
  <defs>
    <path d="M37.0642955,36.1818361 C36.4204988,36.1818361 35.8989267,36.708851 35.8989267,37.359366 C35.8989267,38.0098809 36.4204988,38.5368958 37.0642955,38.5368958 C37.7080922,38.5368958 38.2296643,38.0098809 38.2296643,37.359366 C38.2296643,36.708851 37.7080922,36.1818361 37.0642955,36.1818361 Z M28.128591,23.674097 L28.128591,21.6724185 L1.4630643,21.6724185 C1.95438283,22.8475028 3.10644007,23.674097 4.44606966,23.674097 L28.128591,23.674097 Z M1.21014417,20.4044035 C1.21014417,20.4190768 1.2137746,20.43375 1.2137746,20.4496461 L28.128591,20.4496461 L28.128591,14.6879424 L28.128591,13.3783531 C28.128591,11.5625361 29.5916553,10.0842042 31.3887194,10.0842042 L36.4592234,10.0842042 L36.4592234,4.4924659 C36.4592234,2.68887657 35.0070504,1.22277243 33.2220878,1.22277243 L4.44606966,1.22277243 C2.66110702,1.22277243 1.21014417,2.68887657 1.21014417,4.4924659 L1.21014417,20.4044035 Z M29.3387351,34.3024349 L44.7898558,34.3024349 L44.7898558,15.2993286 L37.6693676,15.2993286 L36.4592234,15.2993286 L29.3387351,15.2993286 L29.3387351,20.4496461 L29.3387351,21.6724185 L29.3387351,23.674097 L29.3387351,24.8968694 L29.3387351,34.3024349 Z M42.7398716,11.3069766 L37.6693676,11.3069766 L36.4592234,11.3069766 L31.3887194,11.3069766 C30.2584447,11.3069766 29.3387351,12.2362837 29.3387351,13.3783531 L29.3387351,14.0765562 L36.4592234,14.0765562 L37.6693676,14.0765562 L44.7898558,14.0765562 L44.7898558,13.3783531 C44.7898558,12.2362837 43.8701463,11.3069766 42.7398716,11.3069766 Z M44.7898558,36.9570739 L44.7898558,35.5252073 L29.3387351,35.5252073 L29.3387351,36.9570739 C29.3387351,38.0979205 30.2584447,39.0272276 31.3887194,39.0272276 L42.7398716,39.0272276 C43.8701463,39.0272276 44.7898558,38.0979205 44.7898558,36.9570739 Z M46,13.3783531 L46,14.6879424 L46,34.9138211 L46,36.9570739 C46,38.7728909 44.5381458,40.25 42.7398716,40.25 L31.3887194,40.25 C29.5916553,40.25 28.128591,38.7728909 28.128591,36.9570739 L28.128591,34.9138211 L28.128591,24.8968694 L4.44606966,24.8968694 C2.33799853,24.8968694 0.576028623,23.4038643 0.121014417,21.4095224 C0.0508260549,21.3104779 0,21.1943145 0,21.0610323 C0,20.9827749 0.0169420183,20.9094085 0.0435651899,20.842156 C0.02904346,20.6954233 0,20.5535817 0,20.4044035 L0,4.4924659 C0,2.01512896 1.99431758,0 4.44606966,0 L33.2220878,0 C35.67505,0 37.6693676,2.01512896 37.6693676,4.4924659 L37.6693676,10.0842042 L42.7398716,10.0842042 C44.5381458,10.0842042 46,11.5625361 46,13.3783531 Z M24.7970641,31.3592217 C24.9011365,31.9632713 24.7522888,32.5122961 24.4025571,32.9292615 C24.0540356,33.3474496 23.5421446,33.587113 23,33.587113 L14.6681574,33.587113 C14.1260128,33.587113 13.615332,33.3486724 13.2656003,32.9304842 C12.9158687,32.5122961 12.7670209,31.9632713 12.8577818,31.4228058 L14.1586867,26.7493696 C14.2494475,26.4228894 14.5846575,26.2345824 14.9053457,26.3262904 C15.227244,26.4179983 15.4148164,26.7567063 15.3240556,27.080741 L14.0376723,31.6918158 C14.0207303,31.814093 14.0691361,31.9962861 14.1901505,32.1405733 C14.3111649,32.2848604 14.4805851,32.3643406 14.6681574,32.3643406 L23,32.3643406 C23.1875723,32.3643406 23.3569925,32.2848604 23.4780069,32.1405733 C23.6002315,31.9962861 23.6486373,31.814093 23.6171735,31.6270088 L22.3441019,27.080741 C22.2545512,26.7567063 22.4421235,26.4179983 22.7628117,26.3262904 C23.0871304,26.2358052 23.41992,26.4241122 23.5094707,26.7493696 L24.7970641,31.3592217 Z" id="path-1"></path>
  </defs>
  <g id="Page-1" stroke="none" stroke-width="1" fill="none" fill-rule="evenodd">
    <g id="TT-Website-Style-Guide" transform="translate(-95.000000, -9787.000000)">
      <g id="icon-ttweb" transform="translate(95.000000, 9787.000000)">
        <mask id="mask-2" fill="white">
          <use xlink:href="#path-1"></use>
        </mask>
        <use fill-rule="evenodd" xlink:href="#path-1"></use>
        <g id="Mixin/Fill/gray" mask="url(#mask-2)" fill="#303e60" fill-rule="evenodd">
          <rect id="Rectangle" x="0" y="0" width="54" height="51"></rect>
        </g>
      </g>
    </g>
  </g>
</svg>
