<?xml version="1.0" encoding="UTF-8"?>
<svg width="39px" height="15px" viewBox="0 0 39 15" version="1.1" xmlns="http://www.w3.org/2000/svg" xmlns:xlink="http://www.w3.org/1999/xlink">
    <!-- Generator: Sketch 50.2 (55047) - http://www.bohemiancoding.com/sketch -->
    <title>arrow</title>
    <desc>Created with Sketch.</desc>
    <defs>
        <path d="M29.7467089,15 C29.6021574,15 29.4586028,14.9394297 29.359909,14.820243 C29.1864472,14.6121548 29.2173513,14.3034418 29.4306894,14.1334542 L37.1038828,7.98850162 L0.498453516,7.98850162 C0.222310268,7.98850162 0,7.770644 0,7.50003162 C0,7.23039618 0.222310268,7.01156162 0.498453516,7.01156162 L37.1038828,7.01156162 L29.4306894,0.86660902 C29.2173513,0.69662146 29.1864472,0.38888536 29.359909,0.1798202 C29.5333708,-0.0302218999 29.8473965,-0.0605070399 30.0617316,0.1114344 L38.8135784,7.12000196 C38.8205567,7.12390972 38.8265382,7.12977136 38.8325196,7.13465606 L38.8325196,7.135633 L38.8335165,7.135633 C38.8484701,7.14931016 38.8634237,7.16396426 38.8763835,7.17861836 C38.8773804,7.17861836 38.8773804,7.18057224 38.8773804,7.1795953 C38.9531454,7.26458908 38.9990031,7.3749833 39,7.49612386 L39,7.49807774 L39,7.5019855 L39,7.50393938 C38.9990031,7.62507994 38.9531454,7.73547416 38.8773804,7.82046794 C38.8773804,7.82046794 38.8833619,7.8243757 38.8763835,7.82144488 C38.8634237,7.83707592 38.8484701,7.85173002 38.8335165,7.86443024 L38.8325196,7.86443024 L38.8325196,7.86540718 C38.8265382,7.87029188 38.8205567,7.87615352 38.8135784,7.88103822 L30.0617316,14.8896058 C29.9690192,14.9638532 29.8573656,15 29.7467089,15" id="path-1"></path>
    </defs>
    <g id="Page-1" stroke="none" stroke-width="1" fill="none" fill-rule="evenodd">
        <g id="Who-We-Serve-Indep-Boutique" transform="translate(-1043.000000, -2872.000000)">
            <g id="arrow-white" transform="translate(1043.000000, 2872.000000)">
                <mask id="mask-2" fill="white">
                    <use xlink:href="#path-1"></use>
                </mask>
                <use id="arrow" fill="#FFFFFF" fill-rule="evenodd" xlink:href="#path-1"></use>
                <g id="Mixin/Fill/gray" mask="url(#mask-2)" fill="#838383" fill-rule="evenodd">
                    <g transform="translate(-4.000000, -15.000000)" id="Rectangle">
                        <rect x="0" y="0" width="47" height="44"></rect>
                    </g>
                </g>
            </g>
        </g>
    </g>
</svg>