<?xml version="1.0" encoding="UTF-8"?>
<svg width="27px" height="17px" viewBox="0 0 27 17" version="1.1" xmlns="http://www.w3.org/2000/svg" xmlns:xlink="http://www.w3.org/1999/xlink">
    <!-- Generator: Sketch 50.2 (55047) - http://www.bohemiancoding.com/sketch -->
    <title>icon-translation</title>
    <desc>Created with Sketch.</desc>
    <defs></defs>
    <g id="Page-1" stroke="none" stroke-width="1" fill="none" fill-rule="evenodd">
        <g id="TT-Website-Style-Guide" transform="translate(-1177.000000, -11085.000000)" fill="#4A4A4A">
            <path d="M1189.32556,11101.55 L1190.16317,11101.55 L1190.16317,11085 L1189.32556,11085 L1189.32556,11101.55 Z M1203.00714,11089.7437 L1203.00714,11090.6064 C1203.00714,11090.716 1202.92422,11090.8048 1202.82203,11090.8048 L1201.935,11090.8048 L1201.84705,11091.1262 C1201.52121,11092.3095 1200.81176,11093.5493 1199.79405,11094.7118 L1199.47827,11095.0727 L1199.84431,11095.3753 C1200.27568,11095.7308 1200.72883,11096.0657 1201.19036,11096.3718 C1201.27579,11096.4292 1201.30511,11096.5459 1201.25485,11096.6393 L1200.85531,11097.3889 C1200.82181,11097.4527 1200.76904,11097.4751 1200.74056,11097.4823 C1200.71292,11097.4913 1200.6568,11097.4976 1200.59816,11097.459 C1199.98252,11097.0532 1199.39786,11096.6133 1198.86012,11096.15 L1198.59878,11095.9247 L1198.33577,11096.15 C1197.79551,11096.6142 1197.21002,11097.055 1196.59604,11097.4599 C1196.53825,11097.4976 1196.48129,11097.4904 1196.45365,11097.4832 C1196.42517,11097.4751 1196.3724,11097.4527 1196.33806,11097.3889 L1195.93936,11096.6402 C1195.88994,11096.5468 1195.91841,11096.4292 1196.00469,11096.3718 C1196.47543,11096.0603 1196.92941,11095.7254 1197.35241,11095.378 L1197.72012,11095.0754 L1197.40267,11094.7136 C1197.01988,11094.2773 1196.67813,11093.8276 1196.38664,11093.3787 C1196.34727,11093.3185 1196.35146,11093.2575 1196.35816,11093.227 C1196.36486,11093.1947 1196.38413,11093.1363 1196.44527,11093.0968 L1197.13798,11092.6533 C1197.1673,11092.6345 1197.19913,11092.6264 1197.23096,11092.6264 C1197.29043,11092.6264 1197.34822,11092.6569 1197.38591,11092.7135 C1197.64306,11093.104 1197.95047,11093.5008 1198.29808,11093.8922 L1198.60213,11094.2342 L1198.90535,11093.8913 C1199.62653,11093.0761 1200.16177,11092.2493 1200.49514,11091.4333 L1200.75145,11090.8048 L1194.37218,11090.8048 C1194.26999,11090.8048 1194.18707,11090.716 1194.18707,11090.6064 L1194.18707,11089.7437 C1194.18707,11089.6351 1194.26999,11089.5462 1194.37218,11089.5462 L1198.00994,11089.5462 L1198.00994,11088.2346 C1198.00994,11088.1251 1198.09286,11088.0362 1198.19505,11088.0362 L1198.99916,11088.0362 C1199.10135,11088.0362 1199.18427,11088.1251 1199.18427,11088.2346 L1199.18427,11089.5462 L1202.82203,11089.5462 C1202.92422,11089.5462 1203.00714,11089.6351 1203.00714,11089.7437 Z M1182.17736,11093.9874 C1182.09862,11094.0996 1181.97466,11094.166 1181.84315,11094.166 L1179.92836,11094.166 C1179.79602,11094.166 1179.67122,11094.0996 1179.59248,11093.9856 C1179.51375,11093.8725 1179.48862,11093.7261 1179.52631,11093.5897 L1180.08332,11091.5661 C1180.25252,11090.9386 1180.46611,11089.8245 1180.46863,11089.8128 C1180.50799,11089.6046 1180.6797,11089.4546 1180.87822,11089.4546 C1181.07757,11089.4546 1181.27609,11089.6046 1181.31629,11089.8128 C1181.31797,11089.8245 1181.5324,11090.9386 1181.70243,11091.5688 L1182.24521,11093.5933 C1182.28206,11093.7288 1182.25693,11093.8742 1182.17736,11093.9874 Z M1184.77396,11097.2273 L1181.88419,11088.1134 C1181.85907,11088.0335 1181.78871,11087.9796 1181.70913,11087.9796 L1180.07495,11087.9796 C1179.99621,11087.9796 1179.92585,11088.0335 1179.90072,11088.1134 L1177.01096,11097.2282 C1176.98331,11097.3117 1177.01431,11097.3755 1177.03441,11097.406 C1177.05535,11097.4374 1177.10309,11097.4895 1177.18518,11097.4895 L1178.33271,11097.4895 C1178.41396,11097.4895 1178.48683,11097.4302 1178.50945,11097.3458 L1178.96846,11095.6311 C1179.02039,11095.439 1179.18373,11095.3062 1179.37135,11095.3062 L1182.39933,11095.3062 C1182.58528,11095.3062 1182.74945,11095.4372 1182.80138,11095.6284 L1183.27212,11097.3467 C1183.29557,11097.432 1183.36677,11097.4895 1183.44886,11097.4895 L1184.5989,11097.4895 C1184.68182,11097.4895 1184.72873,11097.4374 1184.74967,11097.406 C1184.76977,11097.3755 1184.80077,11097.3117 1184.77396,11097.2282 L1184.77396,11097.2273 Z" id="icon-translation"></path>
        </g>
    </g>
</svg>