<svg xmlns="http://www.w3.org/2000/svg" xmlns:xlink="http://www.w3.org/1999/xlink" width="20" height="20" viewBox="0 0 20 20"><defs><path id="g1g4a" d="M1000 3788.75c0 .6-.5 1.09-1.1 1.09h-5.1v-7.68h2.6l.39-3h-2.99v-1.9c0-.88.24-1.47 1.5-1.47h1.6v-2.68c-.28-.03-1.23-.11-2.33-.11-2.3 0-3.89 1.4-3.89 3.95v2.21h-2.6v3h2.6v7.68h-9.58a1.1 1.1 0 0 1-1.1-1.1v-17.65c0-.6.5-1.09 1.1-1.09h17.8c.6 0 1.1.49 1.1 1.1v17.65"/></defs><g><g transform="translate(-980 -3770)"><use fill="#fff" xlink:href="#g1g4a"/></g></g></svg>