<?xml version="1.0" encoding="UTF-8"?>
<svg width="41px" height="30px" viewBox="0 0 41 30" version="1.1" xmlns="http://www.w3.org/2000/svg" xmlns:xlink="http://www.w3.org/1999/xlink">
    <!-- Generator: Sketch 50.2 (55047) - http://www.bohemiancoding.com/sketch -->
    <title>icon-list</title>
    <desc>Created with Sketch.</desc>
    <defs></defs>
    <g id="Page-1" stroke="none" stroke-width="1" fill="none" fill-rule="evenodd">
        <g id="Solutions-RateMatch-1800" transform="translate(-495.000000, -3308.000000)" fill="#6C6E70">
            <path d="M500.064668,3321.26567 C499.702639,3320.92728 499.254769,3320.70832 498.729765,3320.70832 C498.204761,3320.70832 497.745694,3320.92728 497.417256,3321.26567 L497.394863,3321.27687 C497.067668,3321.60531 496.849954,3322.06437 496.849954,3322.60057 C496.849954,3323.11438 497.067668,3323.59584 497.394863,3323.91308 L497.417256,3323.92304 C497.745694,3324.25147 498.204761,3324.47168 498.729765,3324.47168 C499.254769,3324.47168 499.702639,3324.25147 500.064668,3323.92304 L500.064668,3323.91308 C500.393106,3323.59584 500.588427,3323.11438 500.588427,3322.60057 C500.588427,3322.06437 500.393106,3321.60531 500.064668,3321.27687 L500.064668,3321.26567 Z M498.729765,3318.87081 C499.757379,3318.87081 500.676757,3319.28633 501.354783,3319.96436 L501.377177,3319.96436 C502.032809,3320.66478 502.449578,3321.57296 502.449578,3322.60057 C502.449578,3323.61824 502.032809,3324.53637 501.377177,3325.2144 L501.354783,3325.22559 C500.676757,3325.89242 499.757379,3326.30795 498.729765,3326.30795 C497.702151,3326.30795 496.760379,3325.89242 496.104747,3325.22559 L496.104747,3325.2144 C495.426721,3324.53637 495,3323.61824 495,3322.60057 C495,3321.57296 495.426721,3320.66478 496.104747,3319.96436 L496.104747,3319.95441 C496.782773,3319.28633 497.702151,3318.87081 498.729765,3318.87081 Z M500.064668,3332.13773 C499.702639,3331.80929 499.254769,3331.59033 498.729765,3331.59033 C498.204761,3331.59033 497.745694,3331.80929 497.417256,3332.13773 L497.394863,3332.13773 C497.067668,3332.47612 496.849954,3332.93518 496.849954,3333.46143 C496.849954,3333.98644 497.067668,3334.4567 497.394863,3334.77394 L497.417256,3334.77394 C497.745694,3335.14592 498.204761,3335.32009 498.729765,3335.32009 C499.254769,3335.32009 499.702639,3335.14592 500.064668,3334.79509 L500.064668,3334.77394 C500.393106,3334.4567 500.588427,3333.98644 500.588427,3333.46143 C500.588427,3332.93518 500.393106,3332.47612 500.064668,3332.13773 Z M498.729765,3329.75406 C499.757379,3329.75406 500.676757,3330.17954 501.354783,3330.83517 L501.377177,3330.83517 C502.032809,3331.51444 502.449578,3332.43257 502.449578,3333.46143 C502.449578,3334.47785 502.032809,3335.42957 501.377177,3336.08645 L501.354783,3336.08645 C500.676757,3336.76448 499.757379,3337.18 498.729765,3337.18 C497.702151,3337.18 496.760379,3336.76448 496.104747,3336.08645 C495.426721,3335.40718 495,3334.47785 495,3333.46143 C495,3332.43257 495.426721,3331.51444 496.104747,3330.83517 C496.782773,3330.17954 497.702151,3329.75406 498.729765,3329.75406 Z M507.337585,3335.01405 C506.484143,3335.01405 505.794921,3334.33602 505.794921,3333.46143 C505.794921,3332.60799 506.484143,3331.90757 507.337585,3331.90757 L534.472311,3331.90757 C535.303359,3331.90757 536.002535,3332.60799 536.002535,3333.46143 C536.002535,3334.33602 535.303359,3335.01405 534.472311,3335.01405 L507.337585,3335.01405 Z M500.064668,3310.38367 C499.702639,3310.05647 499.254769,3309.83627 498.729765,3309.83627 C498.204761,3309.83627 497.745694,3310.05647 497.417256,3310.38367 L497.394863,3310.38367 C497.067668,3310.73325 496.849954,3311.21471 496.849954,3311.71857 C496.849954,3312.22118 497.067668,3312.70264 497.394863,3313.05223 L497.417256,3313.05223 C497.745694,3313.38067 498.204761,3313.59962 498.729765,3313.59962 C499.254769,3313.59962 499.702639,3313.38067 500.064668,3313.05223 C500.393106,3312.70264 500.588427,3312.22118 500.588427,3311.71857 C500.588427,3311.21471 500.393106,3310.73325 500.064668,3310.38367 Z M498.729765,3308 C499.757379,3308 500.676757,3308.42672 501.354783,3309.07116 L501.354783,3309.09231 C502.032809,3309.77158 502.449578,3310.68971 502.449578,3311.71857 C502.449578,3312.74618 502.032809,3313.66432 501.354783,3314.34359 C500.676757,3315.01042 499.757379,3315.43589 498.729765,3315.43589 C497.702151,3315.43589 496.760379,3315.01042 496.104747,3314.34359 C495.426721,3313.66432 495,3312.72379 495,3311.71857 C495,3310.68971 495.426721,3309.77158 496.104747,3309.09231 L496.104747,3309.07116 C496.782773,3308.42672 497.702151,3308 498.729765,3308 Z M507.337585,3313.24879 C506.484143,3313.24879 505.794921,3312.57201 505.794921,3311.71857 C505.794921,3310.86513 506.484143,3310.1871 507.337585,3310.1871 L534.472311,3310.1871 C535.303359,3310.1871 536.002535,3310.86513 536.002535,3311.71857 C536.002535,3312.57201 535.303359,3313.24879 534.472311,3313.24879 L507.337585,3313.24879 Z M507.337585,3324.14324 C506.484143,3324.14324 505.794921,3323.44282 505.794921,3322.60057 C505.794921,3321.73594 506.484143,3321.04796 507.337585,3321.04796 L534.472311,3321.04796 C535.303359,3321.04796 536.002535,3321.73594 536.002535,3322.60057 C536.002535,3323.44282 535.303359,3324.14324 534.472311,3324.14324 L507.337585,3324.14324 Z" id="icon-list"></path>
        </g>
    </g>
</svg>