<?xml version="1.0" encoding="UTF-8"?>
<svg width="39px" height="35px" viewBox="0 0 39 35" version="1.1" xmlns="http://www.w3.org/2000/svg" xmlns:xlink="http://www.w3.org/1999/xlink">
    <!-- Generator: Sketch 50.2 (55047) - http://www.bohemiancoding.com/sketch -->
    <title>icon-dispaly-ad</title>
    <desc>Created with Sketch.</desc>
    <defs></defs>
    <g id="Page-1" stroke="none" stroke-width="1" fill="none" fill-rule="evenodd">
        <g id="TT-Website-Style-Guide" transform="translate(-358.000000, -10306.000000)" fill="#838383">
            <path d="M390.726842,10311.9488 C390.726842,10311.2946 391.249138,10310.7616 391.893257,10310.7616 C392.535976,10310.7616 393.058272,10311.2946 393.058272,10311.9488 C393.058272,10312.6215 392.535976,10313.1673 391.893257,10313.1673 C391.249138,10313.1673 390.726842,10312.6215 390.726842,10311.9488 Z M379.705407,10322.9114 L382.881193,10322.9114 C383.014218,10322.9114 383.147243,10322.967 383.238259,10323.0596 C383.330676,10323.1237 383.40489,10323.272 383.40489,10323.433 L383.40489,10329.1865 C383.40489,10329.3447 383.334877,10329.4545 383.269065,10329.5272 C383.180849,10329.654 383.039423,10329.731 382.881193,10329.731 L379.705407,10329.731 L379.705407,10322.9114 Z M379.135502,10330.8697 L382.881193,10330.8697 C383.315274,10330.8697 383.725549,10330.6887 384.039207,10330.3609 C384.355666,10330.0559 384.525097,10329.6426 384.525097,10329.1865 L384.525097,10323.433 C384.525097,10322.977 384.351465,10322.5494 384.049009,10322.2601 C383.732551,10321.928 383.322275,10321.7513 382.881193,10321.7513 L379.135502,10321.7513 C378.827445,10321.7513 378.575399,10322.0121 378.575399,10322.3313 L378.575399,10330.2683 C378.575399,10330.6046 378.833046,10330.8697 379.135502,10330.8697 Z M373.786514,10324.0786 L375.038346,10327.6701 L372.530483,10327.6701 L373.786514,10324.0786 Z M370.850172,10330.8512 C371.130224,10330.941 371.464886,10330.7728 371.571305,10330.4678 L372.152413,10328.8103 L375.44162,10328.8103 L376.010125,10330.4692 C376.110944,10330.7742 376.454007,10330.9395 376.753662,10330.8426 C377.033714,10330.7329 377.180741,10330.4051 377.072921,10330.1029 L374.321413,10322.1404 C374.266803,10321.9722 374.14078,10321.8453 373.993753,10321.804 C373.916738,10321.7755 373.842525,10321.7613 373.773912,10321.7613 C373.691297,10321.7613 373.612882,10321.7798 373.541469,10321.8168 C373.412645,10321.881 373.317428,10321.9921 373.27402,10322.1304 L370.498707,10330.1001 C370.393688,10330.3951 370.550517,10330.7315 370.850172,10330.8512 Z M383.231258,10311.9488 C383.231258,10311.2946 383.764757,10310.7616 384.420078,10310.7616 C385.051594,10310.7616 385.586493,10311.3046 385.586493,10311.9488 C385.586493,10312.6101 385.051594,10313.1673 384.420078,10313.1673 C383.775959,10313.1673 383.231258,10312.6101 383.231258,10311.9488 Z M386.968548,10311.9488 C386.968548,10311.2946 387.496445,10310.7616 388.144765,10310.7616 C388.794485,10310.7616 389.322383,10311.2946 389.322383,10311.9488 C389.322383,10312.6215 388.794485,10313.1673 388.144765,10313.1673 C387.496445,10313.1673 386.968548,10312.6215 386.968548,10311.9488 Z M360.353835,10315.5232 L394.647566,10315.5232 L394.647566,10308.3844 L360.353835,10308.3844 L360.353835,10315.5232 Z M360.353835,10338.6042 L394.647566,10338.6042 L394.647566,10316.6847 L360.353835,10316.6847 L360.353835,10338.6042 Z M395.812581,10306 L359.187419,10306 C358.532098,10306 358,10306.533 358,10307.1872 L358,10339.7686 C358,10340.4627 358.532098,10341 359.187419,10341 L395.770573,10341 C396.467902,10341 397,10340.4627 397,10339.8014 L397,10307.2299 C397,10306.533 396.467902,10306 395.812581,10306 Z" id="icon-dispaly-ad"></path>
        </g>
    </g>
</svg>