<svg xmlns="http://www.w3.org/2000/svg" xmlns:xlink="http://www.w3.org/1999/xlink" width="41" height="47" viewBox="0 0 41 47"><defs><path id="vxusa" d="M706.03 1166.95a4.33 4.33 0 1 1 3.07-7.4 4.28 4.28 0 0 1 0 6.13 4.3 4.3 0 0 1-3.07 1.27m-2.68-7a3.76 3.76 0 0 0 0 5.35 3.78 3.78 0 0 0 5.35 0l.12.12-.12-.12c.7-.71 1.1-1.68 1.1-2.68a3.77 3.77 0 0 0-6.45-2.67m9.05 10.64a20.34 20.34 0 0 1-3.45 24.45l-.05.05a20.4 20.4 0 0 1-14.4 5.91 20.3 20.3 0 0 1-14.64-6.13 20.38 20.38 0 0 1-5.86-14.36c0-5.45 2.11-10.57 5.91-14.4l.16-.12a20.46 20.46 0 0 1 16.08-5.85c-.21.84-.32 1.7-.3 2.57a160.12 160.12 0 0 0-.65-.67.78.78 0 0 0-.57-.25h-.14c-1.1 0-2.12.09-3.04.26a.77.77 0 0 0-.61.59c-.08.33-.15.73-.2 1.09l-.03.16c-.37 1.95-.79 4.16-1.77 5.12-.12.12-.42.36-.8.66-2.1 1.68-2.7 2.26-2.67 2.9 0 .89.14.89 3.76.89 1.07 0 2.46.4 3.63 1.03.91.5 1.65 1.15 2.13 1.85.55.82.72 1.7.51 2.58a4.43 4.43 0 0 1-1.1 1.98c-2.42 2.72-2.56 3.19-2.34 4.86.06.5.15 1.16.15 2.23 0 .55.02 1.11.04 1.63l.02.4c.02 1.03.05 1.91-.05 2.6-.08.7-.3 1.57-.83 1.74-.9.28-2.78-1.02-4.01-2.39a22.48 22.48 0 0 1-3.4-4.87c-.24-.62-.93-.96-1.8-1.39-1.48-.74-2.87-1.44-2.94-3.68-.05-1.72.31-3.04.5-3.74.02-.04.07-.1.12-.14.11-.11.41-.4.32-.84a.9.9 0 0 0-.58-.62c-.45-.13-1.03-.1-1.93.13l-.58.12-.44.08a.77.77 0 0 0-.62.65 18.8 18.8 0 0 0 12.44 20.58.8.8 0 0 0 .25.04h.14c.83-.16 1.66-.43 2.45-.7a16.8 16.8 0 0 1 2.2-.61c3.22-.58 6.26-1.13 9.62-.01.2.06.43.04.61-.06a16.9 16.9 0 0 0 3.94-2.96l.22-.17c.9-.93 1.76-1.99 2.47-3.07a.78.78 0 0 0-.14-1 .77.77 0 0 0-1.01 0 8.14 8.14 0 0 1-1.85 1.2c-.61.3-1.18.36-1.54.17-.06-.04-.14-.11-.12-.07l-.1-.14c-1.19-1.36-.55-3.3.2-5.55.58-1.8 1.2-3.66.4-5.18-.43-.84-1.22-1.43-2.41-1.79a6.75 6.75 0 0 1-3.82-2.85c-1.07-1.72-.71-2.73.64-4.3l.36.22c-.95 1.03-1.8 2.02-.66 3.88a6.96 6.96 0 0 0 3.63 2.68c1.48.45 2.41 1.08 2.85 1.93.75 1.44.04 3.54-.64 5.59-.63 1.93-1.23 3.75-.33 4.99.22.29.63.4.95.25l.43-.2a8.08 8.08 0 0 0 2.01-1.4 16.35 16.35 0 0 0 3.42-4.44c.2-.11.34-.3.38-.53a18.62 18.62 0 0 0-1.96-12.63c.52-.28 1-.6 1.44-.95m-36 4.9c-.07.27 0 .56.2.76.2.2.47.27.75.2l.14-.04a4.3 4.3 0 0 1 2.17-.1c.78.26.87.29.41 2.04-.23.8-.58 2.03-.52 3.67.06 1.97 1.54 2.72 2.74 3.33.88.44 1.65.83 1.97 1.57.44 1.1 1.88 3.17 3.33 4.8l.16.18c1.05 1.18 1.92 1.97 2.73 1.97.12 0 .24-.01.35-.05.29-.1.78-.38.88-1.25.12-.92.08-1.85.05-2.75l-.01-.26c-.02-.49-.05-1.02-.05-1.59a20.6 20.6 0 0 0-.15-2.16c-.24-1.88-.27-2.12 2.44-5.2.52-.58.87-1.18 1.01-1.75.19-.76.04-1.53-.45-2.28a6.31 6.31 0 0 0-1.98-1.75 7.57 7.57 0 0 0-3.46-.96c-4.1 0-4.11-.12-4.15-1.3-.03-.97 1.24-1.95 2.35-2.82.46-.35.9-.69 1.25-1.03.88-.88 1.29-2.9 1.67-5.08l.05-.27a.77.77 0 0 0-.98-.87c-3 .86-5.76 2.48-7.96 4.68l-.13.1a19.01 19.01 0 0 0-4.8 8.21m24.08 22.84a.78.78 0 0 0 .53-.81.77.77 0 0 0-.68-.7c-2.43-.3-4.81.17-6.93.58l-.2.04c-.3.06-.6.13-.9.23a.78.78 0 0 0-.52.82c.04.36.33.65.7.68a19.76 19.76 0 0 0 8-.85m2.24-27.68a8.5 8.5 0 0 1-3.85-3.13 8.71 8.71 0 0 1 1.02-10.97 8.62 8.62 0 0 1 12.25 0 8.73 8.73 0 0 1 1.03 10.97 8.63 8.63 0 0 1-3.86 3.13l-3 3.02c-.15.14-.48.08-.52.08l-2.94-3.01-.13-.1m-2.26-13.52a7.9 7.9 0 0 0-.93 9.95 7.75 7.75 0 0 0 3.64 2.9c.05.01.1.04.13.08l2.72 2.77 2.7-2.75c.04-.04.1-.08.15-.1a7.8 7.8 0 0 0 3.64-2.9 7.9 7.9 0 0 0-.94-9.95 7.8 7.8 0 0 0-5.55-2.3 7.8 7.8 0 0 0-5.56 2.3"/></defs><g><g transform="translate(-674 -1154)"><use fill="#838383" xlink:href="#vxusa"/></g></g></svg>