<svg xmlns="http://www.w3.org/2000/svg" xmlns:xlink="http://www.w3.org/1999/xlink" width="23" height="28" viewBox="0 0 23 28"><defs><path id="pqdga" d="M1088 1554.33c0-1.1.9-2 2-2h12.76l8.24 8.24V1578a2 2 0 0 1-2 2h-19a2 2 0 0 1-2-2z"/><path id="pqdgb" d="M1103.8 1561.75a2 2 0 0 1-2-2v-7.26l9.27 9.26z"/><path id="pqdge" d="M1102.18 1571.2v-4.33h3.1v.79h-2.17v.94h2.13v.8h-2.13v1.8zm-3.78-.8h.8a1.3 1.3 0 0 0 1.36-1.36c0-.77-.47-1.36-1.37-1.36h-.8zm-.94.8v-4.33h1.73c1.37 0 2.33.86 2.33 2.17s-.96 2.17-2.33 2.17zm-1.53-2.94c0-.36-.27-.6-.64-.6h-1v1.2h1c.37 0 .64-.24.64-.6zm-2.57 2.95v-4.34h2.05c.96 0 1.47.63 1.47 1.4 0 .75-.52 1.38-1.47 1.38h-1.11v1.56z"/><clipPath id="pqdgc"><use fill="#fff" xlink:href="#pqdga"/></clipPath><clipPath id="pqdgd"><use fill="#fff" xlink:href="#pqdgb"/></clipPath></defs><g><g transform="translate(-1088 -1552)"><g><g><g><use fill="snow" xlink:href="#pqdga"/><use fill="#fff" fill-opacity="0" stroke="#ff533d" stroke-miterlimit="50" stroke-width="5" clip-path="url(&quot;#pqdgc&quot;)" xlink:href="#pqdga"/></g><g><use fill="snow" xlink:href="#pqdgb"/><use fill="#fff" fill-opacity="0" stroke="#ff533d" stroke-miterlimit="50" stroke-width="4" clip-path="url(&quot;#pqdgd&quot;)" xlink:href="#pqdgb"/></g></g><g><use fill="#ff533d" xlink:href="#pqdge"/></g></g></g></g></svg>