<svg xmlns="http://www.w3.org/2000/svg" xmlns:xlink="http://www.w3.org/1999/xlink" width="27" height="26" viewBox="0 0 27 26"><defs><path id="v7mia" d="M873.72 2831.87a.73.73 0 0 1 0 1.03.73.73 0 0 1-1.02 0l-4.05-4.1-.32.22c-.12.1-.25.18-.38.26l-.22.14v5.85c0 .4-.32.73-.72.73h-12.2a.7.7 0 0 1-.51-.21l-7.09-7.18a.72.72 0 0 1-.21-.51v-17.37c0-.4.32-.73.72-.73h19.3c.39 0 .71.32.71.73v5.04l.22.13a7.87 7.87 0 0 1 2 11.57l-.25.33zm-19.57-3.11h-4.77l4.77 4.83zm12.16 1.33l-.58.15a7.85 7.85 0 0 1-9.67-7.64c0-4.35 3.5-7.9 7.8-7.9.6 0 1.23.09 1.87.25l.58.14v-3.64h-17.88v16.52h6.38c.07 0 .13.06.13.13v6.45h11.37zm.46-1.8a6.43 6.43 0 0 0 3.43-5.7c0-2.4-1.31-4.59-3.43-5.7a6.22 6.22 0 0 0-2.93-.73 6.41 6.41 0 0 0-6.36 6.44 6.4 6.4 0 0 0 6.36 6.43c1.02 0 2-.25 2.93-.73z"/></defs><g><g transform="translate(-847 -2810)"><use fill="#303e60" xlink:href="#v7mia"/></g></g></svg>