<?xml version="1.0" encoding="UTF-8"?>
<svg width="17px" height="20px" viewBox="0 0 17 20" version="1.1" xmlns="http://www.w3.org/2000/svg" xmlns:xlink="http://www.w3.org/1999/xlink">
    <!-- Generator: Sketch 50.2 (55047) - http://www.bohemiancoding.com/sketch -->
    <title>icon-ada-compliance</title>
    <desc>Created with Sketch.</desc>
    <defs></defs>
    <g id="Page-1" stroke="none" stroke-width="1" fill="none" fill-rule="evenodd">
        <g id="TT-Website-Style-Guide" transform="translate(-821.000000, -11026.000000)" fill="#333333">
            <path d="M826.213,11033.28 L826.113,11032.726 C824.878,11032.949 823.75,11033.536 822.851,11034.424 L823.247,11034.825 C824.065,11034.017 825.09,11033.483 826.213,11033.28 Z M831.834,11040.743 L831.312,11040.529 C830.63,11042.193 829.027,11043.267 827.23,11043.267 C824.798,11043.267 822.819,11041.288 822.819,11038.856 C822.819,11036.793 824.221,11035.026 826.229,11034.56 L826.101,11034.011 C823.838,11034.537 822.256,11036.53 822.256,11038.856 C822.256,11041.599 824.487,11043.83 827.23,11043.83 C829.256,11043.83 831.064,11042.619 831.834,11040.743 Z M832.552,11042.097 L832.071,11041.804 C831.032,11043.507 829.222,11044.524 827.23,11044.524 C824.105,11044.524 821.563,11041.981 821.563,11038.856 C821.563,11037.33 822.161,11035.898 823.247,11034.825 L822.851,11034.424 C821.657,11035.604 821,11037.178 821,11038.856 C821,11042.292 823.795,11045.087 827.23,11045.087 C829.42,11045.087 831.409,11043.969 832.552,11042.097 Z M835.097,11042.686 L837.288,11042.686 L837.288,11041.999 L835.584,11041.999 L833.627,11038.497 L828.46,11038.497 L828.46,11033.819 L832.678,11033.819 L832.678,11033.131 L828.46,11033.131 L828.46,11029.779 L828.645,11029.711 C829.284,11029.478 829.713,11028.865 829.713,11028.185 C829.713,11027.291 828.985,11026.562 828.09,11026.562 C827.195,11026.562 826.467,11027.291 826.467,11028.185 C826.467,11028.852 826.867,11029.442 827.486,11029.691 L827.662,11029.761 L827.662,11039.184 L833.141,11039.184 L835.097,11042.686 Z M837.851,11043.249 L834.766,11043.249 L832.81,11039.747 L827.099,11039.747 L827.099,11030.133 C826.367,11029.763 825.904,11029.018 825.904,11028.185 C825.904,11026.98 826.885,11026 828.09,11026 C829.296,11026 830.276,11026.98 830.276,11028.185 C830.276,11029.034 829.78,11029.805 829.022,11030.163 L829.022,11032.568 L833.24,11032.568 L833.24,11034.381 L829.022,11034.381 L829.022,11037.934 L833.958,11037.934 L835.914,11041.436 L837.851,11041.436 L837.851,11043.249 Z" id="icon-ada-compliance"></path>
        </g>
    </g>
</svg>