<?xml version="1.0" encoding="UTF-8"?>
<svg width="13px" height="19px" viewBox="0 0 13 19" version="1.1" xmlns="http://www.w3.org/2000/svg" xmlns:xlink="http://www.w3.org/1999/xlink">
    <!-- Generator: Sketch 50.2 (55047) - http://www.bohemiancoding.com/sketch -->
    <title>icon-ppc</title>
    <desc>Created with Sketch.</desc>
    <defs></defs>
    <g id="Page-1" stroke="none" stroke-width="1" fill="none" fill-rule="evenodd">
        <g id="TT-Website-Style-Guide" transform="translate(-1184.000000, -11132.000000)" fill="#4A4A4A">
            <path d="M1195.231,11143.4829 C1195.197,11143.5689 1195.184,11143.5689 1195.117,11143.5689 L1190.644,11143.5689 L1192.897,11149.0409 L1192.899,11149.1459 C1192.879,11149.1919 1192.856,11149.2149 1192.803,11149.2379 L1191.024,11150.0079 C1190.979,11149.9879 1190.956,11149.9649 1190.939,11149.9259 L1188.787,11144.6879 L1185.197,11148.3599 L1185.101,11148.3869 L1185.093,11148.3959 C1185.014,11148.3589 1185,11148.3379 1185,11148.2529 L1185,11133.1359 C1185,11133.0539 1185.008,11133.0459 1185.076,11133.0189 C1185.152,11132.9859 1185.162,11132.9929 1185.198,11133.0299 L1195.22,11143.3329 C1195.254,11143.3669 1195.27,11143.3829 1195.231,11143.4829 M1195.932,11142.6309 L1185.913,11132.3299 L1185.908,11132.3249 C1185.58,11131.9969 1185.138,11131.9129 1184.697,11132.0929 C1184.254,11132.2749 1184,11132.6539 1184,11133.1359 L1184,11148.2529 C1184,11148.7329 1184.241,11149.1069 1184.679,11149.3059 C1185.139,11149.5149 1185.594,11149.4189 1185.912,11149.0599 L1188.439,11146.4739 L1190.017,11150.3129 C1190.137,11150.5939 1190.35,11150.8069 1190.631,11150.9269 C1190.779,11150.9909 1190.927,11151.0219 1191.071,11151.0219 C1191.218,11151.0219 1191.36,11150.9889 1191.489,11150.9239 L1193.204,11150.1539 C1193.485,11150.0329 1193.698,11149.8209 1193.818,11149.5399 C1193.943,11149.2499 1193.943,11148.9429 1193.821,11148.6599 L1192.137,11144.5689 L1195.117,11144.5689 C1195.602,11144.5689 1195.983,11144.3059 1196.163,11143.8469 C1196.341,11143.3899 1196.258,11142.9569 1195.932,11142.6309" id="icon-ppc"></path>
        </g>
    </g>
</svg>