<svg xmlns="http://www.w3.org/2000/svg" xmlns:xlink="http://www.w3.org/1999/xlink" width="10" height="13" viewBox="0 0 10 13"><defs><path id="3rbwa" d="M1310.27 4304.02c0-1.66 1.25-3.02 2.78-3.02 1.54 0 2.79 1.36 2.79 3.02 0 1.67-1.25 3.02-2.79 3.02-1.53 0-2.78-1.35-2.78-3.02m6.02 4.35a10.06 10.06 0 0 0-6.58 0c-1 .35-1.77 1.48-1.7 2.46l.18 2.65c.02.3.27.52.58.52h8.46c.3 0 .56-.23.58-.52l.19-2.65c.07-.98-.71-2.1-1.71-2.46"/></defs><g><g transform="translate(-1308 -4301)"><use fill="#303e60" xlink:href="#3rbwa"/></g></g></svg>