<?xml version="1.0" encoding="UTF-8"?>
<svg width="21px" height="15px" viewBox="0 0 21 15" version="1.1" xmlns="http://www.w3.org/2000/svg" xmlns:xlink="http://www.w3.org/1999/xlink">
    <!-- Generator: Sketch 50.2 (55047) - http://www.bohemiancoding.com/sketch -->
    <title>icon-email-marketing</title>
    <desc>Created with Sketch.</desc>
    <defs></defs>
    <g id="Page-1" stroke="none" stroke-width="1" fill="none" fill-rule="evenodd">
        <g id="TT-Website-Style-Guide" transform="translate(-459.000000, -11154.000000)" fill="#4A4A4A">
            <path d="M459.006,11153.9999 L459.006,11167.6089 L459,11167.6129 L459.006,11167.6329 L459.006,11168.0949 L479.872,11168.0949 L479.872,11153.9999 L459.006,11153.9999 Z M460.259,11154.6509 L478.572,11154.6509 L477.648,11155.3449 L469.437,11162.0709 L460.259,11154.6509 Z M471.25,11161.4269 L478.045,11155.8609 L479.221,11154.9759 L479.221,11167.1399 L471.25,11161.4269 Z M459.657,11154.9999 L467.617,11161.4359 L459.657,11167.1399 L459.657,11154.9999 Z M470.729,11161.8539 L478.528,11167.4439 L460.35,11167.4439 L468.142,11161.8609 L469.44,11162.9099 L470.729,11161.8539 Z" id="icon-email-marketing"></path>
        </g>
    </g>
</svg>