<?xml version="1.0" encoding="UTF-8"?>
<svg width="40px" height="40px" viewBox="0 0 40 40" version="1.1" xmlns="http://www.w3.org/2000/svg" xmlns:xlink="http://www.w3.org/1999/xlink">
  <title>icon-digital-marketing</title>
  <defs>
    <path
      d="M24.2715951,38.3340178 C26.2809331,36.3749152 27.8892658,33.0244617 28.8306938,28.8317234 C33.0247197,27.8888244 36.3750536,26.2818716 38.3340862,24.2710245 C36.7444383,31.2493394 31.2482235,36.7457505 24.2715951,38.3340178 Z M1.91735109,24.2710245 C3.87638373,26.2818716 7.22671761,27.8888244 11.4221808,28.8317234 C12.3636088,33.025899 13.9705042,36.3749152 15.9798422,38.3340178 C9.00177653,36.7457505 3.506999,31.2493394 1.91735109,24.2710245 Z M15.9798422,1.91598222 C13.9705042,3.87508481 12.3636088,7.22410099 11.4221808,11.4182766 C7.22671761,12.3611756 3.87638373,13.9681284 1.91735109,15.9789755 C3.506999,9.00066064 9.00177653,3.50568689 15.9798422,1.91598222 Z M38.3340862,15.9789755 C36.3750536,13.9681284 33.0247197,12.3611756 28.8306938,11.4182766 C27.8892658,7.22553834 26.2809331,3.87508481 24.2715951,1.91598222 C31.2482235,3.50568689 36.7444383,9.00066064 38.3340862,15.9789755 Z M29.7419387,20.8443917 L38.7279049,20.8443917 C38.157299,23.5681623 34.3987734,25.955594 29.1454614,27.2621416 C29.4975986,25.2627933 29.704569,23.1082116 29.7419387,20.8443917 Z M20.8436473,28.3042174 L20.8436473,20.8443917 L28.304644,20.8443917 C28.2615251,23.226074 28.0186223,25.5100168 27.6032442,27.6042299 C25.5105431,28.0181856 23.2266819,28.2625344 20.8436473,28.3042174 Z M20.8436473,38.7264132 L20.8436473,29.7415634 C23.1088237,29.7056298 25.2618912,29.4986519 27.2626053,29.1450648 C25.9546672,34.3985644 23.568758,38.1572242 20.8436473,38.7264132 Z M19.4063527,29.7415634 L19.4063527,38.7264132 C16.6826793,38.1572242 14.2967701,34.3985644 12.9902692,29.1450648 C14.9895461,29.4986519 17.1426136,29.7056298 19.4063527,29.7415634 Z M11.9482306,20.8443917 L19.4063527,20.8443917 L19.4063527,28.3042174 C17.0247554,28.2625344 14.7423315,28.0181856 12.6481931,27.6042299 C12.2342522,25.5100168 11.9899122,23.226074 11.9482306,20.8443917 Z M10.5109359,20.8443917 C10.5468683,23.1082116 10.7538387,25.2627933 11.1074132,27.2621416 C5.8541012,25.955594 2.09413834,23.5681623 1.52353235,20.8443917 L10.5109359,20.8443917 Z M10.5109359,19.4070457 L1.52353235,19.4070457 C2.09413834,16.6818377 5.8541012,14.294406 11.1074132,12.9878584 C10.7538387,14.9872067 10.5468683,17.1417884 10.5109359,19.4070457 Z M19.4063527,11.9457826 L19.4063527,19.4070457 L11.9482306,19.4070457 C11.9899122,17.023926 12.2342522,14.7399832 12.6481931,12.6457701 C14.7423315,12.2318144 17.0247554,11.9874656 19.4063527,11.9457826 Z M19.4063527,1.52358676 L19.4063527,10.5084366 C17.1426136,10.5458076 14.9895461,10.7527854 12.9902692,11.1049352 C14.2967701,5.85143556 16.6826793,2.09277577 19.4063527,1.52358676 Z M20.8436473,10.5084366 L20.8436473,1.52358676 C23.568758,2.09277577 25.9546672,5.85143556 27.2626053,11.1049352 C25.2618912,10.7527854 23.1088237,10.5458076 20.8436473,10.5084366 Z M28.304644,19.4070457 L20.8436473,19.4070457 L20.8436473,11.9457826 C23.2266819,11.9874656 25.5105431,12.2318144 27.6032442,12.6457701 C28.0186223,14.7399832 28.2615251,17.023926 28.304644,19.4070457 Z M29.7419387,19.4070457 C29.704569,17.1417884 29.4975986,14.9872067 29.1454614,12.9878584 C34.3987734,14.294406 38.157299,16.683275 38.7279049,19.4070457 L29.7419387,19.4070457 Z M20.125,0 C9.02908513,0 0,9.02797022 0,20.1257187 C0,31.2220298 9.02908513,40.25 20.125,40.25 C31.2223522,40.25 40.25,31.2220298 40.25,20.1257187 C40.25,9.02797022 31.2223522,0 20.125,0 Z"
      id="path-1"></path>
  </defs>
  <g id="Page-1" stroke="none" stroke-width="1" fill="none" fill-rule="evenodd">
    <g id="TT-Website-Style-Guide" transform="translate(-98.000000, -9878.000000)">
      <g id="icon-digital-marketing" transform="translate(98.000000, 9878.000000)">
        <mask id="mask-2" fill="white">
          <use xlink:href="#path-1"></use>
        </mask>
        <use fill-rule="evenodd" xlink:href="#path-1"></use>
        <g id="Mixin/Fill/gray" mask="url(#mask-2)" fill="#303e60" fill-rule="evenodd">
          <rect id="Rectangle" x="0" y="0" width="40" height="40"></rect>
        </g>
      </g>
    </g>
  </g>
</svg>
