<?xml version="1.0" encoding="UTF-8"?>
<svg width="36px" height="26px" viewBox="0 0 36 26" version="1.1" xmlns="http://www.w3.org/2000/svg" xmlns:xlink="http://www.w3.org/1999/xlink">
    <!-- Generator: Sketch 50.2 (55047) - http://www.bohemiancoding.com/sketch -->
    <title>icon-webinar-alt</title>
    <desc>Created with Sketch.</desc>
    <defs>
        <path d="M15.0245617,18.1271317 L15.0245617,7.87538963 L23.9163498,13.0017409 L15.0245617,18.1271317 Z M24.886468,11.6320244 L15.732902,6.35583037 C15.4268528,6.18005328 15.1169539,6.09072395 14.8118672,6.09072395 C13.965901,6.09072395 13.3518777,6.77942432 13.3518777,7.7265074 L13.3518777,18.2769745 C13.3518777,19.2240576 13.965901,19.9108369 14.8118672,19.9108369 C15.1169539,19.9108369 15.4258904,19.8224681 15.7300148,19.6476515 L24.8845432,14.3714574 C25.4552575,14.042956 25.7690061,13.5550065 25.7690061,12.9978988 C25.7690061,12.4436727 25.4552575,11.9586048 24.886468,11.6320244 Z M33.2556626,22.9509159 L33.1469092,23.4571155 L32.6300903,23.5147473 C27.7766119,24.0584076 22.887524,24.3302377 18.0003609,24.3302377 C13.111273,24.3302377 8.22507235,24.0584076 3.37063152,23.5147473 L2.85381258,23.4571155 L2.74505925,22.9509159 C1.31779205,16.3472687 1.31779205,9.65141054 2.74505925,3.0477633 L2.85381258,2.54156372 L3.37063152,2.48393189 C13.0785508,1.39853242 22.9231335,1.39853242 32.6300903,2.48393189 L33.1469092,2.54156372 L33.2556626,3.0477633 C34.6819673,9.65141054 34.6819673,16.3472687 33.2556626,22.9509159 Z M34.6386585,1.58871746 C34.5578153,1.25157125 34.2719769,0.996070136 33.9264685,0.953806794 C28.6437513,0.317935598 23.3225373,0 18.0022857,0 C12.6810718,0 7.36082019,0.317935598 2.07617813,0.953806794 C1.72489524,0.997030666 1.44386892,1.2467686 1.36206332,1.58967799 C-0.454021106,9.16057945 -0.454021106,16.8380998 1.36206332,24.4099618 C1.44290651,24.7480685 1.73066975,25.0035696 2.07617813,25.045833 C12.6483495,26.3175754 23.3437105,26.3185359 33.9283934,25.045833 C34.2719769,25.0035696 34.5578153,24.7480685 34.6386585,24.4099618 C36.4537805,16.8380998 36.4537805,9.16057945 34.6386585,1.58871746 Z" id="path-1"></path>
    </defs>
    <g id="Page-1" stroke="none" stroke-width="1" fill="none" fill-rule="evenodd">
        <g id="icon-webinar-alt">
            <mask id="mask-2" fill="white">
                <use xlink:href="#path-1"></use>
            </mask>
            <use id="Fill-1" fill="#808285" fill-rule="evenodd" xlink:href="#path-1"></use>
            <g id="Mixin/Fill/Primary" mask="url(#mask-2)" fill="#303E60" fill-rule="evenodd">
                <rect id="Box" x="0" y="0" width="36" height="26"></rect>
            </g>
        </g>
    </g>
</svg>