<?xml version="1.0" encoding="UTF-8"?>
<svg width="40px" height="35px" viewBox="0 0 40 35" version="1.1" xmlns="http://www.w3.org/2000/svg" xmlns:xlink="http://www.w3.org/1999/xlink">
    <!-- Generator: Sketch 50.2 (55047) - http://www.bohemiancoding.com/sketch -->
    <title>icon-rate-calendar</title>
    <desc>Created with Sketch.</desc>
    <defs>
        <path d="M30.7903499,27.7249009 L34.3349495,27.7249009 L34.3349495,24.2179657 L30.7903499,24.2179657 L30.7903499,27.7249009 Z M24.6521409,27.7249009 L28.2002453,27.7249009 L28.2002453,24.2179657 L24.6521409,24.2179657 L24.6521409,27.7249009 Z M18.5174368,27.7249009 L22.0643729,27.7249009 L22.0643729,24.2179657 L18.5174368,24.2179657 L18.5174368,27.7249009 Z M12.3827326,27.7249009 L15.9261639,27.7249009 L15.9261639,24.2179657 L12.3827326,24.2179657 L12.3827326,27.7249009 Z M6.24686021,27.7249009 L9.79145978,27.7249009 L9.79145978,24.2179657 L6.24686021,24.2179657 L6.24686021,27.7249009 Z M30.7903499,22.0911493 L34.3349495,22.0911493 L34.3349495,18.584214 L30.7903499,18.584214 L30.7903499,22.0911493 Z M24.6521409,22.0911493 L28.2002453,22.0911493 L28.2002453,18.584214 L24.6521409,18.584214 L24.6521409,22.0911493 Z M18.5174368,22.0911493 L22.0643729,22.0911493 L22.0643729,18.584214 L18.5174368,18.584214 L18.5174368,22.0911493 Z M12.3827326,22.0911493 L15.9261639,22.0911493 L15.9261639,18.584214 L12.3827326,18.584214 L12.3827326,22.0911493 Z M6.24686021,22.0911493 L9.79145978,22.0911493 L9.79145978,18.584214 L6.24686021,18.584214 L6.24686021,22.0911493 Z M37.5138735,13.6844452 L2.48612653,13.6844452 L2.48612653,5.47308454 L7.20953327,5.47308454 L7.20953327,7.25544914 C7.20953327,7.93279392 7.76680881,8.48530383 8.45259653,8.48530383 C9.13838425,8.48530383 9.69565979,7.93279392 9.69565979,7.25544914 L9.69565979,5.47308454 L30.5076231,5.47308454 L30.5076231,7.25544914 C30.5076231,7.93279392 31.0648987,8.48530383 31.7506864,8.48530383 C32.4364741,8.48530383 32.9949179,7.93279392 32.9949179,7.25544914 L32.9949179,5.47308454 L37.5138735,5.47308454 L37.5138735,13.6844452 Z M2.48729482,32.5402906 L37.5138735,32.5402906 L37.5138735,14.3363606 L2.48729482,14.3363606 L2.48729482,32.5402906 Z M38.7569367,3.01337517 L32.9949179,3.01337517 L32.9949179,1.22985469 C32.9949179,0.551354029 32.4364741,2.27373675e-13 31.7506864,2.27373675e-13 C31.0648987,2.27373675e-13 30.5076231,0.551354029 30.5076231,1.22985469 L30.5076231,3.01337517 L9.69565979,3.01337517 L9.69565979,1.22985469 C9.69565979,0.551354029 9.13838425,2.27373675e-13 8.45259653,2.27373675e-13 C7.76680881,2.27373675e-13 7.20953327,0.551354029 7.20953327,1.22985469 L7.20953327,3.01337517 L1.24306326,3.01337517 C0.557275542,3.01337517 0,3.56472919 0,4.24322985 L0,33.7701453 C0,34.4474901 0.557275542,35 1.24306326,35 L38.7569367,35 C39.4427245,35 40,34.4474901 40,33.7701453 L40,4.24322985 C40,3.56472919 39.4427245,3.01337517 38.7569367,3.01337517 Z" id="path-1"></path>
    </defs>
    <g id="Page-1" stroke="none" stroke-width="1" fill="none" fill-rule="evenodd">
        <g id="Solutions-TTWeb1.0" transform="translate(-737.000000, -1276.000000)">
            <g id="section-1" transform="translate(-153.000000, 859.000000)">
                <g id="Group-23" transform="translate(878.000000, 0.000000)">
                    <g id="Group" transform="translate(11.000000, 316.000000)">
                        <g id="Group-20" transform="translate(0.000000, 4.000000)">
                            <g id="icon-rate-calendar" transform="translate(1.000000, 97.000000)">
                                <mask id="mask-2" fill="white">
                                    <use xlink:href="#path-1"></use>
                                </mask>
                                <use fill="#838383" fill-rule="evenodd" xlink:href="#path-1"></use>
                                <g id="Mixin/Fill/gray" mask="url(#mask-2)" fill="#838383" fill-rule="evenodd">
                                    <rect id="Rectangle" x="0" y="0" width="47" height="44"></rect>
                                </g>
                            </g>
                        </g>
                    </g>
                </g>
            </g>
        </g>
    </g>
</svg>