<svg xmlns="http://www.w3.org/2000/svg" xmlns:xlink="http://www.w3.org/1999/xlink" width="35" height="26" viewBox="0 0 35 26"><defs><path id="eckha" d="M870.93 2934.4c.55 0 1 .46 1 1.02v19.15c0 .56-.45 1.01-1 1.01h-18.87c-.55 0-1-.45-1-1.01v-19.15c0-.56.45-1.01 1-1.01zM845 2957.5a.5.5 0 0 1-.5.51.5.5 0 0 1-.5-.51v-24.98c0-.28.23-.51.5-.51.28 0 .5.23.5.5zm3.38-1.67a.5.5 0 0 1-.5.51.5.5 0 0 1-.5-.5v-21.65a.5.5 0 0 1 .5-.51c.27 0 .5.23.5.5zm30.62 1.67a.5.5 0 0 1-.5.51.5.5 0 0 1-.5-.51v-24.98c0-.28.22-.51.5-.51s.5.23.5.5zm-3.36-1.67a.5.5 0 0 1-.51.51.5.5 0 0 1-.5-.5v-21.65a.5.5 0 0 1 .5-.51c.28 0 .5.23.5.5z"/></defs><g><g transform="translate(-844 -2932)"><use fill="#303e60" xlink:href="#eckha"/></g></g></svg>