<?xml version="1.0" encoding="UTF-8"?>
<svg width="45px" height="48px" viewBox="0 0 45 48" version="1.1" xmlns="http://www.w3.org/2000/svg" xmlns:xlink="http://www.w3.org/1999/xlink">
    <title>icon-partners</title>
    <defs>
        <path d="M40.5039732,32.9657474 C38.9019954,32.9657474 37.59721,31.6780842 37.59721,30.0936304 C37.59721,28.5107469 38.9019954,27.2215134 40.5039732,27.2215134 C42.1075402,27.2215134 43.4107364,28.5107469 43.4107364,30.0936304 C43.4107364,31.6780842 42.1075402,32.9657474 40.5039732,32.9657474 M21.3962564,27.2325056 C18.9265407,27.2325056 16.9193007,25.24762 16.9193007,22.8089116 C16.9193007,20.3686328 18.9265407,18.3837472 21.3962564,18.3837472 C23.8643828,18.3837472 25.8732121,20.3686328 25.8732121,22.8089116 C25.8732121,25.24762 23.8643828,27.2325056 21.3962564,27.2325056 M24.5652481,38.3770733 C26.8108776,38.3770733 28.6385308,40.1845127 28.6385308,42.4033762 C28.6385308,44.62381 26.8108776,46.4296791 24.5652481,46.4296791 C22.3180293,46.4296791 20.4903761,44.62381 20.4903761,42.4033762 C20.4903761,40.1845127 22.3180293,38.3770733 24.5652481,38.3770733 M4.49443758,43.5559918 C2.89245983,43.5559918 1.58926364,42.2667583 1.58926364,40.6838748 C1.58926364,39.0994209 2.89245983,37.8117578 4.49443758,37.8117578 C6.09800459,37.8117578 7.40120078,39.0994209 7.40120078,40.6838748 C7.40120078,42.2667583 6.09800459,43.5559918 4.49443758,43.5559918 M9.62775914,13.6774953 C8.28959915,13.6774953 7.20095356,12.6033958 7.20095356,11.2811856 C7.20095356,9.95897537 8.28959915,8.88487585 9.62775914,8.88487585 C10.9659191,8.88487585 12.0545647,9.95897537 12.0545647,11.2811856 C12.0545647,12.6033958 10.9659191,13.6774953 9.62775914,13.6774953 M39.1912414,1.57032093 C40.7948084,1.57032093 42.0980046,2.8579841 42.0980046,4.4408676 C42.0980046,6.02532143 40.7948084,7.31455491 39.1912414,7.31455491 C37.5892636,7.31455491 36.2860675,6.02532143 36.2860675,4.4408676 C36.2860675,2.8579841 37.5892636,1.57032093 39.1912414,1.57032093 M40.5039732,25.6511925 C38.6175172,25.6511925 37.0044146,26.8100893 36.3385132,28.4416528 L27.3385132,24.0180587 C27.4195656,23.6270488 27.4624757,23.221906 27.4624757,22.8089116 C27.4624757,21.6296005 27.1048914,20.5366572 26.5073283,19.6085975 L37.4414621,8.53312396 C37.9802225,8.75925017 38.5714286,8.88487585 39.1912414,8.88487585 C41.6704927,8.88487585 43.6872682,6.89213858 43.6872682,4.4408676 C43.6872682,1.99273727 41.6704927,0 39.1912414,0 C36.7135794,0 34.6968038,1.99273727 34.6968038,4.4408676 C34.6968038,5.70340563 35.2387427,6.83717735 36.0953558,7.64746295 L25.4774854,18.4041614 C24.3967862,17.4258514 22.9728059,16.8134262 21.3962564,16.8134262 C20.013597,16.8134262 18.753311,17.2908038 17.7314144,18.0634017 L13.1495674,13.1467269 C13.454706,12.5876926 13.6438284,11.9595642 13.6438284,11.2811856 C13.6438284,9.09372853 11.8416034,7.31455491 9.62775914,7.31455491 C7.41391489,7.31455491 5.61168992,9.09372853 5.61168992,11.2811856 C5.61168992,13.4686427 7.41391489,15.2478163 9.62775914,15.2478163 C10.5749603,15.2478163 11.4347519,14.908627 12.1244923,14.3637256 L16.6062158,19.1736186 C15.817941,20.1849053 15.3300371,21.4364511 15.3300371,22.8089116 C15.3300371,24.1672392 15.8068162,25.4077927 16.5807876,26.4143684 L7.12149038,37.0941211 C6.38089352,36.5633526 5.47819177,36.2414368 4.49443758,36.2414368 C2.01677556,36.2414368 0,38.2341741 0,40.6838748 C0,43.1335754 2.01677556,45.1263127 4.49443758,45.1263127 C6.97368886,45.1263127 8.99046442,43.1335754 8.99046442,40.6838748 C8.99046442,39.7730886 8.71075402,38.928256 8.23397492,38.2231819 L17.7028077,27.5308666 C18.729472,28.3160271 20.0008829,28.8028266 21.3962564,28.8028266 C21.5297545,28.8028266 21.6553064,28.7729905 21.7872153,28.7635686 L22.9378421,37.0705663 C20.6111602,37.7677888 18.9011125,39.8798704 18.9011125,42.4033762 C18.9011125,45.4890568 21.442345,48 24.5652481,48 C27.6881512,48 30.2277945,45.4890568 30.2277945,42.4033762 C30.2277945,39.3176956 27.6881512,36.8067524 24.5652481,36.8067524 C24.5445877,36.8067524 24.5271058,36.8130337 24.5064453,36.8130337 L23.3494614,28.4557857 C24.8497263,27.9470017 26.0750486,26.8823241 26.7870387,25.502012 L36.0143034,30.0355285 C36.0143034,30.0559427 36.0079463,30.0732162 36.0079463,30.0936304 C36.0079463,32.543331 38.0247219,34.5360683 40.5039732,34.5360683 C42.9832244,34.5360683 45,32.543331 45,30.0936304 C45,27.6439297 42.9832244,25.6511925 40.5039732,25.6511925" id="path-1"></path>
    </defs>
    <g id="Page-1" stroke="none" stroke-width="1" fill="none" fill-rule="evenodd">
        <g id="TT-Website-Style-Guide" transform="translate(-508.000000, -9957.000000)">
            <g id="icon-partners" transform="translate(508.000000, 9957.000000)">
                <mask id="mask-2" fill="white">
                    <use xlink:href="#path-1"></use>
                </mask>
                <use fill-rule="evenodd" xlink:href="#path-1"></use>
                <g id="Mixin/Fill/gray" mask="url(#mask-2)" fill="#303e60" fill-rule="evenodd">
                    <rect id="Rectangle" x="0" y="0" width="47" height="48"></rect>
                </g>
            </g>
        </g>
    </g>
</svg>
