<?xml version="1.0" encoding="UTF-8"?>
<svg width="36px" height="47px" viewBox="0 0 36 47" version="1.1" xmlns="http://www.w3.org/2000/svg" xmlns:xlink="http://www.w3.org/1999/xlink">
    <!-- Generator: Sketch 50.2 (55047) - http://www.bohemiancoding.com/sketch -->
    <title>icon-scarcity</title>
    <desc>Created with Sketch.</desc>
    <defs></defs>
    <g id="Page-1" stroke="none" stroke-width="1" fill="none" fill-rule="evenodd">
        <g id="TT-Website-Style-Guide" transform="translate(-100.000000, -10506.000000)" fill="#838383">
            <path d="M136,10520.621 L132.294817,10524.5286 L135.735778,10528.666 L130.685189,10530.6148 L131.970867,10535.8116 L127.658277,10535.4818 L134.400495,10547.0037 L127.617784,10547.4045 L123.872107,10553 L117.494334,10542.0867 L117.48421,10542.1077 L111.11656,10553 L107.370884,10547.4045 L100.588172,10547.0037 L107.694834,10534.8622 L103.31138,10534.9222 L104.921009,10529.8153 L100,10527.5557 L103.706195,10523.6481 L100.264222,10519.5117 L105.314811,10517.5619 L104.030145,10512.3651 L109.436068,10512.7748 L110.569894,10507.5391 L115.257051,10510.2274 L118.577543,10506 L121.624701,10510.4273 L126.473834,10508.0387 L127.263463,10513.3355 L132.68862,10513.2555 L131.080003,10518.3614 L136,10520.621 Z M124.11507,10549.4032 L126.605439,10545.6745 L131.120497,10545.4057 L126.210624,10537.0099 L125.431118,10540.6376 L121.341245,10538.2901 L119.77211,10539.1785 L118.830629,10540.3788 L124.11507,10549.4032 Z M103.86817,10545.4057 L108.383229,10545.6745 L110.873597,10549.4032 L116.168162,10540.3588 L115.45952,10539.3194 L113.475324,10538.1901 L109.527179,10540.1379 L109.000759,10536.6211 L103.86817,10545.4057 Z M125.724698,10515.1244 L125.055538,10510.7071 L121.017294,10512.7059 L118.486432,10509.0081 L115.712607,10512.546 L111.804955,10510.2973 L110.863474,10514.6647 L106.358539,10514.3139 L107.430612,10518.6512 L103.220269,10520.2702 L106.085206,10523.7191 L103.007677,10526.9761 L107.107674,10528.8549 L105.761255,10533.1233 L110.276314,10533.0523 L110.944462,10537.4696 L114.982706,10535.4708 L117.513568,10539.1695 L120.287393,10535.6317 L124.196057,10537.8803 L125.137538,10533.512 L129.642473,10533.8628 L128.569388,10529.5255 L132.779731,10527.9065 L129.914794,10524.4586 L132.992323,10521.2006 L128.892326,10519.3218 L130.239757,10515.0544 L125.724698,10515.1244 Z M118.000506,10533.0833 C112.969152,10533.0833 108.889401,10529.0548 108.889401,10524.0888 C108.889401,10519.1219 112.969152,10515.0944 118.000506,10515.0944 C123.030848,10515.0944 127.111611,10519.1219 127.111611,10524.0888 C127.111611,10529.0548 123.030848,10533.0833 118.000506,10533.0833 Z M118.000506,10517.0932 C114.082731,10517.0932 110.914091,10520.2212 110.914091,10524.0888 C110.914091,10527.9565 114.082731,10531.0845 118.000506,10531.0845 C121.918281,10531.0845 125.086921,10527.9565 125.086921,10524.0888 C125.086921,10520.2212 121.918281,10517.0932 118.000506,10517.0932 Z" id="icon-scarcity"></path>
        </g>
    </g>
</svg>