<svg xmlns="http://www.w3.org/2000/svg" xmlns:xlink="http://www.w3.org/1999/xlink" width="20" height="17" viewBox="0 0 20 17"><defs><path id="tkq7a" d="M1040.84 3773.34a4.02 4.02 0 0 0-3-1.34c-2.26 0-4.1 1.9-4.1 4.26 0 .33.04.66.11.97a11.51 11.51 0 0 1-8.46-4.45 4.37 4.37 0 0 0 1.27 5.69 4 4 0 0 1-1.86-.54v.06a4.22 4.22 0 0 0 3.3 4.17 3.89 3.89 0 0 1-1.86.08 4.13 4.13 0 0 0 3.83 2.95 8.04 8.04 0 0 1-6.07 1.77 11.32 11.32 0 0 0 6.29 1.91c7.55 0 11.67-6.49 11.67-12.12v-.55c.8-.6 1.5-1.35 2.04-2.2-.73.34-1.53.57-2.36.67a4.24 4.24 0 0 0 1.8-2.36c-.79.49-1.66.84-2.6 1.03z"/></defs><g><g transform="translate(-1024 -3772)"><use fill="#fff" xlink:href="#tkq7a"/></g></g></svg>