<?xml version="1.0" encoding="UTF-8"?>
<svg width="12px" height="21px" viewBox="0 0 12 21" version="1.1" xmlns="http://www.w3.org/2000/svg" xmlns:xlink="http://www.w3.org/1999/xlink">
    <title>icon-location</title>
    <defs></defs>
    <g id="Page-1" stroke="none" stroke-width="1" fill="none" fill-rule="evenodd">
        <g id="TT-Website-Style-Guide" transform="translate(-104.000000, -11298.000000)" fill="#4A4A4A">
            <path d="M110.00013,11298.8104 C107.139453,11298.8104 104.811623,11301.1383 104.811623,11303.999 C104.811623,11306.5079 108.774462,11314.2054 110.00013,11316.5274 C111.225799,11314.2054 115.188637,11306.5079 115.188637,11303.999 C115.188637,11301.1383 112.860808,11298.8104 110.00013,11298.8104 Z M110.00013,11318.24 L109.643722,11317.5825 C109.413174,11317.159 104,11307.1572 104,11303.999 C104,11300.6913 106.691295,11298 110.00013,11298 C113.308965,11298 116.00026,11300.6913 116.00026,11303.999 C116.00026,11307.1572 110.587087,11317.159 110.356539,11317.5825 L110.00013,11318.24 Z M110.00013,11301.8864 C108.835627,11301.8864 107.887557,11302.8345 107.887557,11303.999 C107.887557,11305.1646 108.835627,11306.1127 110.00013,11306.1127 C111.164633,11306.1127 112.112703,11305.1646 112.112703,11303.999 C112.112703,11302.8345 111.164633,11301.8864 110.00013,11301.8864 Z M110.00013,11306.9243 C108.38747,11306.9243 107.075934,11305.6128 107.075934,11303.999 C107.075934,11302.3875 108.38747,11301.0748 110.00013,11301.0748 C111.61279,11301.0748 112.924326,11302.3875 112.924326,11303.999 C112.924326,11305.6128 111.61279,11306.9243 110.00013,11306.9243 Z" id="icon-location"></path>
        </g>
    </g>
</svg>
