<?xml version="1.0" encoding="UTF-8"?>
<svg width="38px" height="30px" viewBox="0 0 38 30" version="1.1" xmlns="http://www.w3.org/2000/svg" xmlns:xlink="http://www.w3.org/1999/xlink">
    <title>icon-resources</title>
    <defs>
        <path d="M36.4166667,30 L1.58333333,30 C0.7125,30 0,29.2894737 0,28.4210526 L0,6.31578947 C0,5.44736842 0.7125,4.73684211 1.58333333,4.73684211 L11.0833333,4.73684211 L11.0833333,1.57894737 C11.0833333,0.710526316 11.7958333,0 12.6666667,0 L25.3333333,0 C26.2041667,0 26.9166667,0.710526316 26.9166667,1.57894737 L26.9166667,4.73684211 L36.4166667,4.73684211 C37.2875,4.73684211 38,5.44736842 38,6.31578947 L38,28.4210526 C38,29.2894737 37.2875,30 36.4166667,30 Z M12.6666667,4.73684211 L25.3333333,4.73684211 L25.3333333,1.57894737 L12.6666667,1.57894737 L12.6666667,4.73684211 Z M36.4166667,6.31578947 L25.3333333,6.31578947 L12.6666667,6.31578947 L1.58333333,6.31578947 L1.58333333,13.4210526 L15.0416667,13.4210526 C15.0416667,12.5526316 15.7541667,11.8421053 16.625,11.8421053 L21.375,11.8421053 C22.2458333,11.8421053 22.9583333,12.5526316 22.9583333,13.4210526 L36.4166667,13.4210526 L36.4166667,6.31578947 Z M16.625,15 L21.375,15 L21.375,13.4210526 L16.625,13.4210526 L16.625,15 Z M36.4166667,15 L22.9583333,15 C22.9583333,15.8684211 22.2458333,16.5789474 21.375,16.5789474 L16.625,16.5789474 C15.7541667,16.5789474 15.0416667,15.8684211 15.0416667,15 L1.58333333,15 L1.58333333,28.4210526 L36.4166667,28.4210526 L36.4166667,15 Z" id="path-1"></path>
    </defs>
    <g id="Page-1" stroke="none" stroke-width="1" fill="none" fill-rule="evenodd">
        <g id="TT-Website-Style-Guide" transform="translate(-991.000000, -9796.000000)">
            <g id="icon-resources" transform="translate(991.000000, 9796.000000)">
                <mask id="mask-2" fill="white">
                    <use xlink:href="#path-1"></use>
                </mask>
                <use fill="#4A4A4A" fill-rule="evenodd" xlink:href="#path-1"></use>
                <g id="Mixin/Fill/gray" mask="url(#mask-2)" fill="#838383" fill-rule="evenodd">
                    <rect id="Rectangle" x="0" y="0" width="47" height="44"></rect>
                </g>
            </g>
        </g>
    </g>
</svg>
