<?xml version="1.0" encoding="UTF-8"?>
<svg width="46px" height="29px" viewBox="0 0 46 29" version="1.1" xmlns="http://www.w3.org/2000/svg" xmlns:xlink="http://www.w3.org/1999/xlink">
    <!-- Generator: Sketch 50.2 (55047) - http://www.bohemiancoding.com/sketch -->
    <title>icon-webinar-</title>
    <desc>Created with Sketch.</desc>
    <defs></defs>
    <g id="icon-webinar-" stroke="none" stroke-width="1" fill="none" fill-rule="evenodd">
        <path d="M46.1782,27.8335 C46.1782,28.4295 45.6932,28.9145 45.0972,28.9145 L1.0812,28.9145 C0.4852,28.9145 0.0002,28.4295 0.0002,27.8335 C0.0002,27.2375 0.4852,26.7515 1.0812,26.7515 L45.0972,26.7515 C45.6932,26.7515 46.1782,27.2375 46.1782,27.8335 Z M6.5112,22.1395 L39.1382,22.1395 L39.1382,2.1625 L6.5112,2.1625 L6.5112,22.1395 Z M5.4302,24.3015 L40.2202,24.3015 C40.8162,24.3015 41.3012,23.8165 41.3012,23.2205 L41.3012,1.0815 C41.3012,0.4855 40.8162,0.0005 40.2202,0.0005 L5.4302,0.0005 C4.8342,0.0005 4.3482,0.4855 4.3482,1.0815 L4.3482,23.2205 C4.3482,23.8165 4.8342,24.3015 5.4302,24.3015 Z M37.2242,20.0725 L8.1112,19.9825 L8.1602,4.0785 L37.2732,4.1685 L37.2242,20.0725 Z M37.5782,3.5625 L7.8592,3.4705 C7.6882,3.4705 7.5552,3.6035 7.5542,3.7735 L7.5032,20.2845 C7.5032,20.4515 7.6382,20.5885 7.8062,20.5885 L37.5252,20.6805 C37.6932,20.6815 37.8292,20.5455 37.8302,20.3775 L37.8812,3.8665 C37.8822,3.6995 37.7462,3.5625 37.5782,3.5625 Z" id="Fill-1" fill="#808285"></path>
    </g>
</svg>