<svg xmlns="http://www.w3.org/2000/svg" xmlns:xlink="http://www.w3.org/1999/xlink" width="20" height="19" viewBox="0 0 20 19"><defs><path id="2ff9a" d="M936.5 3776.9h3.9v12.32h-3.9zm14.56-.12c2.77 0 4.94 1.77 4.94 5.58v6.85h-4.42v-6.37c0-1.67-.69-2.81-2.2-2.81-1.17 0-1.82.77-2.12 1.5-.11.27-.1.64-.1 1.01v6.67h-4.38s.06-11.3 0-12.32h4.38v1.94c.26-.85 1.66-2.05 3.9-2.05m-12.68-5.7c1.44 0 2.32.92 2.35 2.14 0 1.19-.91 2.13-2.38 2.13h-.02c-1.41 0-2.33-.94-2.33-2.13 0-1.22.94-2.14 2.38-2.14"/></defs><g><g transform="translate(-936 -3771)"><use fill="#fff" xlink:href="#2ff9a"/></g></g></svg>