<?xml version="1.0" encoding="UTF-8"?>
<svg width="52px" height="45px" viewBox="0 0 52 45" version="1.1" xmlns="http://www.w3.org/2000/svg" xmlns:xlink="http://www.w3.org/1999/xlink">
    <title>icon-casino-tall</title>
    <defs>
        <path d="M9.75961952,32.0418779 C9.75961952,32.3548568 9.50836095,32.6094837 9.19790534,32.6094837 L7.34438008,32.6094837 C7.03260897,32.6094837 6.7813504,32.3548568 6.7813504,32.0418779 C6.7813504,31.728899 7.03260897,31.4755983 7.34438008,31.4755983 L9.19790534,31.4755983 C9.50836095,31.4755983 9.75961952,31.728899 9.75961952,32.0418779 Z M34.2974525,4.11646823 L47.7983253,4.11646823 L47.7983253,1.13255924 L34.2974525,1.13255924 L34.2974525,4.11646823 Z M11.8670343,24.5197748 L40.2026866,24.5197748 L40.2026866,21.9509607 L11.8670343,21.9509607 L11.8670343,24.5197748 Z M40.2026866,36.1304963 L37.488831,36.1304963 L37.488831,29.2887245 C37.488831,28.9744194 37.2375724,28.7224449 36.9258013,28.7224449 L16.146323,28.7224449 C15.8358673,28.7224449 15.5832933,28.9744194 15.5832933,29.2887245 L15.5832933,36.1304963 L11.8683498,36.1304963 L11.8683498,25.6536603 L40.2026866,25.6536603 L40.2026866,36.1304963 Z M27.1477649,36.1304963 L36.3640871,36.1304963 L36.3640871,29.8563303 L27.1477649,29.8563303 L27.1477649,36.1304963 Z M16.7080371,36.1304963 L26.0230211,36.1304963 L26.0230211,29.8563303 L16.7080371,29.8563303 L16.7080371,36.1304963 Z M5.25406663,4.11646823 L18.7549394,4.11646823 L18.7549394,1.13255924 L5.25406663,1.13255924 L5.25406663,4.11646823 Z M51.4382858,36.1304963 L48.5271067,36.1304963 L48.5271067,5.2171991 C48.7546864,5.14425911 48.9230691,4.93870093 48.9230691,4.68407403 L48.9230691,0.566279618 C48.9230691,0.253300719 48.6718106,0 48.3600395,0 L33.7344228,0 C33.4239672,0 33.1713932,0.253300719 33.1713932,0.566279618 L33.1713932,4.68407403 C33.1713932,4.93737475 33.3397759,5.14425911 33.5673556,5.21587292 L33.5673556,8.53265354 L34.6920995,8.53265354 L34.6920995,5.25035365 L47.4023628,5.25035365 L47.4023628,36.1304963 L41.3274305,36.1304963 L41.3274305,21.3846811 C41.3274305,21.0717022 41.0761719,20.8170753 40.7657163,20.8170753 L34.6920995,20.8170753 L34.6920995,19.9696452 L33.5673556,19.9696452 L33.5673556,20.8170753 L19.4837208,20.8170753 L19.4837208,19.9696452 L18.3602924,19.9696452 L18.3602924,20.8170753 L11.3053201,20.8170753 C10.9948645,20.8170753 10.743606,21.0717022 10.743606,21.3846811 L10.743606,36.1304963 L5.6487136,36.1304963 L5.6487136,5.25035365 L18.3602924,5.25035365 L18.3602924,8.53265354 L19.4837208,8.53265354 L19.4837208,5.2171991 C19.7113006,5.14425911 19.8796833,4.93737475 19.8796833,4.68407403 L19.8796833,0.566279618 C19.8796833,0.253300719 19.6271092,0 19.3166536,0 L4.69103696,0 C4.38058135,0 4.12932278,0.253300719 4.12932278,0.566279618 L4.12932278,4.68407403 C4.12932278,4.93737475 4.29638999,5.14425911 4.52396974,5.2171991 L4.52396974,36.1304963 L0.561714185,36.1304963 C0.25125857,36.1304963 0,36.383797 0,36.6967759 C0,37.011081 0.25125857,37.2643817 0.561714185,37.2643817 L51.4382858,37.2643817 C51.7487414,37.2643817 52,37.011081 52,36.6967759 C52,36.383797 51.7487414,36.1304963 51.4382858,36.1304963 Z M9.75961952,28.5076034 C9.75961952,28.8219085 9.50836095,29.0752092 9.19790534,29.0752092 L7.34438008,29.0752092 C7.03260897,29.0752092 6.7813504,28.8219085 6.7813504,28.5076034 C6.7813504,28.1959507 7.03260897,27.9413238 7.34438008,27.9413238 L9.19790534,27.9413238 C9.50836095,27.9413238 9.75961952,28.1959507 9.75961952,28.5076034 Z M13.4640391,7.50486267 C13.4640391,7.81784157 13.2127805,8.07114228 12.9023249,8.07114228 L11.0474841,8.07114228 C10.7370285,8.07114228 10.4857699,7.81784157 10.4857699,7.50486267 C10.4857699,7.19188377 10.7370285,6.93858305 11.0474841,6.93858305 L12.9023249,6.93858305 C13.2127805,6.93858305 13.4640391,7.19188377 13.4640391,7.50486267 Z M17.1684586,7.50486267 C17.1684586,7.81784157 16.9172,8.07114228 16.6067444,8.07114228 L14.7519037,8.07114228 C14.4414481,8.07114228 14.1901895,7.81784157 14.1901895,7.50486267 C14.1901895,7.19188377 14.4414481,6.93858305 14.7519037,6.93858305 L16.6067444,6.93858305 C16.9172,6.93858305 17.1684586,7.19188377 17.1684586,7.50486267 Z M9.75961952,7.50486267 C9.75961952,7.81784157 9.50836095,8.07114228 9.19790534,8.07114228 L7.34438008,8.07114228 C7.03260897,8.07114228 6.7813504,7.81784157 6.7813504,7.50486267 C6.7813504,7.19188377 7.03260897,6.93858305 7.34438008,6.93858305 L9.19790534,6.93858305 C9.50836095,6.93858305 9.75961952,7.19188377 9.75961952,7.50486267 Z M9.75961952,24.9746552 C9.75961952,25.2876341 9.50836095,25.542261 9.19790534,25.542261 L7.34438008,25.542261 C7.03260897,25.542261 6.7813504,25.2876341 6.7813504,24.9746552 C6.7813504,24.6616763 7.03260897,24.4083756 7.34438008,24.4083756 L9.19790534,24.4083756 C9.50836095,24.4083756 9.75961952,24.6616763 9.75961952,24.9746552 Z M9.75961952,11.0391371 C9.75961952,11.3507898 9.50836095,11.6054167 9.19790534,11.6054167 L7.34438008,11.6054167 C7.03260897,11.6054167 6.7813504,11.3507898 6.7813504,11.0391371 C6.7813504,10.724832 7.03260897,10.4715313 7.34438008,10.4715313 L9.19790534,10.4715313 C9.50836095,10.4715313 9.75961952,10.724832 9.75961952,11.0391371 Z M9.75961952,21.4417069 C9.75961952,21.7546858 9.50836095,22.0079866 9.19790534,22.0079866 L7.34438008,22.0079866 C7.03260897,22.0079866 6.7813504,21.7546858 6.7813504,21.4417069 C6.7813504,21.128728 7.03260897,20.8741011 7.34438008,20.8741011 L9.19790534,20.8741011 C9.50836095,20.8741011 9.75961952,21.128728 9.75961952,21.4417069 Z M9.75961952,17.9074325 C9.75961952,18.2204114 9.50836095,18.4750383 9.19790534,18.4750383 L7.34438008,18.4750383 C7.03260897,18.4750383 6.7813504,18.2204114 6.7813504,17.9074325 C6.7813504,17.5931274 7.03260897,17.3411529 7.34438008,17.3411529 L9.19790534,17.3411529 C9.50836095,17.3411529 9.75961952,17.5931274 9.75961952,17.9074325 Z M9.75961952,14.3731581 C9.75961952,14.6874632 9.50836095,14.9407639 9.19790534,14.9407639 L7.34438008,14.9407639 C7.03260897,14.9407639 6.7813504,14.6874632 6.7813504,14.3731581 C6.7813504,14.0601792 7.03260897,13.8068785 7.34438008,13.8068785 L9.19790534,13.8068785 C9.50836095,13.8068785 9.75961952,14.0601792 9.75961952,14.3731581 Z M43.2322599,17.9074325 C43.2322599,17.5931274 43.4835184,17.3411529 43.7952895,17.3411529 L45.6501303,17.3411529 C45.9605859,17.3411529 46.2118445,17.5931274 46.2118445,17.9074325 C46.2118445,18.2204114 45.9605859,18.4750383 45.6501303,18.4750383 L43.7952895,18.4750383 C43.4835184,18.4750383 43.2322599,18.2204114 43.2322599,17.9074325 Z M43.2322599,11.0391371 C43.2322599,10.724832 43.4835184,10.4715313 43.7952895,10.4715313 L45.6501303,10.4715313 C45.9605859,10.4715313 46.2118445,10.724832 46.2118445,11.0391371 C46.2118445,11.3507898 45.9605859,11.6054167 45.6501303,11.6054167 L43.7952895,11.6054167 C43.4835184,11.6054167 43.2322599,11.3507898 43.2322599,11.0391371 Z M43.2322599,14.3731581 C43.2322599,14.0601792 43.4835184,13.8068785 43.7952895,13.8068785 L45.6501303,13.8068785 C45.9605859,13.8068785 46.2118445,14.0601792 46.2118445,14.3731581 C46.2118445,14.6874632 45.9605859,14.9407639 45.6501303,14.9407639 L43.7952895,14.9407639 C43.4835184,14.9407639 43.2322599,14.6874632 43.2322599,14.3731581 Z M42.9862632,44.4323942 C42.9862632,44.7453731 42.7350047,45 42.4245491,45 L10.7462369,45 C10.4357813,45 10.1845228,44.7453731 10.1845228,44.4323942 C10.1845228,44.1180891 10.4357813,43.8661146 10.7462369,43.8661146 L42.4245491,43.8661146 C42.7350047,43.8661146 42.9862632,44.1180891 42.9862632,44.4323942 Z M14.9189709,41.1288754 C14.6085153,41.1288754 14.3572567,40.8755747 14.3572567,40.5625958 C14.3572567,40.2482907 14.6085153,39.99499 14.9189709,39.99499 L38.2518151,39.99499 C38.5635862,39.99499 38.8135293,40.2482907 38.8135293,40.5625958 C38.8135293,40.8755747 38.5635862,41.1288754 38.2518151,41.1288754 L14.9189709,41.1288754 Z M43.2322599,7.50486267 C43.2322599,7.19188377 43.4835184,6.93858305 43.7952895,6.93858305 L45.6501303,6.93858305 C45.9605859,6.93858305 46.2118445,7.19188377 46.2118445,7.50486267 C46.2118445,7.81784157 45.9605859,8.07114228 45.6501303,8.07114228 L43.7952895,8.07114228 C43.4835184,8.07114228 43.2322599,7.81784157 43.2322599,7.50486267 Z M39.5278403,7.50486267 C39.5278403,7.19188377 39.7790989,6.93858305 40.09087,6.93858305 L41.9443953,6.93858305 C42.2561664,6.93858305 42.5074249,7.19188377 42.5074249,7.50486267 C42.5074249,7.81784157 42.2561664,8.07114228 41.9443953,8.07114228 L40.09087,8.07114228 C39.7790989,8.07114228 39.5278403,7.81784157 39.5278403,7.50486267 Z M43.2322599,28.5076034 C43.2322599,28.1959507 43.4835184,27.9413238 43.7952895,27.9413238 L45.6501303,27.9413238 C45.9605859,27.9413238 46.2118445,28.1959507 46.2118445,28.5076034 C46.2118445,28.8219085 45.9605859,29.0752092 45.6501303,29.0752092 L43.7952895,29.0752092 C43.4835184,29.0752092 43.2322599,28.8219085 43.2322599,28.5076034 Z M36.3864505,8.07114228 C36.0746793,8.07114228 35.8234208,7.81784157 35.8234208,7.50486267 C35.8234208,7.19188377 36.0746793,6.93858305 36.3864505,6.93858305 L38.2399757,6.93858305 C38.5504313,6.93858305 38.8030054,7.19188377 38.8030054,7.50486267 C38.8030054,7.81784157 38.5504313,8.07114228 38.2399757,8.07114228 L36.3864505,8.07114228 Z M43.2322599,32.0418779 C43.2322599,31.728899 43.4835184,31.4755983 43.7952895,31.4755983 L45.6501303,31.4755983 C45.9605859,31.4755983 46.2118445,31.728899 46.2118445,32.0418779 C46.2118445,32.3548568 45.9605859,32.6094837 45.6501303,32.6094837 L43.7952895,32.6094837 C43.4835184,32.6094837 43.2322599,32.3548568 43.2322599,32.0418779 Z M43.2322599,21.4417069 C43.2322599,21.128728 43.4835184,20.8741011 43.7952895,20.8741011 L45.6501303,20.8741011 C45.9605859,20.8741011 46.2118445,21.128728 46.2118445,21.4417069 C46.2118445,21.7546858 45.9605859,22.0079866 45.6501303,22.0079866 L43.7952895,22.0079866 C43.4835184,22.0079866 43.2322599,21.7546858 43.2322599,21.4417069 Z M43.2322599,24.9746552 C43.2322599,24.6616763 43.4835184,24.4083756 43.7952895,24.4083756 L45.6501303,24.4083756 C45.9605859,24.4083756 46.2118445,24.6616763 46.2118445,24.9746552 C46.2118445,25.2876341 45.9605859,25.542261 45.6501303,25.542261 L43.7952895,25.542261 C43.4835184,25.542261 43.2322599,25.2876341 43.2322599,24.9746552 Z M35.4248273,12.7406283 C36.2746338,12.7406283 36.8258241,13.402393 36.8258241,14.3731581 C36.8258241,15.3518802 36.2746338,16.0056878 35.4248273,16.0056878 C34.5802828,16.0056878 34.0304081,15.3518802 34.0304081,14.3731581 C34.0304081,13.402393 34.5802828,12.7406283 35.4248273,12.7406283 Z M35.4248273,16.6754096 C36.5745655,16.6754096 37.6624757,15.8491984 37.6624757,14.3731581 C37.6624757,12.9050749 36.5745655,12.0722327 35.4248273,12.0722327 C34.2803511,12.0722327 33.192441,12.9050749 33.192441,14.3731581 C33.192441,15.8491984 34.2803511,16.6754096 35.4248273,16.6754096 Z M29.3696274,16.5865555 L28.5750715,16.5865555 L28.5750715,12.1730225 L29.5195932,12.1730225 L31.6335855,15.3956442 L31.6335855,12.1730225 L32.4268259,12.1730225 L32.4268259,16.5865555 L31.4770422,16.5865555 L29.3696274,13.358629 L29.3696274,16.5865555 Z M26.7649574,16.5865555 L27.5595133,16.5865555 L27.5595133,12.1730225 L26.7649574,12.1730225 L26.7649574,16.5865555 Z M25.2403046,15.4142108 C25.2403046,14.3545915 22.8198032,15.0680773 22.8198032,13.4342214 C22.8198032,12.6968643 23.2960105,12.0722327 24.4023375,12.0722327 C25.383693,12.0722327 25.8848946,12.5642461 25.8848946,13.3785217 L25.1219105,13.3785217 C25.1219105,12.9236414 24.8706519,12.702169 24.3655038,12.702169 C23.7209138,12.702169 23.5762099,13.0496287 23.5762099,13.2962985 C23.5762099,14.2856301 26.0217056,13.5986679 26.0217056,15.2630261 C26.0217056,16.0388424 25.4955096,16.6754096 24.3839207,16.6754096 C23.5012269,16.6754096 22.781654,16.2775551 22.781654,15.1808028 L23.5446381,15.1808028 C23.5446381,15.8929624 23.9774343,16.0388424 24.4023375,16.0388424 C25.0837613,16.0388424 25.2403046,15.6847519 25.2403046,15.4142108 Z M20.5440057,13.0058647 L21.1438691,14.8784333 L19.9428268,14.8784333 L20.5440057,13.0058647 Z M19.7310329,15.5269362 L21.350401,15.5269362 L21.6871664,16.5865555 L22.4948772,16.5865555 L21.0057426,12.1491512 L20.0809532,12.1491512 L18.5931342,16.5865555 L19.392952,16.5865555 L19.7310329,15.5269362 Z M14.3020061,14.3612224 C14.3020061,12.8599847 15.3714994,12.0722327 16.471249,12.0722327 C17.5907309,12.0722327 18.216904,12.7658258 18.3050419,13.5230756 L17.5473197,13.5230756 C17.4341876,12.9302723 16.9093071,12.7406283 16.4409927,12.7406283 C15.7648309,12.7406283 15.1399732,13.2697748 15.1399732,14.3479606 C15.1399732,15.4712366 15.746414,16.0056878 16.471249,16.0056878 C16.9908675,16.0056878 17.5473197,15.7669751 17.6223026,15.0985795 L18.3787093,15.0985795 C18.3155658,16.0189497 17.5039085,16.6754096 16.4594095,16.6754096 C15.3333502,16.6754096 14.3020061,15.8491984 14.3020061,14.3612224 Z M11.6447165,18.1487976 L40.3197652,18.1487976 L40.3197652,10.5975186 L11.6447165,10.5975186 L11.6447165,18.1487976 Z M40.8235979,9.58298951 L11.1421994,9.58298951 C10.8633155,9.58298951 10.6383668,9.80976659 10.6383668,10.0909171 L10.6383668,18.6567252 C10.6383668,18.9378758 10.8633155,19.1646528 11.1421994,19.1646528 L40.8235979,19.1646528 C41.1024817,19.1646528 41.3274305,18.9378758 41.3274305,18.6567252 L41.3274305,10.0909171 C41.3274305,9.80976659 41.1024817,9.58298951 40.8235979,9.58298951 Z" id="path-1"></path>
    </defs>
    <g id="Page-1" stroke="none" stroke-width="1" fill="none" fill-rule="evenodd">
        <g id="TT-Website-Style-Guide" transform="translate(-504.000000, -9873.000000)">
            <g id="icon-casino-tall" transform="translate(504.000000, 9873.000000)">
                <mask id="mask-2" fill="white">
                    <use xlink:href="#path-1"></use>
                </mask>
                <use fill-rule="evenodd" xlink:href="#path-1"></use>
                <g id="Mixin/Fill/gray" mask="url(#mask-2)" fill="#303e60" fill-rule="evenodd">
                    <rect id="Rectangle" x="0" y="0" width="52" height="45"></rect>
                </g>
            </g>
        </g>
    </g>
</svg>
