<?xml version="1.0" encoding="UTF-8"?>
<svg width="35px" height="40px" viewBox="0 0 35 40" version="1.1" xmlns="http://www.w3.org/2000/svg" xmlns:xlink="http://www.w3.org/1999/xlink">
    <title>icon-independant-hotels</title>
    <defs>
        <path d="M24.1563795,8.54478489 L26.0390392,8.54478489 L26.0390392,5.57009639 L24.1563795,5.57009639 L24.1563795,8.54478489 Z M27.1636437,8.54478489 L29.1196132,8.54478489 L29.1196132,5.57009639 L27.1636437,5.57009639 L27.1636437,8.54478489 Z M23.5932974,9.67792493 L29.6826953,9.67792493 C29.9930924,9.67792493 30.2457774,9.42402633 30.2457774,9.11213855 L30.2457774,5.00431001 C30.2457774,4.69242222 29.9930924,4.4400909 29.6826953,4.4400909 L23.5932974,4.4400909 C23.2829003,4.4400909 23.0302153,4.69242222 23.0302153,5.00431001 L23.0302153,9.11213855 C23.0302153,9.42402633 23.2829003,9.67792493 23.5932974,9.67792493 Z M24.1563795,16.6131181 L26.0390392,16.6131181 L26.0390392,13.6384296 L24.1563795,13.6384296 L24.1563795,16.6131181 Z M27.1636437,16.6131181 L29.1196132,16.6131181 L29.1196132,13.6384296 L27.1636437,13.6384296 L27.1636437,16.6131181 Z M23.5932974,17.7446909 L29.6826953,17.7446909 C29.9930924,17.7446909 30.2457774,17.4923595 30.2457774,17.1789045 L30.2457774,13.0726432 C30.2457774,12.7607554 29.9930924,12.5068568 29.6826953,12.5068568 L23.5932974,12.5068568 C23.2829003,12.5068568 23.0302153,12.7607554 23.0302153,13.0726432 L23.0302153,17.1789045 C23.0302153,17.4923595 23.2829003,17.7446909 23.5932974,17.7446909 Z M24.1563795,24.5403965 L26.0390392,24.5403965 L26.0390392,21.565708 L24.1563795,21.565708 L24.1563795,24.5403965 Z M27.1636437,24.5403965 L29.1196132,24.5403965 L29.1196132,21.565708 L27.1636437,21.565708 L27.1636437,24.5403965 Z M23.5932974,25.6719693 L29.6826953,25.6719693 C29.9930924,25.6719693 30.2457774,25.419638 30.2457774,25.1077502 L30.2457774,20.9999216 C30.2457774,20.6880339 29.9930924,20.4341353 29.6826953,20.4341353 L23.5932974,20.4341353 C23.2829003,20.4341353 23.0302153,20.6880339 23.0302153,20.9999216 L23.0302153,25.1077502 C23.0302153,25.419638 23.2829003,25.6719693 23.5932974,25.6719693 Z M14.9770489,8.54478489 L16.8597085,8.54478489 L16.8597085,5.57009639 L14.9770489,5.57009639 L14.9770489,8.54478489 Z M17.9858728,8.54478489 L19.9418423,8.54478489 L19.9418423,5.57009639 L17.9858728,5.57009639 L17.9858728,8.54478489 Z M14.4155265,9.67792493 L20.5049245,9.67792493 C20.8153215,9.67792493 21.0680066,9.42402633 21.0680066,9.11213855 L21.0680066,5.00431001 C21.0680066,4.69242222 20.8153215,4.4400909 20.5049245,4.4400909 L14.4155265,4.4400909 C14.1035697,4.4400909 13.8524444,4.69242222 13.8524444,5.00431001 L13.8524444,9.11213855 C13.8524444,9.42402633 14.1035697,9.67792493 14.4155265,9.67792493 Z M14.9770489,16.6131181 L16.8597085,16.6131181 L16.8597085,13.6384296 L14.9770489,13.6384296 L14.9770489,16.6131181 Z M17.9858728,16.6131181 L19.9418423,16.6131181 L19.9418423,13.6384296 L17.9858728,13.6384296 L17.9858728,16.6131181 Z M14.4155265,17.7446909 L20.5049245,17.7446909 C20.8153215,17.7446909 21.0680066,17.4923595 21.0680066,17.1789045 L21.0680066,13.0726432 C21.0680066,12.7607554 20.8153215,12.5068568 20.5049245,12.5068568 L14.4155265,12.5068568 C14.1035697,12.5068568 13.8524444,12.7607554 13.8524444,13.0726432 L13.8524444,17.1789045 C13.8524444,17.4923595 14.1035697,17.7446909 14.4155265,17.7446909 Z M14.9770489,24.5403965 L16.8597085,24.5403965 L16.8597085,21.565708 L14.9770489,21.565708 L14.9770489,24.5403965 Z M17.9858728,24.5403965 L19.9418423,24.5403965 L19.9418423,21.565708 L17.9858728,21.565708 L17.9858728,24.5403965 Z M14.4155265,25.6719693 L20.5049245,25.6719693 C20.8153215,25.6719693 21.0680066,25.419638 21.0680066,25.1077502 L21.0680066,20.9999216 C21.0680066,20.6880339 20.8153215,20.4341353 20.5049245,20.4341353 L14.4155265,20.4341353 C14.1035697,20.4341353 13.8524444,20.6880339 13.8524444,20.9999216 L13.8524444,25.1077502 C13.8524444,25.419638 14.1035697,25.6719693 14.4155265,25.6719693 Z M5.88194661,8.54478489 L7.76460627,8.54478489 L7.76460627,5.57009639 L5.88194661,5.57009639 L5.88194661,8.54478489 Z M8.88921075,8.54478489 L10.8451803,8.54478489 L10.8451803,5.57009639 L8.88921075,5.57009639 L8.88921075,8.54478489 Z M5.31886448,9.67792493 L11.4082624,9.67792493 C11.7202193,9.67792493 11.9713445,9.42402633 11.9713445,9.11213855 L11.9713445,5.00431001 C11.9713445,4.69242222 11.7202193,4.4400909 11.4082624,4.4400909 L5.31886448,4.4400909 C5.0084674,4.4400909 4.75578234,4.69242222 4.75578234,5.00431001 L4.75578234,9.11213855 C4.75578234,9.42402633 5.0084674,9.67792493 5.31886448,9.67792493 Z M5.88194661,16.6131181 L7.76460627,16.6131181 L7.76460627,13.6384296 L5.88194661,13.6384296 L5.88194661,16.6131181 Z M8.88921075,16.6131181 L10.8451803,16.6131181 L10.8451803,13.6384296 L8.88921075,13.6384296 L8.88921075,16.6131181 Z M5.31886448,17.7446909 L11.4082624,17.7446909 C11.7202193,17.7446909 11.9713445,17.4923595 11.9713445,17.1789045 L11.9713445,13.0726432 C11.9713445,12.7607554 11.7202193,12.5068568 11.4082624,12.5068568 L5.31886448,12.5068568 C5.0084674,12.5068568 4.75578234,12.7607554 4.75578234,13.0726432 L4.75578234,17.1789045 C4.75578234,17.4923595 5.0084674,17.7446909 5.31886448,17.7446909 Z M5.88194661,24.5403965 L7.76460627,24.5403965 L7.76460627,21.565708 L5.88194661,21.565708 L5.88194661,24.5403965 Z M8.88921075,24.5403965 L10.8451803,24.5403965 L10.8451803,21.565708 L8.88921075,21.565708 L8.88921075,24.5403965 Z M5.31886448,25.6719693 L11.4082624,25.6719693 C11.7202193,25.6719693 11.9713445,25.419638 11.9713445,25.1077502 L11.9713445,20.9999216 C11.9713445,20.6880339 11.7202193,20.4341353 11.4082624,20.4341353 L5.31886448,20.4341353 C5.0084674,20.4341353 4.75578234,20.6880339 4.75578234,20.9999216 L4.75578234,25.1077502 C4.75578234,25.419638 5.0084674,25.6719693 5.31886448,25.6719693 Z M24.1563795,32.6416425 L26.0390392,32.6416425 L26.0390392,29.6653867 L24.1563795,29.6653867 L24.1563795,32.6416425 Z M27.1636437,32.6416425 L29.1196132,32.6416425 L29.1196132,29.6653867 L27.1636437,29.6653867 L27.1636437,32.6416425 Z M23.5932974,33.771648 L29.6826953,33.771648 C29.9930924,33.771648 30.2457774,33.5193167 30.2457774,33.2074289 L30.2457774,29.0996003 C30.2457774,28.7877126 29.9930924,28.533814 29.6826953,28.533814 L23.5932974,28.533814 C23.2829003,28.533814 23.0302153,28.7877126 23.0302153,29.0996003 L23.0302153,33.2074289 C23.0302153,33.5193167 23.2829003,33.771648 23.5932974,33.771648 Z M5.88194661,32.6416425 L7.76460627,32.6416425 L7.76460627,29.6653867 L5.88194661,29.6653867 L5.88194661,32.6416425 Z M8.88921075,32.6416425 L10.8451803,32.6416425 L10.8451803,29.6653867 L8.88921075,29.6653867 L8.88921075,32.6416425 Z M5.31886448,33.771648 L11.4082624,33.771648 C11.7202193,33.771648 11.9713445,33.5193167 11.9713445,33.2074289 L11.9713445,29.0996003 C11.9713445,28.7877126 11.7202193,28.533814 11.4082624,28.533814 L5.31886448,28.533814 C5.0084674,28.533814 4.75578234,28.7877126 4.75578234,29.0996003 L4.75578234,33.2074289 C4.75578234,33.5193167 5.0084674,33.771648 5.31886448,33.771648 Z M31.5762735,38.4922812 L21.2957351,38.4922812 L21.2957351,29.0996003 C21.2957351,28.6827051 20.9603815,28.3457409 20.5454789,28.3457409 L14.4545211,28.3457409 C14.0396185,28.3457409 13.7042649,28.6827051 13.7042649,29.0996003 L13.7042649,38.4922812 L3.42372655,38.4922812 L3.42372655,1.50771883 L31.5762735,1.50771883 L31.5762735,38.4922812 Z M18.2104818,38.4922812 L19.7952226,38.4922812 L19.7952226,29.8534598 L18.2104818,29.8534598 L18.2104818,38.4922812 Z M15.2047774,38.4922812 L16.7099692,38.4922812 L16.7099692,29.8534598 L15.2047774,29.8534598 L15.2047774,38.4922812 Z M34.248184,0 L0.75025625,0 C0.335353625,0 0,0.336964188 0,0.753859415 L0,1.98417052 C0,2.40106575 0.335353625,2.73802993 0.75025625,2.73802993 C1.16515888,2.73802993 1.5005125,2.40106575 1.5005125,1.98417052 L1.5005125,1.50771883 L1.92321405,1.50771883 L1.92321405,38.4922812 L1.47243638,38.4922812 C1.05753376,38.4922812 0.720620349,38.8292454 0.720620349,39.2461406 C0.720620349,39.6630358 1.05753376,40 1.47243638,40 L33.4480146,40 C33.8629172,40 34.1982709,39.6630358 34.1982709,39.2461406 C34.1982709,38.8292454 33.8629172,38.4922812 33.4480146,38.4922812 L33.076786,38.4922812 L33.076786,1.50771883 L33.4979277,1.50771883 L33.4979277,1.95125774 C33.4979277,2.36815297 33.8348411,2.70511715 34.248184,2.70511715 C34.6630866,2.70511715 35,2.36815297 35,1.95125774 L35,0.753859415 C35,0.336964188 34.6630866,0 34.248184,0 Z" id="path-1"></path>
    </defs>
    <g id="Page-1" stroke="none" stroke-width="1" fill="none" fill-rule="evenodd">
        <g id="TT-Website-Style-Guide" transform="translate(-513.000000, -9702.000000)">
            <g id="icon-independant-hotels" transform="translate(513.000000, 9702.000000)">
                <mask id="mask-2" fill="white">
                    <use xlink:href="#path-1"></use>
                </mask>
                <use fill-rule="evenodd" xlink:href="#path-1"></use>
                <g id="Mixin/Fill/gray" mask="url(#mask-2)" fill="#fff" fill-rule="evenodd">
                    <rect id="Rectangle" x="0" y="0" width="35" height="40"></rect>
                </g>
            </g>
        </g>
    </g>
</svg>
