<?xml version="1.0" encoding="UTF-8"?>
<svg width="22px" height="23px" viewBox="0 0 22 23" version="1.1" xmlns="http://www.w3.org/2000/svg" xmlns:xlink="http://www.w3.org/1999/xlink">
    <!-- Generator: Sketch 50.2 (55047) - http://www.bohemiancoding.com/sketch -->
    <title>icon-maintenance</title>
    <desc>Created with Sketch.</desc>
    <defs></defs>
    <g id="Page-1" stroke="none" stroke-width="1" fill="none" fill-rule="evenodd">
        <g id="TT-Website-Style-Guide" transform="translate(-99.000000, -11136.000000)" fill="#4A4A4A">
            <path d="M102.98806,11155.8606 C102.98806,11156.2932 102.638753,11156.6445 102.207505,11156.6445 C101.776725,11156.6445 101.427419,11156.2932 101.427419,11155.8606 C101.427419,11155.428 101.776725,11155.0768 102.207505,11155.0768 C102.638753,11155.0768 102.98806,11155.428 102.98806,11155.8606 Z M119.451809,11145.4622 C118.87728,11145.9748 118.235793,11146.3354 117.545609,11146.5334 C116.758967,11146.7657 115.913328,11146.7981 115.099528,11146.6265 C114.943605,11146.5837 114.80922,11146.6523 114.731493,11146.7304 L104.047216,11157.4664 C103.558843,11157.9494 102.920633,11158.191 102.284765,11158.191 C101.64796,11158.191 101.013496,11157.9494 100.532615,11157.4664 C100.062034,11156.9939 99.804503,11156.3614 99.8073124,11155.6862 C99.8096536,11155.018 100.068122,11154.3964 100.533551,11153.9356 L111.223915,11143.2 C111.330205,11143.089 111.365323,11142.9428 111.318499,11142.8022 C111.15321,11141.9788 111.18786,11141.1447 111.412615,11140.3679 C111.63737,11139.5948 112.067681,11138.8665 112.656726,11138.2613 C114.514698,11136.395 117.499253,11136.3197 119.452746,11138.0878 L119.792219,11138.3948 L116.528594,11138.3948 C116.3914,11138.3948 116.245777,11138.4809 116.182565,11138.5989 L114.478175,11141.5801 C114.402789,11141.7038 114.403725,11141.8462 114.478175,11141.976 L116.180224,11144.9534 C116.254674,11145.0752 116.389527,11145.1538 116.528594,11145.1538 L119.796902,11145.1538 L119.451809,11145.4622 Z M120.598058,11144.3422 L116.763181,11144.3422 L115.289633,11141.7672 L116.763181,11139.2003 L120.598058,11139.2003 C120.693579,11139.2003 120.761474,11139.1801 120.818131,11139.1354 C121.010577,11139.0038 121.054591,11138.7527 120.929572,11138.5547 L120.840606,11138.4386 C120.770839,11138.3455 120.694516,11138.2448 120.613042,11138.1437 L120.557322,11138.0915 L120.55779,11138.0671 C120.448222,11137.9359 120.329289,11137.8052 120.209888,11137.6792 C119.092202,11136.56 117.6224,11136 116.152598,11136 C114.681391,11136 113.210184,11136.5605 112.089688,11137.6824 C111.414488,11138.3539 110.914877,11139.2041 110.644703,11140.1417 C110.397005,11140.9707 110.339411,11141.8491 110.47801,11142.6828 L110.492525,11142.7721 L110.428845,11142.8365 L99.9576171,11153.3727 C99.3456288,11153.9784 99.0061556,11154.7951 99.0000685,11155.674 C98.9944496,11156.5702 99.3348593,11157.4124 99.9580854,11158.0448 C101.240124,11159.3186 103.33362,11159.3186 104.62315,11158.0434 L115.151035,11147.4574 L115.24,11147.4724 C116.064101,11147.6092 116.9177,11147.5542 117.777387,11147.3106 C118.68577,11147.0389 119.529069,11146.5348 120.213634,11145.853 C120.441198,11145.624 120.663144,11145.3536 120.909905,11145.0033 L120.937532,11144.9553 C120.975459,11144.9055 120.998403,11144.8246 120.998403,11144.7447 C120.998403,11144.519 120.822345,11144.3422 120.598058,11144.3422 Z" id="icon-maintenance"></path>
        </g>
    </g>
</svg>