<?xml version="1.0" encoding="UTF-8"?>
<svg width="30px" height="25px" viewBox="0 0 30 25" version="1.1" xmlns="http://www.w3.org/2000/svg" xmlns:xlink="http://www.w3.org/1999/xlink">
    <!-- Generator: Sketch 50.2 (55047) - http://www.bohemiancoding.com/sketch -->
    <title>icon-ecommerce</title>
    <desc>Created with Sketch.</desc>
    <defs></defs>
    <g id="Page-1" stroke="none" stroke-width="1" fill="none" fill-rule="evenodd">
        <g id="TT-Website-Style-Guide" transform="translate(-362.000000, -10638.000000)" fill="#4A4A4A">
            <path d="M387.811852,10652.8722 L371.775559,10652.8722 L369.055516,10644.1737 L390.296147,10644.1737 L387.811852,10652.8722 Z M372.116681,10659.344 C372.116681,10660.5516 371.134394,10661.534 369.927966,10661.534 C368.721538,10661.534 367.73925,10660.5516 367.73925,10659.344 C367.73925,10658.1363 368.721538,10657.153 369.927966,10657.153 C371.134394,10657.153 372.116681,10658.1363 372.116681,10659.344 Z M384.412244,10657.153 C385.619565,10657.153 386.601852,10658.1363 386.601852,10659.344 C386.601852,10660.5516 385.619565,10661.534 384.412244,10661.534 C383.205816,10661.534 382.224421,10660.5516 382.224421,10659.344 C382.224421,10658.1363 383.205816,10657.153 384.412244,10657.153 Z M391.266826,10642.7077 L368.379523,10642.7077 L367.352586,10639.622 C367.274896,10639.3923 367.090047,10639.2153 366.858763,10639.1482 L362.933184,10638.0273 C362.54652,10637.9182 362.138424,10638.1462 362.027694,10638.5323 C361.917856,10638.9194 362.144675,10639.3261 362.532233,10639.4378 L366.085435,10640.4515 L370.469117,10653.6132 L369.824379,10655.6915 L369.468076,10655.7371 C367.648165,10655.9686 366.275642,10657.5195 366.275642,10659.344 C366.275642,10661.3597 367.914276,10663 369.927966,10663 C371.503198,10663 372.892688,10661.9801 373.384725,10660.4631 L373.509744,10660.077 L380.831359,10660.077 L380.956377,10660.4631 C381.449307,10661.9801 382.837905,10663 384.412244,10663 C386.426827,10663 388.065461,10661.3597 388.065461,10659.344 C388.065461,10657.3273 386.426827,10655.6871 384.412244,10655.6871 C382.837905,10655.6871 381.449307,10656.707 380.956377,10658.2248 L380.831359,10658.611 L373.509744,10658.611 L373.384725,10658.2248 C373.098076,10657.3417 372.492629,10656.6087 371.679117,10656.1572 L371.281737,10655.9373 L371.777345,10654.3382 L387.683262,10654.3382 C388.562856,10654.3382 389.261173,10653.725 389.343328,10652.8802 L389.362081,10652.7801 L391.972287,10643.6418 C392.034796,10643.4228 391.990147,10643.1824 391.852626,10643 C391.712427,10642.815 391.499003,10642.7077 391.266826,10642.7077 Z" id="icon-ecommerce"></path>
        </g>
    </g>
</svg>