<?xml version="1.0" encoding="UTF-8"?>
<svg width="47px" height="44px" viewBox="0 0 47 44" version="1.1" xmlns="http://www.w3.org/2000/svg" xmlns:xlink="http://www.w3.org/1999/xlink">
    <!-- Generator: Sketch 50.2 (55047) - http://www.bohemiancoding.com/sketch -->
    <title>icon-direct-booking</title>
    <desc>Created with Sketch.</desc>
    <defs>
        <path d="M0,44 L47,44 L47,41.6 L0,41.6 L0,44 Z M42.3260709,12.6769231 C43.289245,13.1897436 43.9583975,14.2051282 43.9583975,15.3846154 C43.9583975,17.0871795 42.5998151,18.4615385 40.9167951,18.4615385 C40.5011094,18.4615385 40.1158398,18.3794872 39.7508475,18.225641 C38.7775347,19.8974359 37.6724191,21.4974359 36.4050847,23.0051282 C36.6889676,23.4769231 36.8613251,24.0205128 36.8613251,24.6153846 C36.8613251,26.3179487 35.5027427,27.6923077 33.8197227,27.6923077 C33.2418182,27.6923077 32.6943297,27.5179487 32.2380894,27.2307692 C29.9670262,29.1897436 27.4222188,30.9333333 24.6543606,32.4205128 C24.6746379,32.5538462 24.6949153,32.6769231 24.6949153,32.8205128 C24.6949153,34.5230769 23.3363328,35.8974359 21.6533128,35.8974359 C20.7306934,35.8974359 19.9094607,35.4666667 19.3518336,34.8102564 C15.9249615,36.1128205 12.2547612,37.0564103 8.41220339,37.5487179 C8.11818182,38.9435897 6.90154083,40 5.43143297,40 C3.74841294,40 2.38983051,38.625641 2.38983051,36.9230769 C2.38983051,35.2205128 3.74841294,33.8461538 5.43143297,33.8461538 C6.60751926,33.8461538 7.62138675,34.5333333 8.12832049,35.5179487 C11.8187982,35.0564103 15.3369183,34.1538462 18.621849,32.9230769 L18.6117103,32.8205128 C18.6117103,31.1179487 19.9702928,29.7435897 21.6533128,29.7435897 C22.4745455,29.7435897 23.2248074,30.0820513 23.7722958,30.6153846 C26.4083513,29.2102564 28.8213559,27.5589744 30.9808937,25.6923077 C30.8592296,25.3538462 30.7781202,24.9948718 30.7781202,24.6153846 C30.7781202,22.9128205 32.1367026,21.5384615 33.8197227,21.5384615 C34.2049923,21.5384615 34.5598459,21.6205128 34.8944222,21.7435897 C36.1921726,20.2153846 37.3074268,18.5846154 38.2807396,16.8820513 C38.0272727,16.4410256 37.8751926,15.9282051 37.8751926,15.3846154 C37.8751926,13.8769231 38.9498921,12.625641 40.3693066,12.3589744 C41.2108166,10.0512821 41.7481664,7.63076923 41.9408012,5.12820513 L38.8890601,5.12820513 L42.94453,0 L47,5.12820513 L43.8772881,5.12820513 C43.694792,7.73333333 43.1574422,10.2564103 42.3260709,12.6769231 Z M5.1779661,36 C4.52076271,36 3.98305085,36.54 3.98305085,37.2 C3.98305085,37.86 4.52076271,38.4 5.1779661,38.4 C5.83516949,38.4 6.37288136,37.86 6.37288136,37.2 C6.37288136,36.54 5.83516949,36 5.1779661,36 Z M21.9067797,32 C21.2495763,32 20.7118644,32.54 20.7118644,33.2 C20.7118644,33.86 21.2495763,34.4 21.9067797,34.4 C22.5639831,34.4 23.1016949,33.86 23.1016949,33.2 C23.1016949,32.54 22.5639831,32 21.9067797,32 Z M33.8559322,23.2 C33.1987288,23.2 32.6610169,23.74 32.6610169,24.4 C32.6610169,25.06 33.1987288,25.6 33.8559322,25.6 C34.5131356,25.6 35.0508475,25.06 35.0508475,24.4 C35.0508475,23.74 34.5131356,23.2 33.8559322,23.2 Z M41.0254237,14.4 C40.3682203,14.4 39.8305085,14.94 39.8305085,15.6 C39.8305085,16.26 40.3682203,16.8 41.0254237,16.8 C41.6826271,16.8 42.220339,16.26 42.220339,15.6 C42.220339,14.94 41.6826271,14.4 41.0254237,14.4 Z" id="path-1"></path>
    </defs>
    <g id="Page-1" stroke="none" stroke-width="1" fill="none" fill-rule="evenodd">
        <g id="TT-Website-Style-Guide" transform="translate(-105.000000, -10736.000000)">
            <g id="icon-direct-booking" transform="translate(105.000000, 10736.000000)">
                <mask id="mask-2" fill="white">
                    <use xlink:href="#path-1"></use>
                </mask>
                <use fill="#4A4A4A" fill-rule="evenodd" xlink:href="#path-1"></use>
                <g id="Mixin/Fill/gray" mask="url(#mask-2)" fill="#838383" fill-rule="evenodd">
                    <rect id="Rectangle" x="0" y="0" width="47" height="44"></rect>
                </g>
            </g>
        </g>
    </g>
</svg>