<svg xmlns="http://www.w3.org/2000/svg" xmlns:xlink="http://www.w3.org/1999/xlink" width="42" height="42" viewBox="0 0 42 42"><defs><path id="7li2a" d="M861.2 3051.72c-.13.42-.3.83-.5 1.21l1.2 1.2-2.62 2.59-1.21-1.2c-.4.21-.8.38-1.23.5v1.7h-3.71v-1.7c-.43-.12-.85-.29-1.23-.5l-1.22 1.2-2.62-2.6 1.2-1.19c-.2-.39-.37-.8-.5-1.21h-1.71v-3.67h1.71c.13-.42.3-.83.5-1.22l-1.2-1.2 2.62-2.59 1.22 1.2c.39-.2.8-.38 1.23-.5v-1.7h3.7v1.7c.43.12.85.3 1.24.5l1.2-1.2 2.63 2.6-1.2 1.2c.2.38.37.79.5 1.2h1.71v3.68zm-1.55 1.34l.17-.27c.3-.49.52-1.02.66-1.58l.08-.31h1.53v-2.03h-1.53l-.08-.32a5.5 5.5 0 0 0-.66-1.57l-.17-.28 1.08-1.06-1.45-1.44-1.08 1.07-.28-.17c-.5-.3-1.03-.52-1.6-.65l-.31-.08v-1.5h-2.06v1.5l-.31.08c-.56.13-1.1.35-1.6.65l-.28.17-1.08-1.07-1.45 1.44 1.08 1.06-.17.28c-.3.49-.53 1.02-.66 1.57l-.08.32h-1.52v2.03h1.52l.08.31c.14.56.36 1.09.66 1.58l.17.27-1.08 1.07 1.45 1.43 1.08-1.06.28.17c.5.3 1.03.51 1.6.65l.31.07v1.51h2.06v-1.5l.32-.08c.56-.14 1.1-.36 1.6-.65l.27-.17 1.08 1.06 1.45-1.43zm-10.34 6.8c0 .22-.03.44-.07.67l1.02.53-1.26 2.35-1.02-.53c-.16.15-.34.3-.52.43l.33 1.08-2.57.78-.34-1.08c-.21 0-.43-.02-.67-.07l-.54 1-2.38-1.24.54-1c-.16-.16-.3-.34-.44-.52l-1.1.33-.78-2.55 1.1-.33c0-.22.02-.44.06-.67l-1.01-.53 1.26-2.35 1.01.53c.17-.16.34-.3.53-.42l-.34-1.09 2.58-.78.33 1.09c.23 0 .45.02.68.06l.53-1 2.39 1.25-.54 1c.16.16.3.33.43.51l1.1-.33.79 2.55zm-.73-.6l.95-.3-.32-1.02-.95.28-.17-.28c-.19-.32-.42-.6-.7-.85l-.25-.22.46-.86-.96-.5-.46.86-.33-.08a3.7 3.7 0 0 0-1.1-.1l-.33.02-.3-.94-1.04.31.3.94-.3.17c-.31.19-.6.42-.85.7l-.22.24-.88-.46-.5.95.87.46-.08.32c-.1.36-.13.73-.11 1.1l.02.32-.95.29.32 1.03.95-.29.17.28c.2.32.43.6.7.85l.25.22-.46.87.96.5.47-.87.32.08c.36.1.73.13 1.1.1l.34-.01.3.94 1.03-.32-.29-.94.28-.16c.33-.2.62-.43.87-.7l.22-.25.87.46.51-.95-.87-.46.08-.32c.09-.36.12-.73.1-1.1zm6.4-12.88a3.53 3.53 0 0 1 3.56 3.5c0 1.94-1.6 3.5-3.55 3.5a3.53 3.53 0 0 1-3.56-3.5c0-1.93 1.6-3.5 3.56-3.5zm0 6.19a2.7 2.7 0 0 0 2.72-2.69 2.7 2.7 0 0 0-2.72-2.68 2.7 2.7 0 0 0-2.72 2.68 2.7 2.7 0 0 0 2.72 2.69zm-12.53-6a2.28 2.28 0 0 1-2.3-2.26 2.28 2.28 0 0 1 2.3-2.26 2.28 2.28 0 0 1 2.28 2.26 2.28 2.28 0 0 1-2.28 2.27zm0-3.7c-.8 0-1.47.64-1.47 1.44 0 .8.66 1.45 1.47 1.45.82 0 1.48-.65 1.48-1.45 0-.8-.66-1.45-1.48-1.45zm-3.67 5.43l.54-1c-.16-.16-.3-.34-.43-.52l-1.1.34-.79-2.55 1.1-.33c0-.22.02-.45.06-.67l-1.01-.53 1.26-2.35 1.02.53c.16-.16.34-.3.52-.43l-.34-1.08 2.58-.78.34 1.09c.2 0 .45.02.67.06l.54-1 2.38 1.24-.54 1c.16.16.3.34.43.52l1.1-.33.79 2.54-1.1.34c0 .22-.02.44-.06.66l1.01.54-1.26 2.35-1.01-.53c-.17.15-.34.3-.53.42l.34 1.09-2.58.78-.33-1.09c-.23 0-.46-.02-.68-.06l-.54 1zm.53-2.14c.2.32.43.6.71.85l.25.21-.47.87.96.5.47-.86.32.08c.36.1.73.13 1.1.1l.34-.02.29.94 1.04-.31-.3-.94.3-.17c.31-.18.6-.42.85-.7l.22-.24.88.45.5-.94-.87-.46.08-.32c.1-.36.13-.73.1-1.1l-.01-.32.94-.3-.31-1.02-.95.29-.17-.29c-.2-.31-.43-.6-.7-.84l-.26-.22.47-.87-.96-.5-.47.87-.32-.08a3.6 3.6 0 0 0-1.1-.1l-.34.01-.29-.94-1.04.32.3.94-.29.16c-.32.2-.61.43-.86.7l-.22.25-.87-.46-.51.95.87.46-.08.32c-.1.35-.13.72-.1 1.09l.01.33-.94.29.31 1.02.95-.28zm5.65 11.36c1.26 0 2.29 1.02 2.29 2.27a2.28 2.28 0 0 1-2.3 2.26 2.28 2.28 0 0 1-2.29-2.26 2.28 2.28 0 0 1 2.3-2.27zm0 3.72c.8 0 1.46-.65 1.46-1.45 0-.8-.65-1.45-1.46-1.45-.81 0-1.47.65-1.47 1.45 0 .8.66 1.45 1.47 1.45zm34.04-.4c-.04.51-.33.85-.57 1.06a3.01 3.01 0 0 1-1.1.48l-.38.08a.4.4 0 0 0-.28.25.4.4 0 0 0 .06.38l.1.12c.23.45.35.99.34 1.5-.02.52-.2 1.08-.51 1.57l-.1.2a.39.39 0 0 0 .02.39c.21.32.3.74.25 1.19a3.15 3.15 0 0 1-.54 1.4l-.1.13c-.1.1-.18.2-.26.33-.13.13-.24.28-.35.4l-.16.21c-.24.4-.1.73.02.98a5.38 5.38 0 0 1 .37 1.2c.08.48 0 .92-.23 1.35-.22.43-.63.83-1.23 1.22-2.04 1.23-3.88 1.27-5.36 1.3-1.73.02-2.95.24-3.59 2.42h-1.67c.8-3.9 2.56-3.94 5.24-4 1.21-.02 2.87-.05 4.55-1.06.38-.25.58-.44.64-.58.1-.15.1-.32.07-.45-.04-.26-.14-.5-.26-.77-.37-.84-.61-1.4.18-2.54.1-.15.21-.29.32-.42l.24-.3c.1-.1.22-.24.26-.3.13-.16.23-.39.27-.63a.4.4 0 0 0-.08-.3 1.53 1.53 0 0 1-.28-.5 1.2 1.2 0 0 1 0-.7c.01-.14.07-.3.14-.46l.03-.08.18-.3.13-.21c.11-.22.19-.46.22-.75 0-.28-.05-.5-.17-.66a.43.43 0 0 0-.03-.08c-.57-1-.86-1.6-.76-1.97.04-.13.15-.34.65-.61l.11-.05c.25-.14.53-.2.93-.29a.4.4 0 0 0 .08 0l.54-.12a.4.4 0 0 0 .29-.24.39.39 0 0 0-.05-.38l-.46-.59-.68-.87-.25-.33a.64.64 0 0 0-.09-.08l-.12-.18c-.4-.55-.81-1.1-1.14-1.6l-.02-.03a4.6 4.6 0 0 1-.83-3.17c.02-.43.04-.83.09-1.18.05-.34.1-.7.2-1.01.06-.3.13-.55.18-.75a6.8 6.8 0 0 0-.2-1.76c-.25-.94-.52-1.75-.83-2.5a11.36 11.36 0 0 0-5.55-5.84c-2.67-1.32-6.12-1.92-9.98-1.77-2.73.12-5.22.76-7.4 1.91l-1.02-1.24a18.55 18.55 0 0 1 8.37-2.24c4.1-.16 7.81.5 10.73 1.93a12.89 12.89 0 0 1 6.32 6.63c.48 1.14.75 2.15.89 2.8.28 1.28.29 2.28.2 2.56l-.16.61a10.05 10.05 0 0 0-.25 1.88c-.01.3 0 .65.06 1.06 0 .17.05.46.54 1.25.35.58.82 1.18 1.2 1.67l.34.44c.76 1 1.63 2.14 1.69 2.82zM847.28 3079c.44-1.64.98-3.8 1.25-5.94.14-1.02.15-1.59.04-2.03a5.1 5.1 0 0 0-.7-1.12l-.02-.01c-.42-.47-.83-.94-1.23-1.42l1.55-.61.87.98c.55.63.9 1.1 1.09 1.83.16.61.16 1.34-.01 2.6-.23 1.66-.6 3.44-1.19 5.72z"/></defs><g><g transform="translate(-837 -3037)"><use fill="#fff" xlink:href="#7li2a"/></g></g></svg>