<?xml version="1.0" encoding="UTF-8"?>
<svg width="46px" height="45px" viewBox="0 0 46 45" version="1.1" xmlns="http://www.w3.org/2000/svg" xmlns:xlink="http://www.w3.org/1999/xlink">
    <title>icon-hotel-groups</title>
    <defs>
        <path d="M16.4117015,10.0010507 C16.7906866,10.0010507 17.0982687,9.69843891 17.0982687,9.3255779 L17.0982687,7.42344641 C17.0982687,7.04923446 16.7906866,6.74797358 16.4117015,6.74797358 C16.0327164,6.74797358 15.7251343,7.04923446 15.7251343,7.42344641 L15.7251343,9.3255779 C15.7251343,9.69843891 16.0327164,10.0010507 16.4117015,10.0010507 Z M16.4117015,18.274242 C16.7906866,18.274242 17.0982687,17.9716301 17.0982687,17.5987691 L17.0982687,15.6966376 C17.0982687,15.3224257 16.7906866,15.0211648 16.4117015,15.0211648 C16.0327164,15.0211648 15.7251343,15.3224257 15.7251343,15.6966376 L15.7251343,17.5987691 C15.7251343,17.9716301 16.0327164,18.274242 16.4117015,18.274242 Z M16.4117015,14.1376464 C16.7906866,14.1376464 17.0982687,13.8350345 17.0982687,13.4621735 L17.0982687,11.560042 C17.0982687,11.1858301 16.7906866,10.8845692 16.4117015,10.8845692 C16.0327164,10.8845692 15.7251343,11.1858301 15.7251343,11.560042 L15.7251343,13.4621735 C15.7251343,13.8350345 16.0327164,14.1376464 16.4117015,14.1376464 Z M16.4117015,5.86445512 C16.7906866,5.86445512 17.0982687,5.56184329 17.0982687,5.18898229 L17.0982687,3.2868508 C17.0982687,2.91398979 16.7906866,2.61137796 16.4117015,2.61137796 C16.0327164,2.61137796 15.7251343,2.91398979 15.7251343,3.2868508 L15.7251343,5.18898229 C15.7251343,5.56184329 16.0327164,5.86445512 16.4117015,5.86445512 Z M16.4117015,22.4094866 C16.7906866,22.4094866 17.0982687,22.1068748 17.0982687,21.7340138 L17.0982687,19.8318823 C17.0982687,19.4590213 16.7906866,19.1564095 16.4117015,19.1564095 C16.0327164,19.1564095 15.7251343,19.4590213 15.7251343,19.8318823 L15.7251343,21.7340138 C15.7251343,22.1068748 16.0327164,22.4094866 16.4117015,22.4094866 Z M19.7964776,10.0010507 C20.1754627,10.0010507 20.4830448,9.69843891 20.4830448,9.3255779 L20.4830448,7.42344641 C20.4830448,7.04923446 20.1754627,6.74797358 19.7964776,6.74797358 C19.4161194,6.74797358 19.1099104,7.04923446 19.1099104,7.42344641 L19.1099104,9.3255779 C19.1099104,9.69843891 19.4161194,10.0010507 19.7964776,10.0010507 Z M19.7964776,14.1376464 C20.1754627,14.1376464 20.4830448,13.8350345 20.4830448,13.4621735 L20.4830448,11.560042 C20.4830448,11.1858301 20.1754627,10.8845692 19.7964776,10.8845692 C19.4161194,10.8845692 19.1099104,11.1858301 19.1099104,11.560042 L19.1099104,13.4621735 C19.1099104,13.8350345 19.4161194,14.1376464 19.7964776,14.1376464 Z M23.1098507,35.5893125 C23.4888358,35.5893125 23.7964179,35.2880516 23.7964179,34.9138397 L23.7964179,33.0130591 C23.7964179,32.6388472 23.4888358,32.3375863 23.1098507,32.3375863 C22.7308657,32.3375863 22.4232836,32.6388472 22.4232836,33.0130591 L22.4232836,34.9138397 C22.4232836,35.2880516 22.7308657,35.5893125 23.1098507,35.5893125 Z M19.7964776,5.86445512 C20.1754627,5.86445512 20.4830448,5.56184329 20.4830448,5.18898229 L20.4830448,3.2868508 C20.4830448,2.91398979 20.1754627,2.61137796 19.7964776,2.61137796 C19.4161194,2.61137796 19.1099104,2.91398979 19.1099104,3.2868508 L19.1099104,5.18898229 C19.1099104,5.56184329 19.4161194,5.86445512 19.7964776,5.86445512 Z M12.9843582,22.4094866 C13.3647164,22.4094866 13.6709254,22.1068748 13.6709254,21.7340138 L13.6709254,19.8318823 C13.6709254,19.4590213 13.3647164,19.1564095 12.9843582,19.1564095 C12.6053731,19.1564095 12.297791,19.4590213 12.297791,19.8318823 L12.297791,21.7340138 C12.297791,22.1068748 12.6053731,22.4094866 12.9843582,22.4094866 Z M12.9843582,18.274242 C13.3647164,18.274242 13.6709254,17.9716301 13.6709254,17.5987691 L13.6709254,15.6966376 C13.6709254,15.3224257 13.3647164,15.0211648 12.9843582,15.0211648 C12.6053731,15.0211648 12.297791,15.3224257 12.297791,15.6966376 L12.297791,17.5987691 C12.297791,17.9716301 12.6053731,18.274242 12.9843582,18.274242 Z M43.0134328,32.3497448 C43.9183284,31.3027619 44.486806,29.9639748 44.486806,28.4846893 C44.486806,27.0054038 43.9183284,25.6679676 43.0134328,24.6196337 C42.6152239,24.1589613 42.1607164,23.7536776 41.6402985,23.4280997 C40.6969552,22.8390874 39.5860896,22.4851396 38.3887164,22.4851396 C36.6805373,22.4851396 35.1385075,23.1849295 34.0303881,24.3021615 C33.416597,24.9208946 32.9552239,25.6774242 32.6572537,26.5096067 C32.434806,27.1323927 32.2906269,27.7889523 32.2906269,28.4846893 C32.2906269,29.1804263 32.434806,29.8383368 32.6572537,30.4597718 C32.9552239,31.2933053 33.416597,32.0484839 34.0303881,32.6672171 C35.001194,33.6466527 36.3125373,34.2761933 37.770806,34.4234464 L37.770806,32.5334734 C37.1638806,32.4064845 36.6283582,32.1092765 36.1985672,31.648604 C35.4598209,30.8596518 35.2099104,29.78565 35.2346269,29.4911438 C35.266209,29.1196337 35.5971343,28.839988 35.9774925,28.8751126 C36.3537313,28.9061843 36.6338507,29.2317622 36.6036418,29.6019213 C36.616,29.6019213 36.8384478,30.7151006 37.770806,31.1095767 L37.770806,28.4765836 C37.770806,28.1023717 38.0770149,27.8011108 38.4573731,27.8011108 C38.8363582,27.8011108 39.1439403,28.1023717 39.1439403,28.4765836 L39.1439403,31.0933654 C39.9801791,30.6894326 40.1559403,29.6167817 40.1751642,29.4681777 C40.2218507,29.0980186 40.572,28.8359352 40.9386269,28.8791654 C41.3148657,28.9237466 41.5826269,29.2560793 41.5386866,29.6248874 C41.4329552,30.5394776 40.7875821,32.1660162 39.1439403,32.5294206 L39.1439403,34.408586 C40.0529552,34.2964575 40.9001791,34.0033023 41.6402985,33.5412789 C42.1607164,33.2170519 42.6152239,32.8104173 43.0134328,32.3497448 Z M41.6402985,35.0921645 C40.8699701,35.4609727 40.0323582,35.7095467 39.1439403,35.7973582 L39.1439403,40.1933353 C39.9884179,41.4483639 40.0117612,42.9992495 39.9705672,43.6490543 L41.6402985,43.6490543 L41.6402985,35.0921645 Z M34.3022687,38.6424497 C35.5161194,38.3141699 36.7629254,38.4600721 37.770806,38.982888 L37.770806,35.8041129 C36.381194,35.6919844 35.1014328,35.2029421 34.0303881,34.4423597 L34.0303881,38.7518763 C34.1251343,38.7208046 34.203403,38.6694686 34.3022687,38.6424497 Z M37.4343881,40.327079 C36.7052537,39.8164215 35.6685373,39.6718703 34.6661493,39.9461123 C33.8601194,40.1636145 33.2353433,40.6107775 32.997791,41.1416992 C32.8934328,41.3740618 32.6668657,41.5280696 32.4087164,41.5429301 C32.1519403,41.5510357 31.9088955,41.4294506 31.7770746,41.2105974 C31.3623881,40.5148604 30.5371343,39.9582708 29.6734328,39.7934554 C29.113194,39.6853798 28.2755821,39.6894326 27.4517015,40.3122186 C26.0414925,41.3794656 25.3041194,42.7398679 25.0075224,43.6490543 L38.5960597,43.6490543 C38.6358806,43.1289403 38.6921791,41.2092465 37.4343881,40.327079 Z M26.4232239,39.405734 C24.9388657,38.312819 23.0192239,39.2517262 22.5509851,39.6029721 C22.3985672,39.7178025 22.2063284,39.7637346 22.0140896,39.72861 C21.824597,39.6948364 21.6584478,39.5854098 21.5568358,39.4259982 C20.4967761,37.7791954 19.1030448,37.1861303 16.8991642,37.4374062 C14.9053731,37.665716 14.1432836,39.455719 13.7766567,40.3162714 C13.7134925,40.4648754 13.6613134,40.5864605 13.6173731,40.6688682 C13.4924179,40.9133894 13.2205373,41.0606424 12.9527761,41.0376764 C12.4639403,40.9984989 12.021791,41.2254578 10.9713433,41.7874512 L10.7392836,41.9117382 C10.1845373,42.2048934 9.73277612,43.0262684 9.46501493,43.6490543 L23.5918209,43.6490543 C23.8760597,42.4926449 24.7507463,40.7526268 26.4232239,39.405734 Z M9.30847761,41.3497448 C9.26591045,41.2605824 9.23707463,41.1646653 9.23707463,41.0606424 L9.23707463,37.0010507 C8.81689552,37.1253377 8.38298507,37.2077454 7.93397015,37.2523266 L7.93397015,43.6490543 L7.99301493,43.6490543 C8.15779104,43.1762234 8.58620896,42.1197838 9.30847761,41.3497448 Z M7.93397015,29.9153407 L7.93397015,32.2065446 C8.77432836,31.8809667 8.95008955,31.0123086 8.96931343,30.8907235 C8.99677612,30.7096968 9.09838806,30.555689 9.23707463,30.4530171 C9.37850746,30.3489943 9.55976119,30.2963074 9.74650746,30.3219754 C10.1186269,30.3746623 10.3795224,30.7110477 10.3287164,31.078505 C10.2545672,31.6148304 9.9318806,32.4294506 9.23707463,33.0063044 C8.89791045,33.290003 8.47223881,33.51426 7.93397015,33.6182828 L7.93397015,35.901381 C8.38710448,35.8459922 8.82513433,35.7487241 9.23707463,35.5920144 C9.73552239,35.404233 10.1927761,35.1462023 10.610209,34.8341339 C11.9558806,33.8290303 12.838806,32.2551786 12.838806,30.4678775 C12.838806,28.6819273 11.9558806,27.1080757 10.610209,26.1029721 C10.1927761,25.7909036 9.73552239,25.532873 9.23707463,25.3437406 C8.61779104,25.110027 7.95044776,24.9681777 7.24740299,24.9681777 C4.16471642,24.9681777 1.656,27.4350045 1.656,30.4678775 C1.656,33.2697388 3.80495522,35.5636446 6.56083582,35.901381 L6.56083582,33.6250375 C5.87564179,33.4993996 5.2838209,33.1792255 4.82656716,32.6793756 C4.25671642,32.0565896 3.99307463,31.2419694 4.02740299,30.9163915 C4.06722388,30.5462324 4.40776119,30.2787451 4.78262687,30.3165716 C5.15749254,30.3543981 5.42937313,30.6840288 5.39367164,31.052837 C5.41152239,31.0312219 5.61886567,31.9133894 6.56083582,32.2241069 L6.56083582,29.9153407 C6.56083582,29.5424797 6.86841791,29.2398679 7.24740299,29.2398679 C7.62776119,29.2398679 7.93397015,29.5424797 7.93397015,29.9153407 Z M10.610209,24.5061543 C11.2363582,24.8492945 11.8089552,25.2694386 12.297791,25.7787451 L12.297791,24.265686 C12.297791,23.891474 12.6053731,23.5902131 12.9843582,23.5902131 C13.3647164,23.5902131 13.6709254,23.891474 13.6709254,24.265686 L13.6709254,26.1664665 C13.6709254,26.4933954 13.4306269,26.7527769 13.1175522,26.8149204 C13.8013731,27.8754128 14.2119403,29.1223356 14.2119403,30.4678775 C14.2119403,33.0400781 12.746806,35.2583308 10.610209,36.4296007 L10.610209,40.4446112 C11.3503284,40.052837 11.9366567,39.7691384 12.5504478,39.6988892 C12.9733731,38.7126989 14.0402985,36.4039328 16.7412537,36.0945662 C17.6049552,35.9959472 18.3821493,36.0189132 19.0893134,36.1526569 L19.0893134,16.2275593 C19.0893134,15.8546983 19.3955224,15.5520865 19.7758806,15.5520865 L22.0539104,15.5520865 L22.0539104,1.35094566 L10.610209,1.35094566 L10.610209,24.5061543 Z M20.4624478,16.9030321 L20.4624478,36.6079255 C21.1682388,36.9591714 21.7888955,37.4644251 22.3230448,38.1480036 C23.7401194,37.3995797 26.0071642,37.0402282 27.6823881,38.6748724 C28.3922985,38.4046833 29.1598806,38.3168718 29.9370746,38.4668268 C30.8419701,38.6410988 31.7001791,39.1031222 32.3386866,39.7353648 C32.434806,39.6367457 32.5721194,39.5637947 32.6847164,39.4746322 C32.6751045,39.430051 32.6572537,39.3881717 32.6572537,39.3395377 L32.6572537,33.1927349 C31.5724776,31.9160913 30.9174925,30.2746923 30.9174925,28.4846893 C30.9174925,26.6946863 31.5724776,25.0546382 32.6572537,23.7779946 L32.6572537,16.9030321 L20.4624478,16.9030321 Z M30.1979701,15.5520865 L33.3438209,15.5520865 C33.722806,15.5520865 34.0303881,15.8546983 34.0303881,16.2275593 L34.0303881,22.5270189 C35.2593433,21.654308 36.7615522,21.1341939 38.3887164,21.1341939 C39.5545075,21.1341939 40.6557612,21.405734 41.6402985,21.877214 L41.6402985,5.86445512 L30.1979701,5.86445512 L30.1979701,15.5520865 Z M46,44.3245272 C46,44.6987391 45.693791,45 45.3134328,45 L24.165791,45 L7.24740299,45 L0.686567164,45 C0.30758209,45 0,44.6987391 0,44.3245272 C0,43.9516662 0.30758209,43.6490543 0.686567164,43.6490543 L6.56083582,43.6490543 L6.56083582,37.2523266 C3.04698507,36.9064845 0.282865672,34.0141099 0.282865672,30.4678775 C0.282865672,26.6906334 3.4081194,23.6172321 7.24740299,23.6172321 C7.94358209,23.6172321 8.60268657,23.7482738 9.23707463,23.9360552 L9.23707463,0.675472831 C9.23707463,0.301260883 9.54465672,0 9.92364179,0 L22.7404776,0 C23.1194627,0 23.4270448,0.301260883 23.4270448,0.675472831 L23.4270448,15.5520865 L28.8248358,15.5520865 L28.8248358,5.18898229 C28.8248358,4.81612128 29.1324179,4.51350946 29.511403,4.51350946 L42.3268657,4.51350946 C42.7058507,4.51350946 43.0134328,4.81612128 43.0134328,5.18898229 L43.0134328,22.722906 C44.7435821,24.0711498 45.8599403,26.1502552 45.8599403,28.4846893 C45.8599403,30.8191234 44.7435821,32.8995797 43.0134328,34.2464725 L43.0134328,43.6490543 L45.3134328,43.6490543 C45.693791,43.6490543 46,43.9516662 46,44.3245272 Z M16.4117015,26.5460823 C16.7906866,26.5460823 17.0982687,26.2434704 17.0982687,25.8706094 L17.0982687,23.9684779 C17.0982687,23.5956169 16.7906866,23.2930051 16.4117015,23.2930051 C16.0327164,23.2930051 15.7251343,23.5956169 15.7251343,23.9684779 L15.7251343,25.8706094 C15.7251343,26.2434704 16.0327164,26.5460823 16.4117015,26.5460823 Z M16.4117015,30.6826779 C16.7906866,30.6826779 17.0982687,30.380066 17.0982687,30.007205 L17.0982687,28.1050736 C17.0982687,27.7322125 16.7906866,27.4296007 16.4117015,27.4296007 C16.0327164,27.4296007 15.7251343,27.7322125 15.7251343,28.1050736 L15.7251343,30.007205 C15.7251343,30.380066 16.0327164,30.6826779 16.4117015,30.6826779 Z M16.4117015,34.8192735 C16.7906866,34.8192735 17.0982687,34.5166617 17.0982687,34.1438007 L17.0982687,32.2416692 C17.0982687,31.8688082 16.7906866,31.5661963 16.4117015,31.5661963 C16.0327164,31.5661963 15.7251343,31.8688082 15.7251343,32.2416692 L15.7251343,34.1438007 C15.7251343,34.5166617 16.0327164,34.8192735 16.4117015,34.8192735 Z M12.9843582,10.0010507 C13.3647164,10.0010507 13.6709254,9.69843891 13.6709254,9.3255779 L13.6709254,7.42344641 C13.6709254,7.04923446 13.3647164,6.74797358 12.9843582,6.74797358 C12.6053731,6.74797358 12.297791,7.04923446 12.297791,7.42344641 L12.297791,9.3255779 C12.297791,9.69843891 12.6053731,10.0010507 12.9843582,10.0010507 Z M12.9843582,5.86445512 C13.3647164,5.86445512 13.6709254,5.56184329 13.6709254,5.18898229 L13.6709254,3.2868508 C13.6709254,2.91398979 13.3647164,2.61137796 12.9843582,2.61137796 C12.6053731,2.61137796 12.297791,2.91398979 12.297791,3.2868508 L12.297791,5.18898229 C12.297791,5.56184329 12.6053731,5.86445512 12.9843582,5.86445512 Z M12.9843582,14.1376464 C13.3647164,14.1376464 13.6709254,13.8350345 13.6709254,13.4621735 L13.6709254,11.560042 C13.6709254,11.1858301 13.3647164,10.8845692 12.9843582,10.8845692 C12.6053731,10.8845692 12.297791,11.1858301 12.297791,11.560042 L12.297791,13.4621735 C12.297791,13.8350345 12.6053731,14.1376464 12.9843582,14.1376464 Z M39.2277015,15.339988 C39.6066866,15.339988 39.9142687,15.0373762 39.9142687,14.6645152 L39.9142687,12.7623837 C39.9142687,12.3895227 39.6066866,12.0869108 39.2277015,12.0869108 C38.8473433,12.0869108 38.5411343,12.3895227 38.5411343,12.7623837 L38.5411343,14.6645152 C38.5411343,15.0373762 38.8473433,15.339988 39.2277015,15.339988 Z M32.4155821,12.0869108 C32.036597,12.0869108 31.7290149,12.3895227 31.7290149,12.7623837 L31.7290149,14.6645152 C31.7290149,15.0373762 32.036597,15.339988 32.4155821,15.339988 C32.7959403,15.339988 33.1021493,15.0373762 33.1021493,14.6645152 L33.1021493,12.7623837 C33.1021493,12.3895227 32.7959403,12.0869108 32.4155821,12.0869108 Z M23.1098507,31.0312219 C23.4888358,31.0312219 23.7964179,30.729961 23.7964179,30.355749 L23.7964179,28.4549685 C23.7964179,28.0807565 23.4888358,27.7794956 23.1098507,27.7794956 C22.7308657,27.7794956 22.4232836,28.0807565 22.4232836,28.4549685 L22.4232836,30.355749 C22.4232836,30.729961 22.7308657,31.0312219 23.1098507,31.0312219 Z M29.920597,21.6475533 C30.3009552,21.6475533 30.6071642,21.407085 30.6071642,21.1098769 L30.6071642,18.521465 C30.6071642,18.224257 30.3009552,17.9851396 29.920597,17.9851396 C29.5416119,17.9851396 29.2340299,18.224257 29.2340299,18.521465 L29.2340299,21.1098769 C29.2340299,21.407085 29.5416119,21.6475533 29.920597,21.6475533 Z M32.4155821,7.09516662 C32.036597,7.09516662 31.7290149,7.32752927 31.7290149,7.61392975 L31.7290149,10.1145302 C31.7290149,10.4022816 32.036597,10.6346443 32.4155821,10.6346443 C32.7959403,10.6346443 33.1021493,10.4022816 33.1021493,10.1145302 L33.1021493,7.61392975 C33.1021493,7.32752927 32.7959403,7.09516662 32.4155821,7.09516662 Z M35.8415522,20.2858001 C36.2219104,20.2858001 36.5281194,19.9845392 36.5281194,19.6103272 L36.5281194,17.7095467 C36.5281194,17.3353347 36.2219104,17.0340739 35.8415522,17.0340739 C35.4625672,17.0340739 35.1549851,17.3353347 35.1549851,17.7095467 L35.1549851,19.6103272 C35.1549851,19.9845392 35.4625672,20.2858001 35.8415522,20.2858001 Z M39.2277015,10.6346443 C39.6066866,10.6346443 39.9142687,10.4022816 39.9142687,10.1145302 L39.9142687,7.61392975 C39.9142687,7.32752927 39.6066866,7.09516662 39.2277015,7.09516662 C38.8473433,7.09516662 38.5411343,7.32752927 38.5411343,7.61392975 L38.5411343,10.1145302 C38.5411343,10.4022816 38.8473433,10.6346443 39.2277015,10.6346443 Z M39.2277015,20.2858001 C39.6066866,20.2858001 39.9142687,19.9845392 39.9142687,19.6103272 L39.9142687,17.7095467 C39.9142687,17.3353347 39.6066866,17.0340739 39.2277015,17.0340739 C38.8473433,17.0340739 38.5411343,17.3353347 38.5411343,17.7095467 L38.5411343,19.6103272 C38.5411343,19.9845392 38.8473433,20.2858001 39.2277015,20.2858001 Z M35.8415522,15.339988 C36.2219104,15.339988 36.5281194,15.0373762 36.5281194,14.6645152 L36.5281194,12.7623837 C36.5281194,12.3895227 36.2219104,12.0869108 35.8415522,12.0869108 C35.4625672,12.0869108 35.1549851,12.3895227 35.1549851,12.7623837 L35.1549851,14.6645152 C35.1549851,15.0373762 35.4625672,15.339988 35.8415522,15.339988 Z M35.8415522,10.6346443 C36.2219104,10.6346443 36.5281194,10.4022816 36.5281194,10.1145302 L36.5281194,7.61392975 C36.5281194,7.32752927 36.2219104,7.09516662 35.8415522,7.09516662 C35.4625672,7.09516662 35.1549851,7.32752927 35.1549851,7.61392975 L35.1549851,10.1145302 C35.1549851,10.4022816 35.4625672,10.6346443 35.8415522,10.6346443 Z M26.537194,31.0312219 C26.9161791,31.0312219 27.2237612,30.729961 27.2237612,30.355749 L27.2237612,28.4549685 C27.2237612,28.0807565 26.9161791,27.7794956 26.537194,27.7794956 C26.1568358,27.7794956 25.8506269,28.0807565 25.8506269,28.4549685 L25.8506269,30.355749 C25.8506269,30.729961 26.1568358,31.0312219 26.537194,31.0312219 Z M26.537194,35.5893125 C26.9161791,35.5893125 27.2237612,35.2880516 27.2237612,34.9138397 L27.2237612,33.0130591 C27.2237612,32.6388472 26.9161791,32.3375863 26.537194,32.3375863 C26.1568358,32.3375863 25.8506269,32.6388472 25.8506269,33.0130591 L25.8506269,34.9138397 C25.8506269,35.2880516 26.1568358,35.5893125 26.537194,35.5893125 Z M23.1098507,21.6475533 C23.4888358,21.6475533 23.7964179,21.407085 23.7964179,21.1098769 L23.7964179,18.521465 C23.7964179,18.224257 23.4888358,17.9851396 23.1098507,17.9851396 C22.7308657,17.9851396 22.4232836,18.224257 22.4232836,18.521465 L22.4232836,21.1098769 C22.4232836,21.407085 22.7308657,21.6475533 23.1098507,21.6475533 Z M23.1098507,26.4731312 C23.4888358,26.4731312 23.7964179,26.1718703 23.7964179,25.7976584 L23.7964179,23.8968778 C23.7964179,23.5226659 23.4888358,23.221405 23.1098507,23.221405 C22.7308657,23.221405 22.4232836,23.5226659 22.4232836,23.8968778 L22.4232836,25.7976584 C22.4232836,26.1718703 22.7308657,26.4731312 23.1098507,26.4731312 Z M29.920597,35.5893125 C30.3009552,35.5893125 30.6071642,35.2880516 30.6071642,34.9138397 L30.6071642,33.0130591 C30.6071642,32.6388472 30.3009552,32.3375863 29.920597,32.3375863 C29.5416119,32.3375863 29.2340299,32.6388472 29.2340299,33.0130591 L29.2340299,34.9138397 C29.2340299,35.2880516 29.5416119,35.5893125 29.920597,35.5893125 Z M29.920597,31.0312219 C30.3009552,31.0312219 30.6071642,30.729961 30.6071642,30.355749 L30.6071642,28.4549685 C30.6071642,28.0807565 30.3009552,27.7794956 29.920597,27.7794956 C29.5416119,27.7794956 29.2340299,28.0807565 29.2340299,28.4549685 L29.2340299,30.355749 C29.2340299,30.729961 29.5416119,31.0312219 29.920597,31.0312219 Z M29.920597,26.4731312 C30.3009552,26.4731312 30.6071642,26.1718703 30.6071642,25.7976584 L30.6071642,23.8968778 C30.6071642,23.5226659 30.3009552,23.221405 29.920597,23.221405 C29.5416119,23.221405 29.2340299,23.5226659 29.2340299,23.8968778 L29.2340299,25.7976584 C29.2340299,26.1718703 29.5416119,26.4731312 29.920597,26.4731312 Z M26.537194,21.6475533 C26.9161791,21.6475533 27.2237612,21.407085 27.2237612,21.1098769 L27.2237612,18.521465 C27.2237612,18.224257 26.9161791,17.9851396 26.537194,17.9851396 C26.1568358,17.9851396 25.8506269,18.224257 25.8506269,18.521465 L25.8506269,21.1098769 C25.8506269,21.407085 26.1568358,21.6475533 26.537194,21.6475533 Z M25.8506269,25.7976584 L25.8506269,23.8968778 C25.8506269,23.5226659 26.1568358,23.221405 26.537194,23.221405 C26.9161791,23.221405 27.2237612,23.5226659 27.2237612,23.8968778 L27.2237612,25.7976584 C27.2237612,26.1718703 26.9161791,26.4731312 26.537194,26.4731312 C26.1568358,26.4731312 25.8506269,26.1718703 25.8506269,25.7976584 Z" id="path-1"></path>
    </defs>
    <g id="Page-1" stroke="none" stroke-width="1" fill="none" fill-rule="evenodd">
        <g id="TT-Website-Style-Guide" transform="translate(-507.000000, -9788.000000)">
            <g id="icon-hotel-groups" transform="translate(507.000000, 9788.000000)">
                <mask id="mask-2" fill="white">
                    <use xlink:href="#path-1"></use>
                </mask>
                <use fill-rule="evenodd" xlink:href="#path-1"></use>
                <g id="Mixin/Fill/gray" mask="url(#mask-2)" fill="#fff" fill-rule="evenodd">
                    <rect id="Rectangle" x="0" y="0" width="47" height="45"></rect>
                </g>
            </g>
        </g>
    </g>
</svg>
