<?xml version="1.0" encoding="UTF-8"?>
<svg width="35px" height="22px" viewBox="0 0 35 22" version="1.1" xmlns="http://www.w3.org/2000/svg" xmlns:xlink="http://www.w3.org/1999/xlink">
  <title>icon-webinar</title>
  <defs></defs>
  <g id="Page-1" stroke="none" stroke-width="1" fill="none" fill-rule="evenodd">
    <g id="TT-Navigation" transform="translate(-844.000000, -2755.000000)" fill="#3a75a2">
      <g id="Group-6" transform="translate(828.000000, 2685.000000)">
        <g id="Group-7" transform="translate(16.000000, 70.000000)">
          <path
            d="M35,21.1774919 C35,21.6309746 34.6324007,22 34.1806704,22 L0.819329551,22 C0.36759929,22 0,21.6309746 0,21.1774919 C0,20.7240091 0.36759929,20.3542229 0.819329551,20.3542229 L34.1806704,20.3542229 C34.6324007,20.3542229 35,20.7240091 35,21.1774919 Z M4.93492572,16.8450578 L29.6641258,16.8450578 L29.6641258,1.64501626 L4.93492572,1.64501626 L4.93492572,16.8450578 Z M4.11559617,18.490074 L30.4842133,18.490074 C30.9359435,18.490074 31.3035428,18.1210486 31.3035428,17.6675659 L31.3035428,0.822508128 C31.3035428,0.369025386 30.9359435,0 30.4842133,0 L4.11559617,0 C3.66386591,0 3.29550868,0.369025386 3.29550868,0.822508128 L3.29550868,17.6675659 C3.29550868,18.1210486 3.66386591,18.490074 4.11559617,18.490074 Z M28.213435,15.2723248 L6.14762441,15.2038459 L6.18476331,3.10285675 L28.2505739,3.17133569 L28.213435,15.2723248 Z M28.4817446,2.71024417 L5.95662437,2.64024348 C5.82701719,2.64024348 5.72621162,2.74144013 5.72545368,2.87078924 L5.68679891,15.4336308 C5.68679891,15.5606972 5.78912036,15.6649374 5.91645372,15.6649374 L28.4415739,15.7349381 C28.5689073,15.735699 28.6719867,15.6322197 28.6727446,15.5043923 L28.7113994,2.94155081 C28.7121573,2.81448433 28.6090779,2.71024417 28.4817446,2.71024417 Z"
            id="icon-webinar"></path>
        </g>
      </g>
    </g>
  </g>
</svg>
