<?xml version="1.0" encoding="UTF-8"?>
<svg width="18px" height="18px" viewBox="0 0 18 18" version="1.1" xmlns="http://www.w3.org/2000/svg" xmlns:xlink="http://www.w3.org/1999/xlink">
    <!-- Generator: Sketch 50.2 (55047) - http://www.bohemiancoding.com/sketch -->
    <title>icon-collapse</title>
    <desc>Created with Sketch.</desc>
    <defs>
        <path d="M9.00076427,1.52853261 C10.9962636,1.52853261 12.8725374,2.30579144 14.283373,3.71586277 C17.1975204,6.62924592 17.1975204,11.3699898 14.2849015,14.2826087 C12.8725374,15.6942086 10.9947351,16.4714674 8.99923573,16.4714674 C7.00373641,16.4714674 5.12746264,15.6949728 3.71662704,14.2841372 C2.30579144,12.8733016 1.52853261,10.9970279 1.52853261,9 C1.52853261,7.00373641 2.30579144,5.12746264 3.71815557,3.71586277 C5.12899117,2.30579144 7.00526495,1.52853261 9.00076427,1.52853261 M8.99923573,18 C11.4043818,18 13.6643173,17.0637738 15.365574,15.3640455 C18.8735564,11.8545346 18.8735564,6.14470109 15.3640455,2.63519022 C13.6658458,0.936226223 11.4043818,0 9.00076427,0 C6.59638247,0 4.33568274,0.936226223 2.63748302,2.63519022 C0.936990489,4.33491848 0,6.59561821 0,9 C0,11.4051461 0.935461957,13.6650815 2.63595448,15.3648098 C4.33491848,17.064538 6.59485394,18 8.99923573,18 M12.0089164,9.7642663 L5.99031929,9.7642663 C5.56768003,9.7642663 5.22605299,9.42263927 5.22605299,9 C5.22605299,8.578125 5.56768003,8.2357337 5.99031929,8.2357337 L12.0089164,8.2357337 C12.4307914,8.2357337 12.7731827,8.578125 12.7731827,9 C12.7731827,9.42263927 12.4307914,9.7642663 12.0089164,9.7642663" id="path-1"></path>
    </defs>
    <g id="Page-1" stroke="none" stroke-width="1" fill="none" fill-rule="evenodd">
        <g id="mobile-navigation-small-expanded" transform="translate(-107.000000, -33.000000)">
            <g id="icon-collapse" transform="translate(107.000000, 33.000000)">
                <mask id="mask-2" fill="white">
                    <use xlink:href="#path-1"></use>
                </mask>
                <use id="Fill-4" fill="#F2EEE8" fill-rule="evenodd" xlink:href="#path-1"></use>
                <g id="Mixin/Fill/White" mask="url(#mask-2)" fill="#FFFFFF" fill-rule="evenodd">
                    <rect id="Box" x="0" y="0" width="47" height="44"></rect>
                </g>
            </g>
        </g>
    </g>
</svg>