<?xml version="1.0" encoding="UTF-8"?>
<svg width="19px" height="19px" viewBox="0 0 19 19" version="1.1" xmlns="http://www.w3.org/2000/svg" xmlns:xlink="http://www.w3.org/1999/xlink">
    <!-- Generator: Sketch 50.2 (55047) - http://www.bohemiancoding.com/sketch -->
    <title>icon-copywriting</title>
    <desc>Created with Sketch.</desc>
    <defs></defs>
    <g id="Page-1" stroke="none" stroke-width="1" fill="none" fill-rule="evenodd">
        <g id="TT-Website-Style-Guide" transform="translate(-1181.000000, -11028.000000)" fill="#4A4A4A">
            <path d="M1193.904,11031.6683 L1194.384,11032.1483 L1186.779,11039.7522 L1186.3,11039.2722 L1193.904,11031.6683 Z M1198.606,11033.1313 L1188.328,11043.4083 L1184.434,11039.5132 L1194.71,11029.2352 C1195.46,11028.4862 1196.767,11028.4862 1197.518,11029.2352 L1198.606,11030.3242 C1199.379,11031.0982 1199.379,11032.3572 1198.606,11033.1313 Z M1182.585,11044.3983 L1183.443,11045.2563 L1182.115,11045.7262 L1182.585,11044.3983 Z M1187.708,11043.7483 L1184.153,11045.0053 L1182.836,11043.6892 L1184.094,11040.1333 L1187.708,11043.7483 Z M1199.086,11029.8443 L1197.998,11028.7553 C1196.992,11027.7483 1195.236,11027.7483 1194.23,11028.7553 L1183.713,11039.2722 L1181,11046.8412 L1188.442,11044.2092 L1199.086,11033.6112 C1200.125,11032.5732 1200.125,11030.8823 1199.086,11029.8443 Z" id="icon-copywriting"></path>
        </g>
    </g>
</svg>