<?xml version="1.0" encoding="UTF-8"?>
<svg width="41px" height="41px" viewBox="0 0 41 41" version="1.1" xmlns="http://www.w3.org/2000/svg" xmlns:xlink="http://www.w3.org/1999/xlink">
    <!-- Generator: Sketch 50.2 (55047) - http://www.bohemiancoding.com/sketch -->
    <title>icon-live-rates</title>
    <desc>Created with Sketch.</desc>
    <defs></defs>
    <g id="Page-1" stroke="none" stroke-width="1" fill="none" fill-rule="evenodd">
        <g id="TT-Website-Style-Guide" transform="translate(-1207.000000, -10403.000000)" fill="#838383">
            <path d="M1234.47907,10433.1411 C1235.08736,10432.7012 1235.22314,10431.8512 1234.78322,10431.2457 L1228.8578,10423.0587 L1228.8578,10411.9337 C1228.8578,10411.1843 1228.2495,10410.576 1227.5,10410.576 C1226.74778,10410.576 1226.1422,10411.1843 1226.1422,10411.9337 L1226.1422,10423.4986 C1226.1422,10423.7865 1226.23182,10424.0634 1226.39747,10424.2943 L1232.58359,10432.8369 C1232.847,10433.2035 1233.2652,10433.399 1233.6834,10433.399 C1233.96039,10433.399 1234.2401,10433.3121 1234.47907,10433.1411 M1227.5,10405.7154 C1217.69128,10405.7154 1209.71559,10413.6933 1209.71559,10423.4986 C1209.71559,10433.3067 1217.69128,10441.2846 1227.5,10441.2846 C1237.306,10441.2846 1245.28441,10433.3067 1245.28441,10423.4986 C1245.28441,10413.6933 1237.306,10405.7154 1227.5,10405.7154 M1227.5,10444 C1216.19771,10444 1207,10434.8029 1207,10423.4986 C1207,10412.1971 1216.19771,10403 1227.5,10403 C1238.80229,10403 1248,10412.1971 1248,10423.4986 C1248,10434.8029 1238.80229,10444 1227.5,10444" id="icon-live-rates"></path>
        </g>
    </g>
</svg>