<?xml version="1.0" encoding="UTF-8"?>
<svg width="30px" height="42px" viewBox="0 0 30 42" version="1.1" xmlns="http://www.w3.org/2000/svg" xmlns:xlink="http://www.w3.org/1999/xlink">
    <title>icon-smart-strategy</title>
    <defs>
        <path d="M21.1764706,28.8777543 L21.1764706,34.6746434 C21.1764706,35.651757 20.3823529,36.4528302 19.4117647,36.4528302 L10.5882353,36.4528302 C9.61764706,36.4528302 8.82352941,35.651757 8.82352941,34.6746434 L8.82352941,28.8777543 C3.62647059,26.5029857 0,21.2395527 0,15.1145881 C0,6.76600092 6.71470588,0 15,0 C23.2852941,0 30,6.76600092 30,15.1145881 C30,21.2395527 26.3735294,26.5029857 21.1764706,28.8777543 M15,1.58490566 C7.59157895,1.58490566 1.57894737,7.62892198 1.57894737,15.0780214 C1.57894737,20.4752677 4.73736842,25.1168995 9.29157895,27.2748985 C9.61368421,26.9600592 10.0431579,26.7720551 10.5263158,26.7720551 L10.5263158,34.8679245 L14.1052632,34.8679245 L14.1052632,23.5427027 L9.14842105,18.5673412 L10.4189474,17.2899929 L15,21.9046384 L19.5810526,17.2899929 L20.8515789,18.5673412 L15.8947368,23.5427027 L15.8947368,34.8679245 L19.4736842,34.8679245 L19.4736842,26.7720551 C19.9568421,26.7720551 20.3863158,26.9600592 20.7084211,27.2748985 C25.2626316,25.1168995 28.4210526,20.4752677 28.4210526,15.0780214 C28.4210526,7.62892198 22.4084211,1.58490566 15,1.58490566 M9.13533835,37.245283 L20.8646617,37.245283 C21.1172932,37.245283 21.3157895,37.4188302 21.3157895,37.6415094 L21.3157895,38.4339623 C21.3157895,38.6558491 21.1172932,38.8301887 20.8646617,38.8301887 L9.13533835,38.8301887 C8.88270677,38.8301887 8.68421053,38.6558491 8.68421053,38.4339623 L8.68421053,37.6415094 C8.68421053,37.4188302 8.88270677,37.245283 9.13533835,37.245283 M9.13533835,40.4150943 L20.8646617,40.4150943 C21.1172932,40.4150943 21.3157895,40.5886415 21.3157895,40.8113208 L21.3157895,41.6037736 C21.3157895,41.8256604 21.1172932,42 20.8646617,42 L9.13533835,42 C8.88270677,42 8.68421053,41.8256604 8.68421053,41.6037736 L8.68421053,40.8113208 C8.68421053,40.5886415 8.88270677,40.4150943 9.13533835,40.4150943" id="path-1"></path>
    </defs>
    <g id="Page-1" stroke="none" stroke-width="1" fill="none" fill-rule="evenodd">
        <g id="TT-Website-Style-Guide" transform="translate(-105.000000, -10843.000000)">
            <g id="icon-smart-strategy" transform="translate(105.000000, 10843.000000)">
                <mask id="mask-2" fill="white">
                    <use xlink:href="#path-1"></use>
                </mask>
                <use fill="#4A4A4A" fill-rule="evenodd" xlink:href="#path-1"></use>
                <g id="Mixin/Fill/gray" mask="url(#mask-2)" fill="#838383" fill-rule="evenodd">
                    <rect id="Rectangle" x="0" y="0" width="47" height="44"></rect>
                </g>
            </g>
        </g>
    </g>
</svg>
