<?xml version="1.0" encoding="UTF-8"?>
<svg width="19px" height="19px" viewBox="0 0 19 19" version="1.1" xmlns="http://www.w3.org/2000/svg" xmlns:xlink="http://www.w3.org/1999/xlink">
    <!-- Generator: Sketch 50.2 (55047) - http://www.bohemiancoding.com/sketch -->
    <title>icon-inbound</title>
    <desc>Created with Sketch.</desc>
    <defs></defs>
    <g id="Page-1" stroke="none" stroke-width="1" fill="none" fill-rule="evenodd">
        <g id="TT-Website-Style-Guide" transform="translate(-460.000000, -11082.000000)" fill="#4A4A4A">
            <path d="M462.395,11082 L462.395,11082.962 C470.827,11082.962 477.688,11089.822 477.688,11098.254 L478.651,11098.254 C478.651,11089.292 471.358,11082 462.395,11082 M462.395,11086.593 L462.395,11087.556 C468.295,11087.556 473.095,11092.355 473.095,11098.254 L474.058,11098.254 C474.058,11091.824 468.826,11086.593 462.395,11086.593 M462.395,11090.42 L462.395,11091.383 C466.184,11091.383 469.267,11094.466 469.267,11098.254 L470.229,11098.254 C470.229,11093.934 466.716,11090.42 462.395,11090.42 M462.395,11096.823 C461.606,11096.823 460.963,11097.465 460.963,11098.254 C460.963,11099.044 461.606,11099.687 462.395,11099.687 C463.185,11099.687 463.826,11099.044 463.826,11098.254 C463.826,11097.465 463.185,11096.823 462.395,11096.823 M462.395,11100.649 C461.075,11100.649 460,11099.575 460,11098.254 C460,11096.934 461.075,11095.86 462.395,11095.86 C463.715,11095.86 464.789,11096.934 464.789,11098.254 C464.789,11099.575 463.715,11100.649 462.395,11100.649" id="icon-inbound"></path>
        </g>
    </g>
</svg>