<svg xmlns="http://www.w3.org/2000/svg" xmlns:xlink="http://www.w3.org/1999/xlink" width="34" height="35" viewBox="0 0 34 35"><defs><path id="7zqka" d="M1226.99 297.33c-8.66 0-15.7 7.25-15.7 16.15 0 8.91 7.04 16.16 15.7 16.16 8.65 0 15.69-7.25 15.69-16.16 0-8.9-7.04-16.15-15.7-16.15zm0 33.64c-9.37 0-16.99-7.84-16.99-17.49 0-9.64 7.62-17.48 16.99-17.48 9.36 0 16.98 7.84 16.98 17.48 0 9.65-7.62 17.49-16.98 17.49z"/><path id="7zqkb" d="M1234.28 306.89a6.4 6.4 0 0 1-2.1.84 3.22 3.22 0 0 0-2.41-1.1 3.4 3.4 0 0 0-3.3 3.5c0 .26.02.53.08.79a9.23 9.23 0 0 1-6.82-3.65 3.63 3.63 0 0 0 1.03 4.66 3.17 3.17 0 0 1-1.5-.44v.05c0 1.69 1.14 3.1 2.65 3.42a3.07 3.07 0 0 1-1.5.06 3.33 3.33 0 0 0 3.1 2.42 6.41 6.41 0 0 1-4.9 1.45 9.02 9.02 0 0 0 5.07 1.57c6.08 0 9.4-5.32 9.4-9.93v-.46c.65-.49 1.2-1.1 1.65-1.8-.6.27-1.23.46-1.9.55a3.47 3.47 0 0 0 1.45-1.93"/></defs><g><g transform="translate(-1210 -296)"><g><use fill="#24a9e6" xlink:href="#7zqka"/></g><g><use fill="#24a9e6" xlink:href="#7zqkb"/></g></g></g></svg>