<svg xmlns="http://www.w3.org/2000/svg" xmlns:xlink="http://www.w3.org/1999/xlink" width="34" height="35" viewBox="0 0 34 35"><defs><path id="8r06a" d="M1176.98 297.33c-8.65 0-15.69 7.25-15.69 16.15 0 8.91 7.04 16.16 15.7 16.16 8.65 0 15.69-7.25 15.69-16.16 0-8.9-7.04-16.15-15.7-16.15zm0 33.64c-9.36 0-16.98-7.84-16.98-17.49 0-9.64 7.62-17.48 16.98-17.48 9.37 0 16.99 7.84 16.99 17.48 0 9.65-7.62 17.49-16.99 17.49z"/><path id="8r06b" d="M1169.44 310.95h3.1v10.1h-3.1zm11.55-.1c2.2 0 3.94 1.46 3.94 4.59v5.6h-3.52v-5.22c0-1.36-.55-2.3-1.75-2.3-.93 0-1.44.63-1.68 1.24-.1.22-.08.52-.08.83v5.46h-3.48s.05-9.25 0-10.1h3.48v1.59c.2-.7 1.32-1.68 3.1-1.68m-10.07-4.67c1.15 0 1.85.75 1.87 1.75 0 .98-.72 1.75-1.89 1.75h-.02c-1.12 0-1.85-.77-1.85-1.75 0-1 .75-1.75 1.9-1.75"/></defs><g><g transform="translate(-1160 -296)"><g><use fill="#187fb8" xlink:href="#8r06a"/></g><g><use fill="#187fb8" xlink:href="#8r06b"/></g></g></g></svg>