<svg xmlns="http://www.w3.org/2000/svg" xmlns:xlink="http://www.w3.org/1999/xlink" width="40" height="35" viewBox="0 0 40 35"><defs><path id="j9mda" d="M987.76 1242.01c.68 0 1.24.55 1.24 1.23v29.53c0 .68-.56 1.23-1.24 1.23h-37.52c-.68 0-1.24-.55-1.24-1.23v-29.53c0-.68.56-1.23 1.24-1.23h5.97v-1.78c0-.68.56-1.23 1.24-1.23.69 0 1.25.55 1.25 1.23v1.78h20.8v-1.78c0-.68.56-1.23 1.25-1.23s1.24.55 1.24 1.23v1.78zm-1.26 2.46H982v1.79c0 .67-.56 1.23-1.25 1.23-.68 0-1.24-.56-1.24-1.23v-1.79h-20.8v1.79c0 .67-.56 1.23-1.25 1.23-.68 0-1.24-.56-1.24-1.23v-1.79h-4.72v8.21h35.01zm-31.25 16.62h3.54v-3.5h-3.54zm6.13 0h3.56v-3.5h-3.56zm6.14 0h3.53v-3.5h-3.53zm6.13 0h3.55v-3.5h-3.55zm6.14 0h3.54v-3.5h-3.54zm-24.54 5.62h3.54v-3.5h-3.54zm6.13 0h3.56v-3.5h-3.56zm6.14 0h3.53v-3.5h-3.53zm6.13 0h3.55v-3.5h-3.55zm6.14 0h3.54v-3.5h-3.54z"/><path id="j9mdc" d="M949 1283v-44h47v44z"/><clipPath id="j9mdb"><use xlink:href="#j9mda"/></clipPath></defs><g><g transform="translate(-949 -1239)"><g><use fill="#838383" xlink:href="#j9mda"/></g><g clip-path="url(#j9mdb)"><g><use fill="#838383" xlink:href="#j9mdc"/></g></g></g></g></svg>