<?xml version="1.0" encoding="utf-8"?>
<!-- Generator: Adobe Illustrator 22.1.0, SVG Export Plug-In . SVG Version: 6.00 Build 0)  -->
<svg version="1.1" id="Layer_1" xmlns="http://www.w3.org/2000/svg" xmlns:xlink="http://www.w3.org/1999/xlink" x="0px" y="0px"
	 viewBox="0 0 72 16" style="enable-background:new 0 0 72 16;" xml:space="preserve">
<style type="text/css">
	.st0{fill:#737B82;}
	.st1{fill:#0093D7;}
</style>
<g>
	<polygon class="st0" points="48.8,4.7 48.8,3.8 48,3.8 48,3.9 	"/>
	<rect x="48" y="5.4" class="st0" width="0.8" height="4.5"/>
	<polygon class="st0" points="30.4,9.9 29.5,9.9 27.7,5.4 28.6,5.4 30,9 31.4,5.4 32.2,5.4 	"/>
	<rect x="37.8" y="3.4" class="st0" width="0.8" height="6.6"/>
	<rect x="29.2" y="12.8" class="st1" width="0.4" height="2.4"/>
	<polygon class="st1" points="29.6,12.5 29.6,12.1 29.2,12.1 	"/>
	<polygon class="st0" points="7.3,5.4 2.7,5.4 7.3,9.9 	"/>
	<path class="st0" d="M7.3,9.9l3.2,0c0.7,0,1.3-0.6,1.3-1.3V0.8L7.3,9.9z"/>
	<path class="st0" d="M11.8,0.8H4c-0.7,0-1.3,0.6-1.3,1.3v3.2L11.8,0.8z"/>
	<path class="st0" d="M22,5.3c-0.1,0-0.2,0-0.3,0c-0.6,0-1.1,0.2-1.5,0.6V5.4h-0.8v4.5h0.8V7.1c0-0.7,0.6-1.2,1.3-1.2
		C21.7,6,21.8,6,22,6V5.3z"/>
	<path class="st0" d="M24.7,6C23.7,6,23,6.7,23,7.7c0,0.9,0.7,1.7,1.7,1.7c0.9,0,1.7-0.7,1.7-1.7C26.4,6.7,25.6,6,24.7,6 M27.2,9.9
		h-0.8V9.2c-0.3,0.5-1,0.8-1.7,0.8c-1.4,0-2.5-1.1-2.5-2.4s1.1-2.4,2.5-2.4c0.7,0,1.4,0.4,1.7,0.8V5.4h0.8V9.9z"/>
	<path class="st0" d="M18.4,9.3c-0.1,0-0.1,0-0.2,0c-0.8,0-1.3-0.5-1.3-1.2v-2h1.5V5.4h-1.5v-1h-0.8v1h-0.4v0.7h0.4v2
		c0,1.1,0.9,1.9,2.1,1.9c0.1,0,0.2,0,0.2,0V9.3z"/>
	<path class="st0" d="M36.3,7.2c-0.2-0.7-0.9-1.2-1.6-1.2c-0.7,0-1.4,0.5-1.6,1.2H36.3z M37.1,8.5c-0.3,1-1.2,1.5-2.4,1.5
		c-1.4,0-2.6-1-2.6-2.4c0-1.3,1.1-2.4,2.5-2.4c1.3,0,2.5,1,2.5,2.6H33c0.1,0.9,0.9,1.5,1.7,1.5c0.7,0,1.2-0.3,1.5-0.8H37.1z"/>
	<path class="st0" d="M47.1,5.3c-0.1,0-0.2,0-0.3,0c-0.6,0-1.1,0.2-1.5,0.6V5.4h-0.8v4.5h0.8V7.1c0-0.7,0.6-1.2,1.3-1.2
		C46.8,6,47,6,47.1,6V5.3z"/>
	<path class="st0" d="M43.6,9.3c-0.1,0-0.1,0-0.2,0c-0.8,0-1.3-0.5-1.3-1.2v-2h1.5V5.4H42v-1h-0.8v1h-0.4v0.7h0.4v2
		c0,1.1,0.9,1.9,2.1,1.9c0.1,0,0.2,0,0.2,0V9.3z"/>
	<path class="st0" d="M52.2,6c-0.9,0-1.7,0.8-1.7,1.7c0,0.9,0.8,1.7,1.7,1.7c0.9,0,1.7-0.8,1.7-1.7C53.9,6.7,53.2,6,52.2,6 M52.2,10
		c-0.7,0-1.3-0.4-1.7-0.8v3.2h-0.8V5.4h0.8v0.7c0.3-0.5,1-0.8,1.7-0.8c1.4,0,2.5,1.1,2.5,2.4C54.7,9,53.7,10,52.2,10"/>
	<path class="st0" d="M57.8,6c-0.9,0-1.7,0.8-1.7,1.7c0,0.9,0.8,1.7,1.7,1.7c0.9,0,1.7-0.8,1.7-1.7C59.5,6.7,58.7,6,57.8,6 M57.8,10
		c-0.7,0-1.3-0.4-1.7-0.8v3.2h-0.8V5.4h0.8v0.7c0.3-0.5,1-0.8,1.7-0.8c1.4,0,2.5,1.1,2.5,2.4C60.3,9,59.2,10,57.8,10"/>
	<path class="st0" d="M65,7.2c-0.2-0.7-0.9-1.2-1.6-1.2c-0.7,0-1.4,0.5-1.6,1.2H65z M65.8,8.5c-0.3,1-1.2,1.5-2.4,1.5
		c-1.4,0-2.6-1-2.6-2.4c0-1.3,1.1-2.4,2.5-2.4c1.3,0,2.5,1,2.5,2.6h-4.2c0.1,0.9,0.9,1.5,1.7,1.5c0.7,0,1.2-0.3,1.5-0.8H65.8z"/>
	<path class="st0" d="M69.3,5.3c-0.1,0-0.2,0-0.3,0c-0.6,0-1.1,0.2-1.5,0.6V5.4h-0.8v4.5h0.8V7.1c0-0.7,0.6-1.2,1.3-1.2
		C69,6,69.1,6,69.3,6V5.3z"/>
	<path class="st1" d="M20.6,14.8c0.5,0,0.8-0.4,0.8-0.8c0-0.4-0.3-0.8-0.8-0.8c-0.4,0-0.8,0.3-0.8,0.8
		C19.8,14.5,20.2,14.8,20.6,14.8 M19.8,13.1c0.2-0.3,0.5-0.3,0.8-0.3c0.8,0,1.2,0.6,1.2,1.2c0,0.6-0.4,1.2-1.2,1.2
		c-0.3,0-0.6-0.1-0.8-0.4v0.3h-0.4v-3h0.4V13.1z"/>
	<path class="st1" d="M24.2,13.7c-0.1-0.4-0.4-0.6-0.7-0.6c-0.3,0-0.7,0.2-0.8,0.6H24.2z M24.6,14.1h-2c0,0.5,0.4,0.7,0.8,0.7
		c0.3,0,0.6-0.1,0.7-0.4h0.4c-0.2,0.5-0.7,0.8-1.1,0.8c-0.6,0-1.2-0.4-1.2-1.2c0-0.8,0.6-1.2,1.2-1.2c0.6,0,1.1,0.4,1.2,1.1
		C24.6,13.9,24.6,14,24.6,14.1"/>
	<path class="st1" d="M27.3,13.1c-0.5,0-0.8,0.4-0.8,0.8c0,0.5,0.3,0.9,0.8,0.8c0.4,0,0.8-0.3,0.8-0.8
		C28.1,13.4,27.7,13.1,27.3,13.1 M28.1,12.1h0.4v3h-0.4v-0.3c-0.2,0.3-0.5,0.3-0.8,0.4c-0.8,0-1.2-0.5-1.2-1.2
		c0-0.7,0.4-1.2,1.2-1.2c0.3,0,0.6,0.1,0.8,0.3V12.1z"/>
	<path class="st1" d="M30.8,12.8v0.3c0.2-0.3,0.6-0.4,0.9-0.3v0.4c-0.5-0.1-0.9,0.2-0.9,0.7v1.3h-0.4v-2.3H30.8z"/>
	<path class="st1" d="M33.9,13.7c-0.1-0.4-0.4-0.6-0.7-0.6c-0.3,0-0.7,0.2-0.8,0.6H33.9z M34.4,14.1h-2c0,0.5,0.4,0.7,0.8,0.7
		c0.3,0,0.6-0.1,0.7-0.4h0.4c-0.2,0.5-0.7,0.8-1.1,0.8c-0.6,0-1.2-0.4-1.2-1.2c0-0.8,0.6-1.2,1.2-1.2c0.6,0,1.1,0.4,1.2,1.1
		C34.4,13.9,34.4,14,34.4,14.1"/>
	<path class="st1" d="M37.2,14.2c-0.1,0.6-0.6,0.9-1.2,0.9c-0.6,0-1.2-0.4-1.2-1.2c0-0.8,0.6-1.2,1.2-1.2c0.5,0,1.1,0.3,1.2,0.9
		h-0.4c-0.1-0.4-0.4-0.6-0.7-0.6c-0.4,0-0.8,0.3-0.8,0.8c0,0.6,0.4,0.8,0.8,0.8c0.3,0,0.6-0.2,0.7-0.6H37.2z"/>
	<path class="st1" d="M39.8,14.9c0,0.1-0.1,0.3-0.3,0.3c-0.1,0-0.3-0.1-0.3-0.3c0-0.2,0.1-0.3,0.3-0.3
		C39.7,14.6,39.8,14.7,39.8,14.9"/>
	<path class="st1" d="M39.1,14.8c0,0-0.1,0-0.1,0c-0.4,0-0.7-0.3-0.7-0.6v-1h0.8v-0.4h-0.8v-0.5h-0.4v0.5h-0.2v0.4h0.2v1
		c0,0.6,0.5,1,1.1,1c0,0,0.1,0,0.1,0V14.8z"/>
</g>
</svg>
