<svg xmlns="http://www.w3.org/2000/svg" xmlns:xlink="http://www.w3.org/1999/xlink" width="169" height="37" viewBox="0 0 169 37"><defs><path id="rzg1b" d="M879.82 3783.55c-.88 2.46-3.04 3.85-5.96 3.85-3.63 0-6.48-2.64-6.48-6.02 0-3.34 2.85-6.07 6.35-6.07 3.27 0 6.4 2.46 6.38 6.56H869.5a4.29 4.29 0 0 0 4.37 3.8c1.79 0 3.06-.78 3.75-2.12zm-2-3.37a4.27 4.27 0 0 0-4.08-3.15 4.33 4.33 0 0 0-4.13 3.15z"/><path id="rzg1c" d="M888.6 3775.37a6.35 6.35 0 0 0-.83-.06c-1.52 0-2.82.58-3.68 1.54v-1.25h-2.01v11.53h2.09v-7.05c0-1.73 1.4-3.02 3.3-3.02.42 0 .8.06 1.13.17z"/><path id="rzg1d" d="M836.68 3773.8v-2.1h-2.08z"/><path id="rzg1e" d="M845.42 3787.4a5.6 5.6 0 0 1-4.3-2.02v8.16h-2.08v-17.94h2.01v1.84a5.59 5.59 0 0 1 4.37-2.13c3.63 0 6.3 2.7 6.3 6.02a6.1 6.1 0 0 1-6.3 6.07m0-10.34a4.32 4.32 0 0 0-4.3 4.27 4.34 4.34 0 0 0 4.3 4.31 4.26 4.26 0 0 0 4.22-4.31 4.24 4.24 0 0 0-4.22-4.27"/><path id="rzg1a" d="M720 3800.5h168.6V3764H720z"/><path id="rzg1g" d="M834.6 3787.13h2.08v-11.53h-2.08z"/><path id="rzg1h" d="M832.48 3775.37a6.35 6.35 0 0 0-.83-.06c-1.52 0-2.82.58-3.68 1.54v-1.25h-2.01v11.53h2.09v-7.05c0-1.73 1.4-3.02 3.3-3.02.42 0 .8.06 1.13.17z"/><path id="rzg1i" d="M823.45 3785.51c-.19.03-.38.05-.57.05-1.97 0-3.3-1.27-3.3-3.02v-5.12h3.87v-1.82h-3.86v-2.46h-2.06v2.46h-1.11v1.82h1.1v5.12c0 2.84 2.26 4.86 5.36 4.86l.57-.03z"/><path id="rzg1j" d="M790.18 3787.13h-2.23l-4.59-11.53h2.2l3.52 9.18 3.48-9.18h2.2z"/><path id="rzg1k" d="M806.99 3783.55c-.88 2.46-3.04 3.85-5.96 3.85-3.63 0-6.48-2.64-6.48-6.02 0-3.34 2.85-6.07 6.35-6.07 3.27 0 6.4 2.46 6.39 6.56h-10.63a4.29 4.29 0 0 0 4.37 3.8c1.79 0 3.06-.78 3.75-2.12zm-2-3.37a4.27 4.27 0 0 0-4.08-3.15 4.32 4.32 0 0 0-4.13 3.15z"/><path id="rzg1l" d="M808.96 3787.12h2.09v-16.65h-2.09z"/><path id="rzg1m" d="M768.78 3775.37a6.34 6.34 0 0 0-.83-.06c-1.52 0-2.82.58-3.68 1.54v-1.25h-2.01v11.53h2.08v-7.05c0-1.73 1.4-3.02 3.32-3.02.41 0 .78.06 1.12.17z"/><path id="rzg1n" d="M781.99 3787.13h-2.01v-1.86a5.54 5.54 0 0 1-4.37 2.15c-3.63 0-6.33-2.7-6.33-6.04s2.7-6.07 6.33-6.07c1.86 0 3.48.96 4.37 2.13v-1.84h2zm-6.38-10a4.25 4.25 0 0 0 0 8.49 4.3 4.3 0 0 0 4.3-4.22 4.32 4.32 0 0 0-4.3-4.28z"/><path id="rzg1o" d="M759.75 3785.51c-.19.03-.38.05-.58.05-1.96 0-3.28-1.27-3.28-3.02v-5.12h3.86v-1.82h-3.86v-2.46h-2.06v2.46h-1.11v1.82h1.1v5.12c0 2.84 2.26 4.86 5.35 4.86.2 0 .39-.01.58-.03z"/><path id="rzg1p" d="M859.52 3787.4a5.6 5.6 0 0 1-4.3-2.02v8.16h-2.08v-17.94h2.01v1.84a5.59 5.59 0 0 1 4.37-2.13c3.63 0 6.3 2.7 6.3 6.02a6.1 6.1 0 0 1-6.3 6.07m0-10.34a4.32 4.32 0 0 0-4.3 4.27 4.34 4.34 0 0 0 4.3 4.31 4.26 4.26 0 0 0 4.23-4.31 4.24 4.24 0 0 0-4.23-4.27"/><path id="rzg1q" d="M731.5 3775.59H720l11.5 11.53z"/><path id="rzg1r" d="M731.49 3787.12h8.2c1.85 0 3.35-1.5 3.35-3.35V3764z"/><path id="rzg1s" d="M743.04 3764h-19.7a3.35 3.35 0 0 0-3.34 3.36v8.23z"/><path id="rzg1t" d="M763.33 3795.24c.51-.7 1.25-.87 1.98-.87 2 0 3.04 1.43 3.04 3.03 0 1.63-1 3.09-3.06 3.09-.73-.01-1.54-.25-1.96-.9v.8h-1.07v-7.66h1.07zm1.92 4.3c1.35.04 2.04-1.05 2.03-2.13-.02-1.05-.66-2.08-1.95-2.1-1 0-2 .7-2 2.12 0 1.4.95 2.1 1.92 2.12z"/><path id="rzg1u" d="M775.42 3797.68h-5c0 1.16 1.11 1.86 2 1.86.72 0 1.4-.31 1.75-.98h1.1a2.95 2.95 0 0 1-2.87 1.94c-1.51 0-3.04-1.03-3.04-3.07 0-2.03 1.5-3.05 3.06-3.05 1.47 0 2.9.93 3.02 2.79.03.18.02.36-.02.51zm-1.1-.88c-.2-1.06-1.05-1.48-1.9-1.48-.86 0-1.73.43-1.95 1.48z"/><path id="rzg1v" d="M784.3 3792.73h1.06v7.66h-1.07v-.8c-.42.65-1.23.89-1.97.9-2.06 0-3.14-1.33-3.14-3.09 0-1.7 1.13-3.03 3.13-3.03.73 0 1.47.16 1.98.87zm-2.02 2.58c-1.28.02-2.02 1.05-2.03 2.1-.01 1.25.76 2.17 2.1 2.14.99-.03 1.93-.73 1.93-2.12 0-1.43-1-2.13-2-2.12z"/><path id="rzg1w" d="M787.09 3800.39h1.07v-5.99h-1.07z"/><path id="rzg1x" d="M791 3794.48v.72c.57-.8 1.44-.98 2.37-.76v.94a1.83 1.83 0 0 0-2.36 1.8v3.2h-1.06v-5.9z"/><path id="rzg1y" d="M800.12 3797.68h-5c0 1.16 1.11 1.86 2 1.86.72 0 1.4-.31 1.75-.98h1.1a2.95 2.95 0 0 1-2.87 1.94c-1.51 0-3.04-1.03-3.04-3.07 0-2.03 1.5-3.05 3.06-3.05 1.47 0 2.9.93 3.02 2.79.03.18.02.36-.02.51zm-1.1-.88c-.2-1.06-1.05-1.48-1.9-1.48-.86 0-1.73.43-1.95 1.48z"/><path id="rzg1z" d="M807.33 3798.13c-.3 1.57-1.62 2.33-2.95 2.35-1.54.02-3.09-1-3.09-3.06 0-2.04 1.53-3.05 3.06-3.05 1.35 0 2.69.78 2.98 2.35h-1.1a1.88 1.88 0 0 0-1.86-1.4c-1 0-2.01.7-2.01 2.1 0 1.43 1 2.11 2.02 2.11.8 0 1.59-.45 1.85-1.4z"/><path id="rzg1A" d="M814.02 3799.79c0 .33-.28.67-.68.67-.37 0-.66-.34-.66-.67 0-.4.3-.68.66-.68.4 0 .68.27.68.68"/><path id="rzg1B" d="M812.07 3799.46l-.3.02c-1.01 0-1.7-.66-1.7-1.56v-2.47h2v-.94h-2v-1.27H809v1.27h-.57v.94h.57v2.47c0 1.47 1.17 2.51 2.77 2.51l.3-.01z"/><path id="rzg1C" d="M788.13 3793.8v-1.11h-1.1z"/><clipPath id="rzg1f"><use xlink:href="#rzg1a"/></clipPath></defs><g><g transform="translate(-720 -3764)"><g><use fill="#fff" xlink:href="#rzg1b"/></g><g><use fill="#fff" xlink:href="#rzg1c"/></g><g><use fill="#fff" xlink:href="#rzg1d"/></g><g><use fill="#fff" xlink:href="#rzg1e"/></g><g/><g clip-path="url(#rzg1f)"><use fill="#fff" xlink:href="#rzg1g"/></g><g clip-path="url(#rzg1f)"><use fill="#fff" xlink:href="#rzg1h"/></g><g clip-path="url(#rzg1f)"><use fill="#fff" xlink:href="#rzg1i"/></g><g clip-path="url(#rzg1f)"><use fill="#fff" xlink:href="#rzg1j"/></g><g clip-path="url(#rzg1f)"><use fill="#fff" xlink:href="#rzg1k"/></g><g clip-path="url(#rzg1f)"><use fill="#fff" xlink:href="#rzg1l"/></g><g clip-path="url(#rzg1f)"><use fill="#fff" xlink:href="#rzg1m"/></g><g clip-path="url(#rzg1f)"><use fill="#fff" xlink:href="#rzg1n"/></g><g clip-path="url(#rzg1f)"><use fill="#fff" xlink:href="#rzg1o"/></g><g clip-path="url(#rzg1f)"><use fill="#fff" xlink:href="#rzg1p"/></g><g clip-path="url(#rzg1f)"><use fill="#fff" xlink:href="#rzg1q"/></g><g clip-path="url(#rzg1f)"><use fill="#fff" xlink:href="#rzg1r"/></g><g clip-path="url(#rzg1f)"><use fill="#fff" xlink:href="#rzg1s"/></g><g clip-path="url(#rzg1f)"><use fill="#fff" xlink:href="#rzg1t"/></g><g clip-path="url(#rzg1f)"><use fill="#fff" xlink:href="#rzg1u"/></g><g clip-path="url(#rzg1f)"><use fill="#fff" xlink:href="#rzg1v"/></g><g clip-path="url(#rzg1f)"><use fill="#fff" xlink:href="#rzg1w"/></g><g clip-path="url(#rzg1f)"><use fill="#fff" xlink:href="#rzg1x"/></g><g clip-path="url(#rzg1f)"><use fill="#fff" xlink:href="#rzg1y"/></g><g clip-path="url(#rzg1f)"><use fill="#fff" xlink:href="#rzg1z"/></g><g clip-path="url(#rzg1f)"><use fill="#fff" xlink:href="#rzg1A"/></g><g clip-path="url(#rzg1f)"><use fill="#fff" xlink:href="#rzg1B"/></g><g clip-path="url(#rzg1f)"><use fill="#fff" xlink:href="#rzg1C"/></g></g></g></svg>