<svg xmlns="http://www.w3.org/2000/svg" xmlns:xlink="http://www.w3.org/1999/xlink" width="170" height="30" viewBox="0 0 170 30">
  <defs><path id="octea" d="M375.14 88.61c-.89 2.39-3.07 3.73-6 3.73-3.67 0-6.54-2.56-6.54-5.82 0-3.23 2.87-5.87 6.4-5.87 3.3 0 6.46 2.38 6.44 6.34h-10.71c.27 2.32 2.3 3.68 4.4 3.68 1.8 0 3.1-.76 3.78-2.06zm-2.03-3.26a4.33 4.33 0 0 0-8.26 0zM384 82.51c-.34-.1-.71-.17-1.14-.17-1.92 0-3.33 1.25-3.33 2.92v6.82h-2.1V80.93h2.02v1.22a5 5 0 0 1 3.71-1.5c.3 0 .57.02.84.06zm-54.45-5.34h2.1v2.02zm6.58 13.23v7.89h-2.1V80.93h2.02v1.78a5.72 5.72 0 0 1 4.4-2.06c3.67 0 6.36 2.62 6.36 5.83 0 3.25-2.7 5.87-6.35 5.87a5.75 5.75 0 0 1-4.33-1.95zm0-3.92a4.3 4.3 0 0 0 4.33 4.18 4.21 4.21 0 0 0 4.25-4.18 4.19 4.19 0 0 0-4.25-4.14 4.27 4.27 0 0 0-4.33 4.14zm-6.58-5.55h2.1V92.1h-2.1zm-2.14 1.58c-.34-.1-.71-.17-1.13-.17-1.93 0-3.34 1.25-3.34 2.92v6.82h-2.1V80.93h2.02v1.22a5 5 0 0 1 3.71-1.5c.3 0 .57.02.84.06zm-9.12 9.81c-.18.02-.38.03-.57.03-3.11 0-5.39-1.95-5.39-4.7v-4.96h-1.11v-1.76h1.11v-2.38h2.08v2.38h3.88v1.76h-3.88v4.96c0 1.69 1.33 2.92 3.3 2.92.2 0 .4-.02.58-.05zm-33.52-.23h-2.26l-4.63-11.16h2.23l3.54 8.88 3.52-8.88h2.23zm16.94-3.48c-.89 2.39-3.07 3.73-6 3.73-3.67 0-6.54-2.56-6.54-5.82 0-3.23 2.87-5.87 6.4-5.87 3.3 0 6.46 2.38 6.44 6.34H291.3c.27 2.32 2.3 3.68 4.4 3.68 1.8 0 3.1-.76 3.79-2.06zm-2.03-3.26a4.33 4.33 0 0 0-8.26 0zm4.01-9.37h2.1v16.1h-2.1zm-40.5 6.53c-.34-.1-.72-.17-1.14-.17-1.93 0-3.34 1.25-3.34 2.92v6.82h-2.1V80.93h2.03v1.22a4.99 4.99 0 0 1 3.7-1.5c.3 0 .58.02.85.06zm13.32 9.58h-2.03v-1.8a5.67 5.67 0 0 1-4.4 2.08c-3.67 0-6.4-2.62-6.4-5.85 0-3.23 2.73-5.87 6.4-5.87 1.87 0 3.5.93 4.4 2.06v-1.78h2.03zm-10.72-5.55a4.17 4.17 0 0 0 4.28 4.06c2.35 0 4.33-1.83 4.33-4.06a4.27 4.27 0 0 0-4.33-4.13 4.2 4.2 0 0 0-4.28 4.13zm-11.7 5.78c-.2.02-.39.03-.59.03-3.11 0-5.39-1.95-5.39-4.7v-4.96H247v-1.76h1.11v-2.38h2.08v2.38h3.89v1.76h-3.9v4.96c0 1.69 1.34 2.92 3.32 2.92.2 0 .4-.02.58-.05zm96.26-1.92v7.89h-2.1V80.93h2.02v1.78a5.72 5.72 0 0 1 4.4-2.06c3.67 0 6.36 2.62 6.36 5.83 0 3.25-2.7 5.87-6.35 5.87a5.75 5.75 0 0 1-4.33-1.95zm0-3.92a4.3 4.3 0 0 0 4.33 4.18 4.2 4.2 0 0 0 4.25-4.18 4.19 4.19 0 0 0-4.25-4.14 4.27 4.27 0 0 0-4.33 4.14zm-124.76 5.6L214 80.94h11.59zm11.65-22.37v19.13c0 1.8-1.51 3.25-3.38 3.25h-8.27zM214 80.93v-7.97c0-1.8 1.51-3.25 3.37-3.25h19.87z"/></defs>
  <g>
    <g transform="translate(-214 -69)"><use fill="#fefefe" xlink:href="#octea"/></g>
  </g>
</svg>
