<svg xmlns="http://www.w3.org/2000/svg" xmlns:xlink="http://www.w3.org/1999/xlink" width="170" height="30" viewBox="0 0 170 30"><defs><path id="rb69a" d="M196.14 1344.85c-.89 2.5-3.07 3.9-6 3.9-3.67 0-6.54-2.68-6.54-6.1a6.3 6.3 0 0 1 6.4-6.16 6.4 6.4 0 0 1 6.44 6.65h-10.71a4.33 4.33 0 0 0 4.4 3.86c1.8 0 3.1-.8 3.78-2.15zm-2.03-3.43a4.3 4.3 0 0 0-4.1-3.18 4.36 4.36 0 0 0-4.16 3.18zm10.89-2.98c-.34-.11-.71-.18-1.14-.18-1.92 0-3.33 1.31-3.33 3.06v7.16h-2.1v-11.7h2.02v1.27a4.87 4.87 0 0 1 3.71-1.56c.3 0 .57.02.84.05zm-54.45-5.61h2.1v2.12zm6.58 13.89v8.28h-2.1v-18.22h2.02v1.87a5.62 5.62 0 0 1 4.4-2.16 6.16 6.16 0 0 1 6.36 6.11c0 3.41-2.7 6.16-6.35 6.16a5.64 5.64 0 0 1-4.33-2.04zm0-4.12a4.4 4.4 0 0 0 4.33 4.39 4.32 4.32 0 0 0 4.25-4.39 4.3 4.3 0 0 0-4.25-4.34 4.37 4.37 0 0 0-4.33 4.34zm-6.58-5.82h2.1v11.71h-2.1zm-2.14 1.66c-.34-.11-.71-.18-1.13-.18-1.93 0-3.34 1.31-3.34 3.06v7.16h-2.1v-11.7h2.02v1.27a4.87 4.87 0 0 1 3.71-1.56c.3 0 .57.02.84.05zm-9.12 10.3c-.18.02-.38.02-.57.02-3.11 0-5.39-2.04-5.39-4.93v-5.2h-1.11v-1.85h1.11v-2.5h2.08v2.5h3.88v1.84h-3.88v5.21c0 1.77 1.33 3.07 3.3 3.07.2 0 .4-.02.58-.05zm-33.52-.25h-2.26l-4.63-11.7h2.23l3.54 9.31 3.52-9.32h2.23zm16.94-3.64c-.89 2.5-3.07 3.9-6 3.9-3.67 0-6.54-2.68-6.54-6.1a6.3 6.3 0 0 1 6.4-6.16 6.4 6.4 0 0 1 6.44 6.65H112.3a4.33 4.33 0 0 0 4.4 3.86c1.8 0 3.1-.8 3.79-2.15zm-2.03-3.43a4.3 4.3 0 0 0-4.1-3.18 4.36 4.36 0 0 0-4.16 3.18zm4.01-9.85h2.1v16.92h-2.1zm-40.5 6.87c-.34-.11-.72-.18-1.14-.18-1.93 0-3.34 1.31-3.34 3.06v7.16h-2.1v-11.7h2.03v1.27a4.87 4.87 0 0 1 3.7-1.56c.3 0 .58.02.85.05zm13.32 10.05h-2.03v-1.89a5.58 5.58 0 0 1-4.4 2.19 6.18 6.18 0 0 1-6.4-6.14 6.2 6.2 0 0 1 6.4-6.16c1.87 0 3.5.97 4.4 2.16v-1.87h2.03zm-10.72-5.83a4.26 4.26 0 0 0 4.28 4.27 4.34 4.34 0 0 0 4.33-4.27 4.37 4.37 0 0 0-4.33-4.33 4.3 4.3 0 0 0-4.28 4.33zm-11.7 6.08a6.8 6.8 0 0 1-.59.02c-3.11 0-5.39-2.04-5.39-4.93v-5.2H68v-1.85h1.11v-2.5h2.08v2.5h3.89v1.84h-3.9v5.21c0 1.77 1.34 3.07 3.32 3.07.2 0 .4-.02.58-.05zm96.26-2.02v8.28h-2.1v-18.22h2.02v1.87a5.62 5.62 0 0 1 4.4-2.16 6.16 6.16 0 0 1 6.36 6.11c0 3.41-2.7 6.16-6.35 6.16a5.64 5.64 0 0 1-4.33-2.04zm0-4.12a4.4 4.4 0 0 0 4.33 4.39 4.32 4.32 0 0 0 4.25-4.39 4.29 4.29 0 0 0-4.25-4.34 4.37 4.37 0 0 0-4.33 4.34zm-124.76 5.89L35 1336.78h11.59zM58.24 1325v20.08a3.4 3.4 0 0 1-3.38 3.41H46.6zM35 1336.78v-8.37a3.4 3.4 0 0 1 3.37-3.41h19.87z"/></defs><g><g transform="translate(-35 -1325)"><use fill="#767b82" xlink:href="#rb69a"/></g></g></svg>